{"glyphs":{"0":{"ha":751,"x_min":49,"x_max":702,"o":"m 702 494 q 686 288 702 381 q 633 127 670 195 q 532 23 595 60 q 375 -14 469 -14 q 192 45 264 -14 q 84 218 119 104 q 49 494 49 331 q 82 777 49 663 q 187 948 115 890 q 375 1006 259 1006 q 558 947 486 1006 q 666 774 631 888 q 702 494 702 660 m 298 494 q 304 327 298 393 q 327 228 310 260 q 375 195 343 195 q 424 228 408 195 q 447 327 441 260 q 453 494 453 393 q 447 662 453 595 q 424 763 441 729 q 375 797 408 797 q 327 763 344 797 q 304 662 311 729 q 298 494 298 595 z "},"1":{"ha":751,"x_min":55,"x_max":597,"o":"m 597 0 l 345 0 l 345 507 q 346 562 345 529 q 347 632 346 595 q 349 699 347 668 q 322 666 336 681 q 294 635 309 650 l 195 543 l 55 695 l 372 991 l 597 991 l 597 0 z "},"2":{"ha":751,"x_min":29,"x_max":688,"o":"m 688 0 l 39 0 l 39 171 l 254 419 q 359 551 323 500 q 409 636 395 601 q 422 705 422 671 q 399 770 422 748 q 336 792 375 792 q 253 767 294 792 q 159 686 212 743 l 29 847 q 121 932 74 897 q 228 987 169 968 q 365 1006 287 1006 q 525 971 456 1006 q 633 874 594 936 q 671 731 671 812 q 649 598 671 659 q 576 471 626 536 q 444 320 526 405 l 350 219 l 350 212 l 688 212 l 688 0 z "},"3":{"ha":751,"x_min":45,"x_max":693,"o":"m 667 762 q 642 654 667 702 q 573 574 617 607 q 473 522 530 541 l 473 518 q 637 443 581 500 q 693 283 693 385 q 651 130 693 197 q 524 24 608 62 q 315 -14 440 -14 q 172 -1 233 -14 q 45 39 111 12 l 45 257 q 165 208 104 224 q 277 192 226 192 q 395 219 361 192 q 429 296 429 245 q 411 360 429 335 q 352 397 394 385 q 236 409 311 409 l 181 409 l 181 606 l 237 606 q 345 620 304 606 q 405 658 385 633 q 424 718 424 683 q 396 779 424 759 q 319 798 369 798 q 253 788 286 798 q 193 764 221 779 q 144 735 165 750 l 46 909 q 183 981 110 956 q 366 1006 257 1006 q 587 943 506 1006 q 667 762 667 881 z "},"4":{"ha":751,"x_min":23,"x_max":731,"o":"m 731 192 l 628 192 l 628 0 l 382 0 l 382 192 l 23 192 l 23 383 l 393 991 l 628 991 l 628 387 l 731 387 l 731 192 m 382 387 l 382 512 q 382 546 382 523 q 384 594 383 569 q 386 638 385 620 q 387 658 387 656 l 380 658 q 359 606 370 628 q 334 559 349 584 l 231 387 l 382 387 z "},"5":{"ha":751,"x_min":66,"x_max":689,"o":"m 419 650 q 556 611 495 650 q 653 501 617 572 q 689 330 689 429 q 648 143 689 220 q 525 26 608 66 q 317 -14 443 -14 q 180 -1 243 -14 q 66 39 117 12 l 66 254 q 180 211 117 229 q 298 192 244 192 q 373 207 342 192 q 420 250 404 221 q 436 322 436 279 q 399 415 436 382 q 289 449 363 449 q 227 442 258 449 q 168 425 196 435 l 81 474 l 115 991 l 631 991 l 631 778 l 327 778 l 315 637 q 364 647 341 644 q 419 650 387 650 z "},"6":{"ha":751,"x_min":46,"x_max":708,"o":"m 46 419 q 58 592 46 507 q 99 751 69 677 q 181 883 128 826 q 314 973 233 941 q 511 1006 395 1006 q 583 1003 544 1006 q 653 994 621 1000 l 653 792 q 592 801 625 798 q 519 804 560 804 q 381 775 434 804 q 303 689 328 747 q 275 546 278 632 l 281 546 q 322 608 298 582 q 379 647 346 633 q 458 661 413 661 q 592 623 536 661 q 678 513 648 585 q 708 339 708 441 q 670 151 708 230 q 560 29 631 72 q 388 -14 488 -14 q 249 14 312 -14 q 141 96 186 41 q 71 232 96 151 q 46 419 46 313 m 382 193 q 440 227 418 193 q 463 334 463 261 q 445 428 463 395 q 384 460 426 460 q 338 445 357 460 q 308 404 318 429 q 297 349 297 378 q 302 290 297 318 q 318 240 307 262 q 345 205 329 218 q 382 193 361 193 z "},"7":{"ha":751,"x_min":52,"x_max":703,"o":"m 130 0 l 442 779 l 52 779 l 52 991 l 703 991 l 703 833 l 392 0 l 130 0 z "},"8":{"ha":751,"x_min":44,"x_max":707,"o":"m 377 1006 q 538 979 471 1006 q 643 897 606 951 q 680 764 680 843 q 662 663 680 708 q 610 584 644 618 q 528 522 576 549 q 621 450 581 488 q 684 366 661 412 q 707 264 707 321 q 670 118 707 180 q 559 21 633 56 q 374 -14 485 -14 q 190 20 264 -14 q 80 115 117 53 q 44 261 44 176 q 63 369 44 322 q 120 452 83 416 q 210 518 157 488 q 136 587 167 550 q 88 668 104 624 q 71 765 71 712 q 109 897 71 844 q 216 978 147 951 q 377 1006 286 1006 m 277 269 q 301 200 277 226 q 372 174 326 174 q 450 197 425 174 q 475 263 475 220 q 463 312 475 290 q 432 355 451 335 q 389 393 412 376 l 372 404 q 321 365 342 385 q 288 320 300 344 q 277 269 277 296 m 376 817 q 326 797 347 817 q 306 744 306 777 q 314 704 306 723 q 337 669 322 685 q 374 637 353 652 q 412 669 396 654 q 437 702 428 684 q 446 744 446 720 q 426 798 446 778 q 376 817 405 817 z "},"9":{"ha":751,"x_min":42,"x_max":705,"o":"m 705 566 q 689 377 705 465 q 640 217 673 289 q 551 94 606 146 q 420 14 497 42 q 241 -14 343 -14 q 169 -11 207 -14 q 100 -4 132 -9 l 100 200 q 158 191 129 194 q 223 188 188 188 q 369 217 315 188 q 449 304 424 247 q 477 446 473 362 l 469 446 q 429 384 452 410 q 371 344 405 358 q 291 330 338 330 q 158 369 214 330 q 72 480 102 408 q 42 654 42 552 q 81 842 42 764 q 192 963 119 921 q 364 1006 264 1006 q 501 978 439 1006 q 609 895 564 950 q 680 757 654 840 q 705 566 705 675 m 370 799 q 309 765 332 799 q 287 657 287 731 q 307 564 287 597 q 368 531 328 531 q 415 549 396 531 q 445 593 435 567 q 454 643 454 619 q 450 691 454 665 q 437 743 446 718 q 411 783 427 767 q 370 799 395 799 z "},"\u0000":{"ha":0,"x_min":0,"x_max":0,"o":""},"\r":{"ha":302,"x_min":0,"x_max":0,"o":""}," ":{"ha":302,"x_min":0,"x_max":0,"o":""},"!":{"ha":390,"x_min":57,"x_max":334,"o":"m 300 350 l 91 350 l 57 991 l 334 991 l 300 350 m 59 113 q 97 211 59 180 q 195 243 134 243 q 291 211 254 243 q 328 113 328 180 q 291 15 328 47 q 195 -17 254 -17 q 98 15 136 -17 q 59 113 59 47 z "},"\"":{"ha":700,"x_min":68,"x_max":632,"o":"m 310 991 l 282 633 l 96 633 l 68 991 l 310 991 m 632 991 l 604 633 l 418 633 l 391 991 l 632 991 z "},"#":{"ha":838,"x_min":27,"x_max":817,"o":"m 653 559 l 632 431 l 779 431 l 779 265 l 606 265 l 562 0 l 389 0 l 433 265 l 333 265 l 290 0 l 119 0 l 162 265 l 27 265 l 27 431 l 190 431 l 211 559 l 66 559 l 66 728 l 238 728 l 282 991 l 454 991 l 409 728 l 509 728 l 551 991 l 724 991 l 680 728 l 817 728 l 817 559 l 653 559 m 361 431 l 460 431 l 481 559 l 381 559 l 361 431 z "},"$":{"ha":745,"x_min":50,"x_max":699,"o":"m 319 -81 l 319 39 q 183 57 246 41 q 64 97 121 72 l 64 303 q 191 249 123 271 q 319 223 260 227 l 319 416 q 176 481 237 444 q 83 571 116 517 q 50 703 50 625 q 83 837 50 783 q 178 922 117 891 q 319 960 239 952 l 319 1055 l 432 1055 l 432 961 q 561 940 500 957 q 676 897 623 922 l 623 720 q 528 756 578 743 q 432 774 479 770 l 432 592 q 579 529 520 563 q 668 446 638 495 q 699 321 699 397 q 632 138 699 214 q 432 43 566 62 l 432 -81 l 319 -81 m 432 231 q 482 258 467 240 q 498 304 498 277 q 491 334 498 321 q 470 358 484 347 q 432 378 456 369 l 432 231 m 319 631 l 319 773 q 280 761 295 770 q 258 738 265 751 q 252 705 252 724 q 258 676 252 690 q 280 653 265 663 q 319 631 295 642 z "},"%":{"ha":1242,"x_min":29,"x_max":1211,"o":"m 265 1006 q 439 923 374 1006 q 505 696 505 840 q 443 466 505 548 q 265 383 381 383 q 93 467 157 383 q 29 696 29 551 q 91 925 29 844 q 265 1006 153 1006 m 268 845 q 230 806 241 845 q 218 693 218 767 q 230 580 218 619 q 268 541 241 541 q 306 580 294 541 q 317 693 317 618 q 306 806 317 768 q 268 845 294 845 m 949 991 l 471 0 l 287 0 l 766 991 l 949 991 m 972 611 q 1146 528 1080 611 q 1211 301 1211 446 q 1149 72 1211 154 q 972 -11 1087 -11 q 800 73 864 -11 q 736 301 736 157 q 798 530 736 450 q 972 611 859 611 m 974 451 q 936 412 947 451 q 924 298 924 372 q 936 186 924 225 q 974 146 947 146 q 1013 188 1002 146 q 1023 298 1023 229 q 1013 410 1023 370 q 974 451 1002 451 z "},"&":{"ha":1002,"x_min":40,"x_max":1008,"o":"m 420 1004 q 571 976 509 1004 q 667 895 634 948 q 700 768 700 842 q 655 626 700 688 q 536 515 610 564 l 650 393 q 682 466 668 425 q 705 557 696 508 l 962 557 q 905 371 943 462 q 817 208 867 279 l 1008 0 l 692 0 l 638 64 q 564 23 602 41 q 478 -4 526 5 q 361 -14 430 -14 q 185 24 256 -14 q 77 126 113 61 q 40 275 40 191 q 60 385 40 335 q 119 476 80 435 q 216 547 158 517 q 170 614 189 580 q 141 686 151 648 q 131 768 131 724 q 165 891 131 838 q 264 974 199 944 q 420 1004 329 1004 m 342 405 q 314 374 326 391 q 298 336 303 356 q 292 292 292 315 q 319 221 292 251 q 393 191 347 191 q 453 201 427 191 q 496 226 478 211 l 342 405 m 418 836 q 374 819 393 836 q 355 765 355 802 q 370 709 355 736 q 409 656 385 682 q 460 710 442 678 q 478 773 478 741 q 461 821 478 806 q 418 836 444 836 z "},"'":{"ha":378,"x_min":68,"x_max":310,"o":"m 310 991 l 282 633 l 96 633 l 68 991 l 310 991 z "},"(":{"ha":476,"x_min":55,"x_max":456,"o":"m 55 395 q 76 630 55 517 q 140 841 98 742 q 242 1019 182 939 l 456 1019 q 321 728 364 887 q 279 396 279 569 q 298 178 279 284 q 357 -28 317 71 q 455 -220 396 -128 l 242 -220 q 139 -42 180 -139 q 76 164 97 54 q 55 395 55 274 z "},")":{"ha":476,"x_min":20,"x_max":421,"o":"m 421 395 q 400 164 421 274 q 338 -42 380 54 q 233 -220 296 -139 l 21 -220 q 119 -28 80 -128 q 177 178 158 71 q 197 396 197 284 q 178 621 197 511 q 120 830 159 730 q 20 1019 81 931 l 233 1019 q 336 841 294 939 q 400 630 378 742 q 421 395 421 517 z "},"*":{"ha":703,"x_min":24,"x_max":680,"o":"m 454 1058 l 428 834 l 644 907 l 680 709 l 478 690 l 621 519 l 450 412 l 350 601 l 258 413 l 83 519 l 226 690 l 24 711 l 63 907 l 276 834 l 250 1058 l 454 1058 z "},"+":{"ha":754,"x_min":55,"x_max":699,"o":"m 469 581 l 699 581 l 699 399 l 469 399 l 469 154 l 285 154 l 285 399 l 55 399 l 55 581 l 285 581 l 285 829 l 469 829 l 469 581 z "},",":{"ha":404,"x_min":41,"x_max":334,"o":"m 326 203 l 334 187 q 306 56 322 125 q 270 -77 290 -13 q 229 -193 250 -142 l 41 -193 q 64 -63 53 -134 q 85 79 76 9 q 100 203 95 149 l 326 203 z "},"-":{"ha":447,"x_min":35,"x_max":412,"o":"m 35 267 l 35 478 l 412 478 l 412 267 l 35 267 z "},".":{"ha":391,"x_min":60,"x_max":330,"o":"m 60 113 q 98 211 60 180 q 197 243 136 243 q 293 211 256 243 q 330 113 330 180 q 292 15 330 47 q 197 -17 255 -17 q 99 15 138 -17 q 60 113 60 47 z "},"/":{"ha":602,"x_min":5,"x_max":600,"o":"m 600 1006 l 221 -14 l 5 -14 l 385 1006 l 600 1006 z "},":":{"ha":395,"x_min":63,"x_max":332,"o":"m 63 113 q 101 211 63 180 q 200 243 138 243 q 295 211 258 243 q 332 113 332 180 q 295 15 332 47 q 200 -17 258 -17 q 102 15 140 -17 q 63 113 63 47 m 63 648 q 101 747 63 715 q 200 779 138 779 q 295 747 258 779 q 332 648 332 715 q 295 551 332 583 q 200 519 258 519 q 102 551 140 519 q 63 648 63 583 z "},";":{"ha":401,"x_min":40,"x_max":334,"o":"m 326 203 l 334 187 q 306 56 322 125 q 270 -77 289 -13 q 229 -193 250 -142 l 40 -193 q 64 -62 53 -134 q 85 79 76 9 q 100 203 94 149 l 326 203 m 65 648 q 102 747 65 715 q 201 779 140 779 q 297 747 260 779 q 334 648 334 715 q 296 551 334 583 q 201 519 259 519 q 103 551 142 519 q 65 648 65 583 z "},"<":{"ha":754,"x_min":52,"x_max":698,"o":"m 698 138 l 52 434 l 52 551 l 698 865 l 698 664 l 317 496 l 698 338 l 698 138 z "},"=":{"ha":754,"x_min":55,"x_max":699,"o":"m 55 553 l 55 734 l 699 734 l 699 553 l 55 553 m 55 243 l 55 427 l 699 427 l 699 243 l 55 243 z "},">":{"ha":754,"x_min":55,"x_max":702,"o":"m 55 338 l 436 496 l 55 664 l 55 865 l 702 551 l 702 434 l 55 138 l 55 338 z "},"?":{"ha":630,"x_min":0,"x_max":608,"o":"m 174 350 l 174 408 q 184 486 174 452 q 218 550 195 520 q 283 610 242 580 q 339 658 320 637 q 366 697 359 678 q 373 738 373 715 q 351 785 373 768 q 287 802 328 802 q 192 783 243 802 q 83 729 141 765 l 0 909 q 148 981 71 956 q 308 1006 224 1006 q 530 938 452 1006 q 608 758 608 871 q 592 658 608 702 q 544 577 576 614 q 463 503 512 540 q 406 456 425 474 q 380 421 387 437 q 373 385 373 406 l 373 350 l 174 350 m 143 113 q 181 211 143 180 q 279 243 218 243 q 375 211 338 243 q 412 113 412 180 q 375 15 412 47 q 279 -17 338 -17 q 181 15 220 -17 q 143 113 143 47 z "},"@":{"ha":1156,"x_min":52,"x_max":1104,"o":"m 1104 513 q 1087 378 1104 441 q 1040 264 1071 314 q 964 186 1008 215 q 865 158 920 158 q 772 181 813 158 q 709 246 730 203 l 699 246 q 630 182 670 205 q 541 158 591 158 q 369 232 427 158 q 310 433 310 307 q 347 600 310 527 q 452 714 383 672 q 620 755 522 755 q 735 744 677 755 q 838 714 794 732 l 826 428 q 825 395 825 414 q 824 356 824 375 q 833 312 824 326 q 859 298 843 298 q 900 322 882 298 q 927 396 917 347 q 937 514 937 444 q 900 697 937 618 q 789 819 863 775 q 605 863 715 863 q 441 830 513 863 q 321 739 370 798 q 249 597 273 679 q 224 415 224 515 q 263 215 224 299 q 382 85 303 131 q 578 40 461 40 q 735 58 650 40 q 897 105 820 75 l 897 -43 q 750 -89 829 -73 q 585 -104 671 -104 q 296 -42 416 -104 q 114 137 177 20 q 52 414 52 253 q 91 652 52 545 q 203 839 130 760 q 378 961 276 918 q 604 1004 479 1004 q 867 944 754 1004 q 1042 773 979 884 q 1104 513 1104 663 m 488 433 q 509 330 488 362 q 564 298 530 298 q 627 343 608 298 q 653 499 646 388 l 659 610 q 639 614 648 613 q 621 616 631 616 q 548 592 577 616 q 503 528 518 569 q 488 433 488 487 z "},"A":{"ha":903,"x_min":0,"x_max":903,"o":"m 630 0 l 587 190 l 319 190 l 275 0 l 0 0 l 283 994 l 617 994 l 903 0 l 630 0 m 541 401 l 500 593 q 484 667 493 625 q 466 752 474 709 q 452 825 457 794 q 440 754 448 795 q 423 671 432 713 q 406 595 414 629 l 364 401 l 541 401 z "},"B":{"ha":856,"x_min":95,"x_max":794,"o":"m 95 991 l 412 991 q 689 930 603 991 q 776 745 776 868 q 756 640 776 685 q 704 566 736 594 q 633 526 671 537 l 633 519 q 716 479 680 507 q 773 406 752 452 q 794 290 794 360 q 752 136 794 201 q 631 35 709 71 q 446 0 553 0 l 95 0 l 95 991 m 347 608 l 413 608 q 493 635 468 608 q 519 707 519 662 q 492 772 519 750 q 408 795 465 795 l 347 795 l 347 608 m 347 418 l 347 201 l 425 201 q 509 231 484 201 q 535 311 535 260 q 524 367 535 342 q 487 405 512 391 q 420 418 461 418 l 347 418 z "},"C":{"ha":803,"x_min":62,"x_max":765,"o":"m 496 795 q 424 774 456 795 q 369 714 391 753 q 335 619 347 675 q 323 492 323 563 q 343 329 323 395 q 406 231 364 264 q 510 198 447 198 q 620 216 567 198 q 726 260 673 235 l 726 41 q 608 0 670 13 q 476 -14 546 -14 q 244 48 336 -14 q 107 223 153 109 q 62 493 62 336 q 91 701 62 607 q 174 863 119 795 q 308 968 229 931 q 488 1006 387 1006 q 627 989 557 1006 q 765 936 697 972 l 692 734 q 598 778 646 760 q 496 795 550 795 z "},"D":{"ha":918,"x_min":95,"x_max":855,"o":"m 855 517 q 798 233 855 348 q 635 59 741 118 q 383 0 530 0 l 95 0 l 95 991 l 402 991 q 648 937 547 991 q 802 776 749 882 q 855 517 855 670 m 594 507 q 573 663 594 603 q 509 752 551 724 q 401 781 466 781 l 347 781 l 347 213 l 386 213 q 544 285 494 213 q 594 507 594 357 z "},"E":{"ha":689,"x_min":95,"x_max":628,"o":"m 628 0 l 95 0 l 95 991 l 628 991 l 628 784 l 347 784 l 347 616 l 607 616 l 607 409 l 347 409 l 347 211 l 628 211 l 628 0 z "},"F":{"ha":677,"x_min":95,"x_max":625,"o":"m 345 0 l 95 0 l 95 991 l 625 991 l 625 784 l 345 784 l 345 583 l 604 583 l 604 376 l 345 376 l 345 0 z "},"G":{"ha":926,"x_min":62,"x_max":844,"o":"m 458 581 l 844 581 l 844 46 q 679 2 768 18 q 493 -14 589 -14 q 264 44 361 -14 q 115 216 168 102 q 62 498 62 330 q 118 770 62 656 q 279 944 173 883 q 537 1006 385 1006 q 696 988 622 1006 q 827 943 771 970 l 751 742 q 652 781 705 768 q 542 795 600 795 q 418 756 466 795 q 347 650 370 718 q 323 492 323 583 q 345 332 323 397 q 409 233 367 267 q 511 199 451 199 q 559 202 532 199 q 603 210 585 205 l 603 378 l 458 378 l 458 581 z "},"H":{"ha":955,"x_min":95,"x_max":861,"o":"m 861 0 l 608 0 l 608 409 l 347 409 l 347 0 l 95 0 l 95 991 l 347 991 l 347 621 l 608 621 l 608 991 l 861 991 l 861 0 z "},"I":{"ha":442,"x_min":95,"x_max":347,"o":"m 95 0 l 95 991 l 347 991 l 347 0 l 95 0 z "},"J":{"ha":446,"x_min":-97,"x_max":351,"o":"m 30 -311 q -39 -307 -7 -311 q -97 -297 -71 -303 l -97 -93 q -56 -103 -78 -98 q -9 -107 -35 -107 q 56 -89 33 -107 q 90 -33 80 -71 q 100 70 100 6 l 100 991 l 351 991 l 351 87 q 312 -150 351 -62 q 200 -274 273 -237 q 30 -311 128 -311 z "},"K":{"ha":861,"x_min":95,"x_max":871,"o":"m 867 0 l 585 0 l 415 374 l 347 332 l 347 0 l 95 0 l 95 991 l 347 991 l 347 561 q 377 624 359 592 q 414 688 395 656 l 598 991 l 871 991 l 596 547 l 867 0 z "},"L":{"ha":702,"x_min":95,"x_max":667,"o":"m 95 0 l 95 991 l 347 991 l 347 210 l 667 210 l 667 0 l 95 0 z "},"M":{"ha":1232,"x_min":95,"x_max":1138,"o":"m 504 0 l 317 690 l 311 690 q 317 610 314 654 q 321 519 319 565 q 323 431 323 473 l 323 0 l 95 0 l 95 991 l 435 991 l 615 342 l 620 342 l 799 991 l 1138 991 l 1138 0 l 901 0 l 901 435 q 903 522 901 477 q 907 611 905 568 q 911 690 909 655 l 905 690 l 719 0 l 504 0 z "},"N":{"ha":1035,"x_min":95,"x_max":941,"o":"m 941 0 l 627 0 l 317 658 l 311 658 q 317 569 315 614 q 321 481 320 524 q 323 406 323 439 l 323 0 l 95 0 l 95 991 l 406 991 l 715 347 l 720 347 q 715 432 718 389 q 712 516 713 475 q 711 588 711 556 l 711 991 l 941 991 l 941 0 z "},"O":{"ha":985,"x_min":62,"x_max":922,"o":"m 922 497 q 896 283 922 378 q 817 122 870 189 q 683 21 764 56 q 492 -14 602 -14 q 303 21 385 -14 q 169 122 222 56 q 89 283 115 189 q 62 498 62 378 q 110 772 62 659 q 253 947 157 886 q 493 1007 349 1007 q 734 947 640 1007 q 876 772 829 886 q 922 497 922 659 m 326 497 q 344 336 326 402 q 398 236 361 270 q 492 201 435 201 q 588 235 552 201 q 641 335 625 269 q 658 497 658 401 q 619 720 658 643 q 493 796 581 796 q 398 761 435 796 q 344 660 361 726 q 326 497 326 593 z "},"P":{"ha":800,"x_min":95,"x_max":755,"o":"m 414 991 q 670 909 585 991 q 755 676 755 827 q 736 543 755 606 q 675 432 717 479 q 568 356 634 384 q 408 329 501 329 l 347 329 l 347 0 l 95 0 l 95 991 l 414 991 m 399 783 l 347 783 l 347 538 l 384 538 q 444 552 417 538 q 487 594 471 565 q 503 672 503 624 q 477 754 503 725 q 399 783 452 783 z "},"Q":{"ha":985,"x_min":62,"x_max":934,"o":"m 922 497 q 901 301 922 389 q 837 148 880 213 q 728 42 794 83 l 934 -236 l 634 -236 l 491 -13 q 486 -13 490 -13 q 481 -13 483 -13 q 297 23 376 -13 q 166 127 218 60 q 88 289 114 195 q 62 498 62 382 q 110 772 62 659 q 253 947 157 886 q 493 1007 349 1007 q 734 947 640 1007 q 876 772 829 886 q 922 497 922 659 m 326 497 q 344 336 326 402 q 398 236 361 270 q 492 201 435 201 q 588 235 552 201 q 641 335 625 269 q 658 497 658 401 q 619 720 658 643 q 493 796 581 796 q 398 761 435 796 q 344 660 361 726 q 326 497 326 593 z "},"R":{"ha":848,"x_min":95,"x_max":861,"o":"m 390 991 q 598 959 515 991 q 723 861 681 926 q 764 699 764 796 q 747 590 764 640 q 695 502 729 541 q 612 432 661 463 l 861 0 l 578 0 l 396 367 l 347 367 l 347 0 l 95 0 l 95 991 l 390 991 m 387 791 l 347 791 l 347 559 l 385 559 q 474 589 441 559 q 507 686 507 618 q 478 765 507 738 q 387 791 449 791 z "},"S":{"ha":716,"x_min":50,"x_max":676,"o":"m 676 301 q 636 143 676 215 q 519 29 597 72 q 326 -14 441 -14 q 225 -7 271 -14 q 137 12 179 -1 q 50 49 95 26 l 50 288 q 191 226 119 248 q 321 204 263 204 q 378 214 356 204 q 411 240 400 223 q 422 278 422 256 q 409 320 422 302 q 363 360 396 338 q 272 412 331 381 q 183 467 222 439 q 115 529 143 494 q 72 608 87 563 q 56 715 56 654 q 97 872 56 808 q 214 971 138 937 q 394 1006 290 1006 q 543 986 473 1006 q 676 935 613 966 l 604 728 q 493 775 546 759 q 395 791 440 791 q 346 783 365 791 q 318 760 327 774 q 309 728 309 746 q 322 685 309 703 q 371 645 336 666 q 470 589 406 623 q 582 515 536 554 q 652 425 628 476 q 676 301 676 373 z "},"T":{"ha":730,"x_min":29,"x_max":701,"o":"m 491 0 l 240 0 l 240 780 l 29 780 l 29 991 l 701 991 l 701 780 l 491 780 l 491 0 z "},"U":{"ha":934,"x_min":90,"x_max":846,"o":"m 846 991 l 846 366 q 803 161 846 246 q 675 31 760 76 q 464 -14 590 -14 q 186 82 283 -14 q 90 359 90 177 l 90 991 l 342 991 l 342 376 q 374 242 342 283 q 467 201 406 201 q 539 219 511 201 q 580 275 567 237 q 593 377 593 314 l 593 991 l 846 991 z "},"V":{"ha":871,"x_min":0,"x_max":871,"o":"m 871 991 l 582 0 l 287 0 l 0 991 l 275 991 l 392 496 q 408 419 399 465 q 425 328 417 374 q 435 254 433 283 q 446 328 438 283 q 462 418 453 372 q 478 494 471 463 l 597 991 l 871 991 z "},"W":{"ha":1284,"x_min":11,"x_max":1274,"o":"m 1274 991 l 1058 0 l 764 0 l 683 401 q 673 455 678 424 q 662 522 667 486 q 651 593 656 557 q 643 659 646 629 q 636 597 641 632 q 625 525 631 562 q 613 456 619 488 q 604 402 608 424 l 521 0 l 229 0 l 11 991 l 255 991 l 345 527 q 355 472 349 505 q 367 399 361 438 q 379 322 373 360 q 388 254 385 284 q 400 341 393 294 q 416 434 407 387 q 432 520 425 480 q 446 587 440 560 l 534 991 l 753 991 l 835 587 q 849 518 841 559 q 866 430 857 477 q 881 337 874 383 q 892 254 888 292 q 904 340 896 290 q 920 440 911 390 q 935 526 928 490 l 1027 991 l 1274 991 z "},"X":{"ha":863,"x_min":0,"x_max":863,"o":"m 863 0 l 581 0 l 429 298 l 276 0 l 0 0 l 278 502 l 17 991 l 288 991 l 426 701 l 557 991 l 835 991 l 575 495 l 863 0 z "},"Y":{"ha":827,"x_min":0,"x_max":827,"o":"m 414 627 l 560 991 l 827 991 l 540 384 l 540 0 l 287 0 l 287 376 l 0 991 l 269 991 l 414 627 z "},"Z":{"ha":751,"x_min":35,"x_max":720,"o":"m 720 0 l 35 0 l 35 165 l 416 783 l 44 783 l 44 991 l 710 991 l 710 827 l 330 210 l 720 210 l 720 0 z "},"[":{"ha":436,"x_min":68,"x_max":408,"o":"m 408 -233 l 68 -233 l 68 1019 l 408 1019 l 408 847 l 280 847 l 280 -61 l 408 -61 l 408 -233 z "},"\\":{"ha":602,"x_min":3,"x_max":597,"o":"m 220 1006 l 597 -14 l 382 -14 l 3 1006 l 220 1006 z "},"]":{"ha":436,"x_min":28,"x_max":368,"o":"m 28 -61 l 155 -61 l 155 847 l 28 847 l 28 1019 l 368 1019 l 368 -233 l 28 -233 l 28 -61 z "},"^":{"ha":741,"x_min":-1,"x_max":745,"o":"m -1 338 l 303 994 l 418 994 l 745 338 l 544 338 l 364 710 l 197 338 l -1 338 z "},"_":{"ha":694,"x_min":-3,"x_max":697,"o":"m 697 -257 l -3 -257 l -3 -90 l 697 -90 l 697 -257 z "},"`":{"ha":526,"x_min":56,"x_max":471,"o":"m 328 1064 q 373 996 346 1035 q 427 921 399 958 q 471 861 454 884 l 471 842 l 300 842 q 244 886 277 859 q 175 944 211 913 q 107 1004 138 975 q 56 1050 75 1032 l 56 1064 l 328 1064 z "},"a":{"ha":776,"x_min":43,"x_max":697,"o":"m 418 782 q 623 712 549 782 q 697 504 697 642 l 697 0 l 524 0 l 480 102 l 475 102 q 416 37 447 62 q 346 -1 385 11 q 250 -14 306 -14 q 137 18 184 -14 q 67 105 91 50 q 43 235 43 161 q 118 418 43 358 q 338 485 194 479 l 452 489 l 452 505 q 431 576 452 553 q 369 599 409 599 q 281 584 330 599 q 179 542 233 569 l 112 713 q 250 764 173 747 q 418 782 326 782 m 453 343 l 401 340 q 316 315 342 338 q 290 248 290 292 q 307 189 290 208 q 355 170 324 170 q 425 200 396 170 q 453 279 453 231 l 453 343 z "},"b":{"ha":810,"x_min":81,"x_max":759,"o":"m 326 1055 l 326 817 q 323 749 326 785 q 317 669 321 712 l 326 669 q 401 752 357 723 q 511 782 446 782 q 691 678 623 782 q 759 386 759 574 q 728 170 759 259 q 640 34 696 81 q 505 -14 583 -14 q 399 9 438 -14 q 326 75 361 33 l 312 75 l 275 0 l 81 0 l 81 1055 l 326 1055 m 422 581 q 367 564 389 581 q 336 509 346 546 q 326 413 326 471 l 326 372 q 348 232 326 276 q 424 187 370 187 q 488 238 465 187 q 510 389 510 288 q 488 533 510 485 q 422 581 467 581 z "},"c":{"ha":675,"x_min":52,"x_max":642,"o":"m 397 -14 q 210 28 288 -14 q 92 157 133 70 q 52 380 52 245 q 94 596 52 507 q 217 734 136 686 q 410 782 297 782 q 534 767 477 782 q 642 724 592 752 l 573 536 q 495 570 532 558 q 418 582 457 582 q 356 559 382 582 q 315 492 330 536 q 300 381 300 448 q 315 272 300 315 q 357 208 330 229 q 421 188 384 188 q 522 205 472 188 q 619 256 572 223 l 619 54 q 520 4 574 22 q 397 -14 466 -14 z "},"d":{"ha":810,"x_min":52,"x_max":730,"o":"m 302 -14 q 120 91 188 -14 q 52 385 52 195 q 121 679 52 575 q 304 782 190 782 q 381 769 347 782 q 441 730 414 755 q 488 669 467 705 l 494 669 q 487 754 490 710 q 484 833 484 798 l 484 1055 l 730 1055 l 730 0 l 540 0 l 495 86 l 484 86 q 437 33 463 55 q 380 -2 412 10 q 302 -14 347 -14 m 393 185 q 471 228 448 185 q 495 364 494 271 l 495 397 q 472 533 495 488 q 393 578 450 578 q 325 531 350 578 q 299 384 299 483 q 325 233 299 281 q 393 185 351 185 z "},"e":{"ha":764,"x_min":52,"x_max":716,"o":"m 390 781 q 565 742 492 781 q 677 624 638 702 q 716 431 716 546 l 716 313 l 296 313 q 335 207 298 244 q 446 170 372 170 q 561 184 508 170 q 671 229 613 198 l 671 42 q 558 0 619 13 q 413 -14 496 -14 q 218 30 299 -14 q 95 161 138 73 q 52 380 52 248 q 92 603 52 513 q 209 736 133 692 q 390 781 284 781 m 397 604 q 329 574 356 604 q 298 475 301 545 l 492 475 q 480 546 492 517 q 448 589 469 574 q 397 604 427 604 z "},"f":{"ha":514,"x_min":20,"x_max":545,"o":"m 503 576 l 359 576 l 359 0 l 113 0 l 113 576 l 20 576 l 20 701 l 116 765 l 116 778 q 141 942 116 879 q 219 1034 166 1004 q 355 1063 271 1063 q 450 1054 408 1063 q 545 1026 492 1045 l 494 858 q 454 868 475 864 q 410 871 433 871 q 371 853 383 871 q 359 793 359 834 l 359 768 l 503 768 l 503 576 z "},"g":{"ha":767,"x_min":10,"x_max":748,"o":"m 323 -334 q 92 -278 173 -334 q 10 -119 10 -222 q 52 -9 10 -55 q 169 56 93 37 q 109 101 134 70 q 85 169 85 133 q 105 237 85 210 q 173 298 125 264 q 92 384 122 326 q 61 517 61 442 q 96 660 61 602 q 199 750 132 719 q 366 781 267 781 q 411 778 387 781 q 458 772 436 775 q 494 765 481 768 l 748 765 l 748 635 l 653 604 q 668 561 663 583 q 672 511 672 538 q 592 317 672 386 q 360 249 513 249 q 297 255 319 249 q 287 238 292 248 q 281 217 281 229 q 295 193 281 202 q 330 180 308 184 q 378 176 353 176 l 511 176 q 680 123 623 176 q 738 -39 738 70 q 631 -257 738 -180 q 323 -334 524 -334 m 337 -169 q 428 -159 387 -169 q 494 -130 469 -149 q 518 -80 518 -110 q 505 -46 518 -58 q 467 -31 492 -35 q 406 -26 442 -26 l 302 -26 q 263 -36 280 -26 q 236 -61 245 -45 q 226 -98 226 -77 q 256 -150 226 -131 q 337 -169 286 -169 m 368 400 q 417 429 400 400 q 435 515 435 458 q 418 603 435 574 q 368 631 401 631 q 316 603 333 631 q 299 516 299 574 q 316 429 299 458 q 368 400 332 400 z "},"h":{"ha":833,"x_min":81,"x_max":754,"o":"m 326 1055 l 326 884 q 322 765 326 818 q 311 673 318 712 l 323 673 q 371 736 344 712 q 434 771 399 760 q 513 782 470 782 q 638 751 584 782 q 723 657 692 720 q 754 500 754 595 l 754 0 l 509 0 l 509 424 q 490 539 509 500 q 433 578 471 578 q 367 552 391 578 q 335 474 344 526 q 326 345 326 422 l 326 0 l 81 0 l 81 1055 l 326 1055 z "},"i":{"ha":410,"x_min":75,"x_max":336,"o":"m 327 768 l 327 0 l 82 0 l 82 768 l 327 768 m 205 1078 q 300 1051 264 1078 q 336 960 336 1024 q 299 870 336 897 q 205 843 263 843 q 111 870 146 843 q 75 960 75 897 q 110 1051 75 1025 q 205 1078 144 1078 z "},"j":{"ha":410,"x_min":-62,"x_max":335,"o":"m 68 -334 q 2 -329 38 -334 q -62 -317 -34 -324 l -62 -118 q -25 -127 -42 -124 q 10 -130 -8 -130 q 62 -107 43 -130 q 81 -26 81 -84 l 81 768 l 326 768 l 326 -62 q 299 -204 326 -143 q 214 -299 271 -265 q 68 -334 157 -333 m 75 960 q 109 1051 75 1025 q 204 1078 144 1078 q 299 1051 264 1078 q 335 960 335 1024 q 299 870 335 897 q 204 843 262 843 q 110 870 146 843 q 75 960 75 897 z "},"k":{"ha":820,"x_min":81,"x_max":823,"o":"m 326 1055 l 326 638 q 323 534 326 589 q 314 431 321 479 l 319 431 q 354 491 334 458 q 389 547 373 524 l 542 768 l 810 768 l 574 441 l 823 0 l 548 0 l 402 277 l 326 217 l 326 0 l 81 0 l 81 1055 l 326 1055 z "},"l":{"ha":408,"x_min":81,"x_max":326,"o":"m 326 0 l 81 0 l 81 1055 l 326 1055 l 326 0 z "},"m":{"ha":1242,"x_min":81,"x_max":1164,"o":"m 926 782 q 1104 714 1043 782 q 1164 500 1164 646 l 1164 0 l 919 0 l 919 422 q 900 541 919 505 q 842 578 881 578 q 765 524 786 578 q 745 363 745 470 l 745 0 l 499 0 l 499 422 q 491 510 499 476 q 467 561 483 545 q 425 578 450 578 q 365 552 387 578 q 334 474 343 526 q 326 340 326 421 l 326 0 l 81 0 l 81 768 l 269 768 l 300 673 l 311 673 q 358 731 328 707 q 428 769 387 755 q 519 782 469 782 q 643 753 595 782 q 716 678 690 725 l 728 678 q 809 755 760 728 q 926 782 859 782 z "},"n":{"ha":833,"x_min":81,"x_max":754,"o":"m 514 782 q 689 711 623 782 q 754 500 754 641 l 754 0 l 509 0 l 509 424 q 492 539 509 500 q 429 578 475 578 q 347 522 368 578 q 326 344 326 467 l 326 0 l 81 0 l 81 768 l 269 768 l 299 670 l 311 670 q 361 732 332 707 q 428 769 390 757 q 514 782 467 782 z "},"o":{"ha":801,"x_min":52,"x_max":748,"o":"m 748 386 q 727 228 748 301 q 663 101 706 155 q 553 17 619 47 q 399 -14 488 -14 q 252 16 316 -14 q 143 100 188 46 q 75 227 98 154 q 52 386 52 300 q 91 594 52 505 q 208 732 130 683 q 402 782 286 782 q 582 736 504 782 q 704 602 660 690 q 748 386 748 513 m 300 385 q 310 272 300 317 q 343 202 321 226 q 401 178 365 178 q 459 202 437 178 q 490 272 480 225 q 499 386 499 318 q 490 499 499 454 q 458 567 480 545 q 400 590 437 590 q 323 539 347 590 q 300 385 300 488 z "},"p":{"ha":810,"x_min":81,"x_max":759,"o":"m 509 782 q 692 677 626 782 q 759 384 759 573 q 727 168 759 257 q 638 33 695 79 q 507 -14 582 -14 q 429 -1 463 -14 q 370 34 395 12 q 326 87 345 57 l 318 87 q 323 14 321 48 q 326 -51 326 -20 l 326 -334 l 81 -334 l 81 768 l 279 768 l 314 670 l 326 670 q 374 733 348 709 q 432 770 399 758 q 509 782 465 782 m 421 585 q 366 566 387 585 q 336 507 345 547 q 326 404 326 467 l 326 372 q 335 270 326 311 q 365 210 344 230 q 421 190 386 190 q 470 210 450 190 q 500 274 490 231 q 510 384 510 317 q 487 537 510 489 q 421 585 465 585 z "},"q":{"ha":810,"x_min":52,"x_max":730,"o":"m 485 -334 l 485 -32 q 487 26 485 -7 q 492 98 489 58 l 485 98 q 411 16 456 45 q 300 -14 366 -14 q 119 90 187 -14 q 52 380 52 193 q 83 598 52 509 q 171 735 114 688 q 306 782 229 782 q 416 754 373 782 q 490 673 459 727 l 499 673 l 518 768 l 730 768 l 730 -334 l 485 -334 m 395 186 q 454 204 432 186 q 485 260 475 222 q 495 355 495 298 l 495 392 q 473 535 495 488 q 393 583 451 583 q 323 531 347 583 q 300 377 300 480 q 324 232 300 278 q 395 186 348 186 z "},"r":{"ha":587,"x_min":81,"x_max":573,"o":"m 501 782 q 538 780 519 782 q 573 774 557 778 l 552 528 q 520 534 539 532 q 473 536 502 536 q 417 529 444 536 q 370 504 391 522 q 338 457 350 487 q 326 382 326 427 l 326 0 l 81 0 l 81 768 l 266 768 l 303 646 l 315 646 q 360 711 332 680 q 424 762 388 743 q 501 782 460 782 z "},"s":{"ha":634,"x_min":47,"x_max":590,"o":"m 590 236 q 558 102 590 158 q 461 16 526 46 q 296 -14 396 -14 q 168 -4 227 -14 q 48 29 108 5 l 48 241 q 168 196 105 212 q 279 179 231 179 q 335 189 317 179 q 353 221 353 199 q 342 248 353 236 q 302 276 332 260 q 214 319 273 292 q 121 377 158 344 q 65 453 84 410 q 47 555 47 497 q 123 724 47 665 q 330 782 199 782 q 458 765 398 782 q 581 717 518 749 l 517 546 q 424 587 472 570 q 338 603 375 603 q 296 594 310 603 q 281 569 281 586 q 291 546 281 556 q 328 520 300 535 q 412 478 356 505 q 509 419 469 452 q 569 343 549 387 q 590 236 590 300 z "},"t":{"ha":566,"x_min":23,"x_max":532,"o":"m 418 189 q 474 196 447 189 q 532 215 501 203 l 532 29 q 446 -2 491 9 q 340 -14 401 -14 q 213 13 265 -14 q 135 97 161 39 q 109 253 109 156 l 109 576 l 23 576 l 23 690 l 131 761 l 191 922 l 355 922 l 355 768 l 521 768 l 521 576 l 355 576 l 355 263 q 371 207 355 226 q 418 189 387 189 z "},"u":{"ha":833,"x_min":79,"x_max":752,"o":"m 752 768 l 752 0 l 565 0 l 535 95 l 522 95 q 470 34 500 58 q 402 -2 440 9 q 319 -14 364 -14 q 194 18 248 -14 q 110 112 140 49 q 79 268 79 174 l 79 768 l 324 768 l 324 345 q 341 230 324 269 q 400 191 359 191 q 468 217 446 191 q 499 293 491 243 q 507 410 507 342 l 507 768 l 752 768 z "},"v":{"ha":766,"x_min":1,"x_max":764,"o":"m 257 0 l 1 768 l 256 768 l 361 355 q 371 300 366 332 q 378 236 377 269 l 383 236 q 389 296 384 266 q 400 353 394 326 l 509 768 l 764 768 l 509 0 l 257 0 z "},"w":{"ha":1143,"x_min":12,"x_max":1131,"o":"m 675 0 l 606 338 q 596 394 602 363 q 587 455 591 425 q 578 514 582 486 q 572 562 575 542 l 568 562 q 561 512 565 541 q 552 451 557 483 q 542 389 547 420 q 532 334 536 359 l 463 0 l 197 0 l 12 768 l 255 768 l 306 500 q 319 420 313 465 q 330 329 326 375 q 337 241 335 282 l 342 241 q 348 301 344 269 q 356 367 351 334 q 367 431 361 401 q 377 486 372 462 l 435 768 l 711 768 l 766 481 q 780 400 772 444 q 792 315 787 357 q 801 241 798 273 l 806 241 q 813 328 808 281 q 825 420 818 374 q 838 500 831 465 l 893 768 l 1131 768 l 945 0 l 675 0 z "},"x":{"ha":768,"x_min":7,"x_max":761,"o":"m 220 392 l 16 768 l 288 768 l 384 560 l 479 768 l 752 768 l 547 392 l 761 0 l 488 0 l 381 225 l 277 0 l 7 0 l 220 392 z "},"y":{"ha":765,"x_min":1,"x_max":763,"o":"m 1 768 l 258 768 l 364 381 q 372 346 368 365 q 378 309 376 327 q 382 275 381 291 l 387 275 q 395 326 390 300 q 407 379 399 351 l 511 768 l 763 768 l 495 -49 q 420 -211 463 -148 q 318 -304 378 -274 q 173 -334 258 -334 q 116 -330 141 -334 q 70 -322 91 -326 l 70 -119 q 102 -125 84 -123 q 139 -127 121 -127 q 197 -114 175 -127 q 234 -73 219 -101 q 264 1 250 -44 l 268 11 l 1 768 z "},"z":{"ha":628,"x_min":28,"x_max":599,"o":"m 599 0 l 28 0 l 28 144 l 309 573 l 44 573 l 44 768 l 586 768 l 586 612 l 317 195 l 599 195 l 599 0 z "},"{":{"ha":556,"x_min":30,"x_max":519,"o":"m 519 -233 q 315 -212 388 -233 q 212 -139 241 -191 q 183 0 183 -88 l 183 174 q 163 239 183 214 q 109 277 144 264 q 30 290 75 290 l 30 481 q 111 494 76 481 q 164 532 145 507 q 183 597 183 557 l 183 775 q 210 908 183 858 q 309 982 237 959 q 519 1006 382 1006 l 519 822 q 461 817 488 821 q 416 798 433 812 q 399 749 399 783 l 399 561 q 363 441 399 481 q 256 390 328 401 l 256 382 q 364 331 329 370 q 399 215 399 292 l 399 24 q 415 -21 399 -6 q 457 -42 430 -37 q 519 -50 484 -48 l 519 -233 z "},"|":{"ha":644,"x_min":228,"x_max":416,"o":"m 228 1063 l 416 1063 l 416 -310 l 228 -310 l 228 1063 z "},"}":{"ha":556,"x_min":37,"x_max":526,"o":"m 37 -233 l 37 -50 q 98 -42 71 -47 q 141 -22 125 -37 q 157 24 157 -7 l 157 215 q 192 331 157 292 q 300 382 227 370 l 300 390 q 192 441 228 401 q 157 561 157 481 l 157 749 q 139 798 157 783 q 93 817 121 813 q 37 822 65 821 l 37 1006 q 242 984 170 1006 q 343 911 315 962 q 372 775 372 861 l 372 597 q 391 532 372 557 q 446 494 411 507 q 526 481 480 481 l 526 290 q 447 277 481 290 q 392 239 412 264 q 372 174 372 214 l 372 0 q 345 -135 372 -84 q 246 -210 319 -186 q 37 -233 174 -233 z "},"~":{"ha":754,"x_min":51,"x_max":703,"o":"m 352 401 q 270 430 307 422 q 201 439 233 439 q 126 417 164 439 q 51 357 87 395 l 51 547 q 127 602 85 584 q 221 621 169 621 q 306 611 264 621 q 401 578 347 601 q 485 549 447 557 q 554 541 522 541 q 628 563 589 541 q 703 623 668 586 l 703 432 q 627 377 669 395 q 533 358 585 358 q 450 368 491 358 q 352 401 408 378 z "}," ":{"ha":302,"x_min":0,"x_max":0,"o":""},"¡":{"ha":390,"x_min":57,"x_max":334,"o":"m 91 415 l 300 415 l 334 -238 l 57 -238 l 91 415 m 332 653 q 294 554 332 586 q 196 522 256 522 q 100 554 137 522 q 63 653 63 586 q 100 750 63 718 q 196 782 138 782 q 294 750 255 782 q 332 653 332 718 z "},"¢":{"ha":751,"x_min":81,"x_max":671,"o":"m 479 1006 l 479 901 q 579 883 529 897 q 671 844 629 868 l 603 657 q 525 691 563 679 q 450 703 486 703 q 386 683 413 703 q 344 618 359 663 q 330 502 330 574 q 343 389 330 431 q 384 327 357 346 q 448 309 410 309 q 550 327 498 309 q 648 376 603 345 l 648 175 q 571 134 614 151 q 479 111 528 117 l 479 -14 l 349 -14 l 349 113 q 201 172 261 124 q 112 303 142 220 q 81 501 81 386 q 113 697 81 614 q 205 831 145 781 q 349 895 264 882 l 349 1006 l 479 1006 z "},"£":{"ha":751,"x_min":65,"x_max":715,"o":"m 451 1006 q 577 992 515 1006 q 694 951 639 977 l 628 760 q 544 788 583 779 q 477 798 506 798 q 428 777 446 798 q 410 704 410 756 l 410 612 l 615 612 l 615 433 l 410 433 l 410 366 q 396 298 410 327 q 360 248 382 269 q 310 212 338 227 l 715 212 l 715 0 l 66 0 l 66 203 q 122 244 100 225 q 154 292 144 264 q 165 365 165 319 l 165 433 l 65 433 l 65 612 l 165 612 l 165 707 q 200 875 165 809 q 299 974 235 941 q 451 1006 363 1006 z "},"¤":{"ha":770,"x_min":59,"x_max":708,"o":"m 113 490 q 122 556 113 524 q 146 618 130 588 l 59 702 l 171 814 l 256 728 q 317 752 285 745 q 382 760 350 760 q 448 752 416 760 q 509 726 479 744 l 594 814 l 708 706 l 621 619 q 644 558 636 591 q 652 490 652 526 q 644 423 652 454 q 621 362 636 391 l 705 279 l 594 169 l 509 252 q 448 230 481 238 q 382 222 416 222 q 314 229 347 222 q 254 252 282 237 l 171 170 l 60 281 l 146 364 q 121 425 130 393 q 113 490 113 456 m 272 490 q 287 435 272 460 q 327 395 302 410 q 382 380 352 380 q 439 395 414 380 q 481 435 465 410 q 496 490 496 460 q 481 547 496 522 q 439 587 465 572 q 382 602 414 602 q 327 587 352 602 q 287 547 302 572 q 272 490 272 522 z "},"¥":{"ha":751,"x_min":3,"x_max":748,"o":"m 376 651 l 490 991 l 748 991 l 528 509 l 662 509 l 662 366 l 494 366 l 494 286 l 662 286 l 662 144 l 494 144 l 494 0 l 257 0 l 257 144 l 87 144 l 87 286 l 257 286 l 257 366 l 87 366 l 87 509 l 219 509 l 3 991 l 260 991 l 376 651 z "},"¦":{"ha":644,"x_min":228,"x_max":416,"o":"m 228 1054 l 416 1054 l 416 494 l 228 494 l 228 1054 m 228 249 l 416 249 l 416 -311 l 228 -311 l 228 249 z "},"§":{"ha":650,"x_min":62,"x_max":590,"o":"m 62 538 q 93 630 62 589 q 168 699 124 671 q 100 773 123 732 q 77 865 77 814 q 147 1009 77 954 q 338 1063 217 1063 q 462 1048 402 1063 q 575 1005 522 1032 l 514 853 q 425 896 471 879 q 342 912 379 912 q 291 900 308 912 q 273 863 273 888 q 284 831 273 846 q 319 801 295 817 q 382 768 343 786 q 502 703 456 736 q 569 630 547 669 q 590 543 590 591 q 564 438 590 478 q 495 365 537 397 q 554 294 533 335 q 575 200 575 252 q 503 41 575 103 q 295 -21 431 -21 q 174 -6 230 -21 q 70 38 117 9 l 70 205 q 145 169 104 186 q 225 142 186 152 q 292 132 264 132 q 359 148 339 132 q 380 193 380 164 q 372 226 380 212 q 342 255 365 240 q 273 292 319 270 q 157 358 204 325 q 86 434 111 391 q 62 538 62 476 m 250 562 q 259 522 250 540 q 292 487 269 504 q 350 449 314 469 l 377 433 q 396 464 389 446 q 404 505 404 481 q 392 552 404 530 q 356 593 381 573 q 286 631 330 612 q 260 604 270 622 q 250 562 250 587 z "},"¨":{"ha":738,"x_min":118,"x_max":632,"o":"m 118 958 q 148 1039 118 1012 q 225 1065 178 1065 q 303 1038 272 1065 q 334 958 334 1010 q 303 880 334 908 q 225 852 272 852 q 148 880 178 852 q 118 958 118 907 m 414 958 q 445 1039 414 1012 q 523 1065 475 1065 q 602 1038 571 1065 q 632 958 632 1010 q 602 880 632 908 q 523 852 571 852 q 445 880 475 852 q 414 958 414 907 z "},"©":{"ha":1145,"x_min":62,"x_max":1082,"o":"m 573 -14 q 365 25 459 -14 q 203 134 271 64 q 99 296 136 203 q 62 497 62 389 q 100 702 62 609 q 207 863 138 795 q 369 968 276 931 q 572 1006 462 1006 q 776 968 683 1006 q 938 862 869 930 q 1044 699 1006 793 q 1082 494 1082 606 q 1045 291 1082 383 q 940 130 1008 198 q 779 24 871 62 q 573 -14 686 -14 m 575 178 q 351 263 429 178 q 274 498 274 349 q 308 666 274 595 q 407 774 341 736 q 568 812 473 812 q 682 799 628 812 q 786 760 735 785 l 724 628 q 653 656 688 647 q 583 665 618 665 q 489 623 523 665 q 456 492 456 580 q 488 365 456 406 q 587 325 519 325 q 674 336 630 325 q 760 371 719 348 l 760 221 q 672 189 717 199 q 575 178 627 178 m 574 93 q 731 123 661 93 q 854 208 802 153 q 933 336 905 262 q 961 496 961 410 q 932 660 961 586 q 851 787 903 734 q 727 869 798 840 q 571 899 656 899 q 413 868 484 899 q 290 784 341 838 q 210 656 238 730 q 182 494 182 582 q 211 331 182 405 q 293 204 240 258 q 417 122 346 151 q 574 93 489 93 z "},"ª":{"ha":518,"x_min":31,"x_max":465,"o":"m 277 1003 q 414 953 363 1003 q 465 807 465 903 l 465 503 l 355 503 l 327 585 q 268 518 303 543 q 176 494 233 494 q 99 515 132 494 q 48 572 66 536 q 31 656 31 608 q 58 750 31 716 q 134 798 85 783 q 250 815 183 812 l 302 818 l 302 822 q 288 863 302 850 q 241 876 273 876 q 174 865 205 876 q 106 836 144 854 l 58 949 q 157 989 108 975 q 277 1003 206 1003 m 302 725 l 255 721 q 207 703 220 718 q 194 664 194 687 q 205 630 194 642 q 239 618 217 618 q 286 645 269 618 q 302 710 302 673 l 302 725 z "},"«":{"ha":862,"x_min":41,"x_max":818,"o":"m 41 399 l 280 724 l 456 630 l 294 389 l 456 149 l 280 56 l 41 380 l 41 399 m 401 399 l 640 724 l 818 630 l 655 389 l 818 149 l 640 56 l 401 380 l 401 399 z "},"¬":{"ha":754,"x_min":55,"x_max":695,"o":"m 695 581 l 695 161 l 511 161 l 511 399 l 55 399 l 55 581 l 695 581 z "},"­":{"ha":447,"x_min":35,"x_max":412,"o":"m 35 267 l 35 478 l 412 478 l 412 267 l 35 267 z "},"®":{"ha":1145,"x_min":62,"x_max":1082,"o":"m 349 212 l 349 806 l 546 806 q 743 759 681 806 q 804 623 804 712 q 779 519 804 558 q 709 458 754 481 l 833 212 l 648 212 l 555 429 l 525 429 l 525 212 l 349 212 m 525 549 l 541 549 q 603 563 580 549 q 625 615 625 578 q 605 662 625 650 q 542 673 585 673 l 525 673 l 525 549 m 573 -14 q 365 25 459 -14 q 203 134 271 64 q 99 296 136 203 q 62 497 62 389 q 100 702 62 609 q 207 863 138 795 q 369 968 276 931 q 572 1006 462 1006 q 776 968 683 1006 q 938 862 869 930 q 1044 699 1006 793 q 1082 494 1082 606 q 1045 291 1082 383 q 940 130 1008 198 q 779 24 871 62 q 573 -14 686 -14 m 574 93 q 731 123 661 93 q 854 208 802 153 q 933 336 905 262 q 961 496 961 410 q 932 660 961 586 q 851 787 903 734 q 727 869 798 840 q 571 899 656 899 q 413 868 484 899 q 290 784 341 838 q 210 656 238 730 q 182 494 182 582 q 211 331 182 405 q 293 204 240 258 q 417 122 346 151 q 574 93 489 93 z "},"¯":{"ha":691,"x_min":-3,"x_max":694,"o":"m 694 1055 l -3 1055 l -3 1222 l 694 1222 l 694 1055 z "},"°":{"ha":543,"x_min":35,"x_max":507,"o":"m 271 543 q 150 572 203 543 q 66 653 97 602 q 35 774 35 705 q 66 894 35 842 q 150 976 97 946 q 271 1006 203 1006 q 392 976 339 1006 q 476 894 446 946 q 507 774 507 842 q 476 653 507 705 q 392 572 446 602 q 271 543 339 543 m 271 689 q 334 712 311 689 q 357 774 357 734 q 334 837 357 813 q 271 861 311 861 q 209 837 231 861 q 186 774 186 813 q 209 712 186 734 q 271 689 231 689 z "},"±":{"ha":754,"x_min":55,"x_max":699,"o":"m 55 0 l 55 182 l 699 182 l 699 0 l 55 0 m 469 652 l 699 652 l 699 471 l 469 471 l 469 226 l 285 226 l 285 471 l 55 471 l 55 652 l 285 652 l 285 901 l 469 901 l 469 652 z "},"²":{"ha":519,"x_min":38,"x_max":471,"o":"m 471 578 l 47 578 l 47 718 l 184 863 q 239 927 219 901 q 267 971 258 953 q 275 1006 275 989 q 263 1036 275 1025 q 229 1046 252 1046 q 180 1034 205 1046 q 123 987 155 1021 l 38 1096 q 129 1161 73 1135 q 261 1187 184 1187 q 406 1142 356 1187 q 455 1026 455 1097 q 434 932 455 975 q 372 845 413 889 q 271 744 331 801 l 248 724 l 471 724 l 471 578 z "},"³":{"ha":519,"x_min":40,"x_max":472,"o":"m 252 1185 q 399 1145 345 1185 q 454 1039 454 1106 q 430 949 454 987 q 354 890 406 912 l 354 885 q 442 833 412 868 q 472 739 472 798 q 407 612 472 657 q 235 567 342 567 q 132 578 180 567 q 47 614 85 590 l 47 769 q 132 727 85 740 q 230 713 178 713 q 283 724 264 713 q 302 759 302 735 q 285 799 302 785 q 217 813 268 813 l 151 813 l 151 941 l 201 941 q 270 956 251 941 q 290 996 290 971 q 277 1031 290 1017 q 232 1045 264 1045 q 174 1034 201 1045 q 113 996 146 1023 l 40 1105 q 136 1163 83 1141 q 252 1185 189 1185 z "},"´":{"ha":526,"x_min":56,"x_max":471,"o":"m 471 1064 l 471 1050 q 421 1005 452 1031 q 356 948 391 978 q 288 891 321 919 q 227 842 254 863 l 56 842 l 56 861 q 105 928 79 892 q 156 998 131 963 q 199 1064 181 1034 l 471 1064 z "},"µ":{"ha":834,"x_min":80,"x_max":753,"o":"m 753 768 l 753 0 l 567 0 l 536 100 l 526 100 q 494 37 513 62 q 453 -1 475 12 q 405 -14 430 -14 q 355 0 374 -14 q 321 43 337 14 l 318 43 q 322 -3 320 24 q 324 -59 323 -30 q 325 -117 325 -88 l 325 -334 l 80 -334 l 80 768 l 325 768 l 325 347 q 343 230 325 269 q 404 191 361 191 q 470 221 448 191 q 500 303 492 250 q 508 425 508 355 l 508 768 l 753 768 z "},"¶":{"ha":801,"x_min":57,"x_max":722,"o":"m 722 -176 l 600 -176 l 600 924 l 506 924 l 506 -176 l 382 -176 l 382 379 q 349 370 366 373 q 308 367 332 367 q 172 402 228 367 q 86 512 115 437 q 57 707 57 587 q 89 908 57 831 q 180 1020 120 985 q 327 1055 241 1055 l 722 1055 l 722 -176 z "},"·":{"ha":391,"x_min":60,"x_max":330,"o":"m 60 490 q 98 588 60 557 q 197 620 136 620 q 293 588 256 620 q 330 490 330 557 q 292 392 330 425 q 197 360 255 360 q 99 392 138 360 q 60 490 60 425 z "},"¸":{"ha":300,"x_min":-9,"x_max":308,"o":"m 308 -173 q 260 -290 308 -246 q 125 -334 212 -334 q 50 -328 85 -334 q -9 -315 16 -323 l -9 -187 q 34 -197 14 -193 q 74 -201 54 -201 q 113 -191 99 -201 q 127 -161 127 -180 q 104 -124 127 -138 q 33 -104 80 -111 l 77 0 l 195 0 l 179 -44 q 243 -65 214 -50 q 290 -107 272 -81 q 308 -173 308 -133 z "},"¹":{"ha":519,"x_min":42,"x_max":397,"o":"m 397 1173 l 397 578 l 219 578 l 219 819 q 220 868 219 840 q 222 924 220 896 q 225 970 223 951 q 207 949 218 959 q 189 931 197 939 l 130 882 l 42 991 l 257 1173 l 397 1173 z "},"º":{"ha":510,"x_min":31,"x_max":479,"o":"m 479 749 q 418 562 479 629 q 254 494 358 494 q 93 564 154 494 q 31 749 31 633 q 92 936 31 869 q 256 1003 152 1003 q 370 972 320 1003 q 450 885 420 942 q 479 749 479 829 m 195 749 q 210 659 195 688 q 255 629 224 629 q 299 659 285 629 q 314 749 314 688 q 299 840 314 809 q 255 870 285 870 q 210 840 224 870 q 195 749 195 809 z "},"»":{"ha":862,"x_min":45,"x_max":822,"o":"m 822 380 l 583 56 l 405 149 l 568 389 l 405 630 l 583 724 l 822 399 l 822 380 m 460 380 l 222 56 l 45 149 l 206 389 l 45 630 l 222 724 l 460 399 l 460 380 z "},"¼":{"ha":1206,"x_min":18,"x_max":1192,"o":"m 259 0 l 754 991 l 945 991 l 450 0 l 259 0 m 195 397 l 195 639 q 196 683 195 659 q 197 735 196 708 q 201 789 199 763 q 186 771 195 781 q 166 751 176 761 l 106 701 l 18 811 l 233 991 l 373 991 l 373 397 l 195 397 m 941 0 l 941 94 l 705 94 l 705 219 l 924 597 l 1114 597 l 1114 227 l 1192 227 l 1192 94 l 1114 94 l 1114 0 l 941 0 m 840 227 l 941 227 l 941 341 q 942 388 941 365 q 945 433 943 411 q 922 376 932 398 q 905 342 912 354 l 840 227 z "},"½":{"ha":1234,"x_min":18,"x_max":1185,"o":"m 256 0 l 751 991 l 941 991 l 446 0 l 256 0 m 195 397 l 195 639 q 196 672 195 652 q 197 715 196 692 q 199 758 198 738 q 201 789 200 778 q 185 770 195 781 q 164 750 174 759 l 106 701 l 18 811 l 233 991 l 373 991 l 373 397 l 195 397 m 762 0 l 762 140 l 898 282 q 955 345 935 319 q 983 389 975 370 q 991 425 991 408 q 979 457 991 446 q 944 469 966 469 q 891 454 918 469 q 838 409 865 439 l 753 518 q 848 586 792 562 q 976 610 904 610 q 1119 565 1069 610 q 1169 449 1169 521 q 1156 371 1169 406 q 1122 308 1143 336 q 1077 255 1101 280 l 963 146 l 1185 146 l 1185 0 l 762 0 z "},"¾":{"ha":1231,"x_min":47,"x_max":1217,"o":"m 292 0 l 788 991 l 978 991 l 483 0 l 292 0 m 242 386 q 139 398 186 386 q 54 433 92 410 l 54 588 q 135 547 90 561 q 237 533 181 533 q 291 544 273 533 q 309 578 309 555 q 288 621 309 608 q 224 633 268 633 l 158 633 l 158 760 l 208 760 q 275 774 254 760 q 296 815 296 787 q 284 850 296 836 q 239 865 271 865 q 180 853 208 865 q 121 814 153 842 l 47 924 q 147 984 94 964 q 258 1004 199 1004 q 406 966 350 1004 q 461 859 461 927 q 437 768 461 805 q 361 710 413 732 l 361 704 q 449 652 419 688 q 479 558 479 616 q 415 431 479 477 q 242 386 351 386 m 964 0 l 964 94 l 729 94 l 729 219 l 948 597 l 1138 597 l 1138 227 l 1217 227 l 1217 94 l 1138 94 l 1138 0 l 964 0 m 865 227 l 964 227 l 964 341 q 966 388 964 365 q 969 433 967 411 q 947 376 957 398 q 930 342 937 354 l 865 227 z "},"¿":{"ha":630,"x_min":22,"x_max":630,"o":"m 456 415 l 456 357 q 446 280 456 314 q 412 215 435 245 q 347 155 388 185 q 291 107 310 127 q 264 69 271 87 q 257 28 257 50 q 279 -20 257 -3 q 343 -37 302 -37 q 438 -18 387 -37 q 547 36 489 1 l 630 -144 q 483 -215 559 -190 q 322 -241 406 -241 q 100 -173 178 -241 q 22 7 22 -105 q 38 107 22 64 q 86 189 54 151 q 168 262 118 227 q 224 310 205 292 q 250 343 243 328 q 257 380 257 359 l 257 415 l 456 415 m 487 652 q 449 554 487 585 q 351 522 412 522 q 255 554 292 522 q 218 652 218 585 q 255 750 218 718 q 351 782 292 782 q 449 750 410 782 q 487 652 487 718 z "},"À":{"ha":903,"x_min":0,"x_max":903,"o":"m 630 0 l 587 190 l 319 190 l 275 0 l 0 0 l 283 994 l 617 994 l 903 0 l 630 0 m 541 401 l 500 593 q 484 667 493 625 q 466 752 474 709 q 452 825 457 794 q 440 754 448 795 q 423 671 432 713 q 406 595 414 629 l 364 401 l 541 401 m 464 1288 q 508 1220 481 1259 q 562 1145 535 1181 q 606 1085 589 1108 l 606 1065 l 436 1065 q 380 1110 413 1082 q 310 1168 347 1137 q 242 1227 274 1199 q 191 1274 211 1256 l 191 1288 l 464 1288 z "},"Á":{"ha":903,"x_min":0,"x_max":903,"o":"m 630 0 l 587 190 l 319 190 l 275 0 l 0 0 l 283 994 l 617 994 l 903 0 l 630 0 m 541 401 l 500 593 q 484 667 493 625 q 466 752 474 709 q 452 825 457 794 q 440 754 448 795 q 423 671 432 713 q 406 595 414 629 l 364 401 l 541 401 m 740 1288 l 740 1274 q 690 1229 721 1255 q 625 1172 660 1202 q 557 1115 591 1143 q 496 1065 523 1086 l 325 1065 l 325 1085 q 374 1152 348 1116 q 425 1222 400 1187 q 469 1288 450 1257 l 740 1288 z "},"Â":{"ha":903,"x_min":0,"x_max":903,"o":"m 630 0 l 587 190 l 319 190 l 275 0 l 0 0 l 283 994 l 617 994 l 903 0 l 630 0 m 541 401 l 500 593 q 484 667 493 625 q 466 752 474 709 q 452 825 457 794 q 440 754 448 795 q 423 671 432 713 q 406 595 414 629 l 364 401 l 541 401 m 572 1288 q 617 1221 591 1257 q 671 1151 643 1185 q 725 1085 699 1116 l 725 1065 l 570 1065 q 513 1109 541 1084 q 454 1167 486 1135 q 394 1109 420 1134 q 340 1065 368 1084 l 182 1065 l 182 1085 q 235 1146 205 1109 q 293 1222 265 1183 q 337 1288 321 1260 l 572 1288 z "},"Ã":{"ha":903,"x_min":0,"x_max":903,"o":"m 630 0 l 587 190 l 319 190 l 275 0 l 0 0 l 283 994 l 617 994 l 903 0 l 630 0 m 541 401 l 500 593 q 484 667 493 625 q 466 752 474 709 q 452 825 457 794 q 440 754 448 795 q 423 671 432 713 q 406 595 414 629 l 364 401 l 541 401 m 188 1063 q 198 1153 190 1111 q 224 1227 207 1195 q 268 1277 241 1259 q 335 1295 296 1295 q 391 1285 363 1295 q 446 1262 418 1275 q 499 1239 473 1249 q 550 1230 525 1230 q 576 1244 565 1230 q 594 1296 588 1259 l 715 1296 q 669 1121 710 1177 q 568 1064 628 1064 q 510 1074 539 1064 q 452 1097 480 1084 q 399 1119 424 1109 q 352 1129 374 1129 q 327 1117 340 1129 q 307 1063 313 1104 l 188 1063 z "},"Ä":{"ha":903,"x_min":0,"x_max":903,"o":"m 630 0 l 587 190 l 319 190 l 275 0 l 0 0 l 283 994 l 617 994 l 903 0 l 630 0 m 541 401 l 500 593 q 484 667 493 625 q 466 752 474 709 q 452 825 457 794 q 440 754 448 795 q 423 671 432 713 q 406 595 414 629 l 364 401 l 541 401 m 195 1182 q 225 1262 195 1236 q 302 1289 256 1289 q 380 1262 349 1289 q 412 1182 412 1234 q 380 1104 412 1132 q 302 1076 349 1076 q 225 1103 256 1076 q 195 1182 195 1131 m 492 1182 q 522 1262 492 1236 q 600 1289 553 1289 q 679 1262 648 1289 q 709 1182 709 1234 q 679 1104 709 1132 q 600 1076 648 1076 q 522 1104 552 1076 q 492 1182 492 1131 z "},"Å":{"ha":903,"x_min":0,"x_max":903,"o":"m 630 0 l 587 190 l 319 190 l 275 0 l 0 0 l 283 994 l 617 994 l 903 0 l 630 0 m 541 401 l 500 593 q 484 667 493 625 q 466 752 474 709 q 452 825 457 794 q 440 754 448 795 q 423 671 432 713 q 406 595 414 629 l 364 401 l 541 401 m 450 882 q 323 929 372 882 q 275 1053 275 976 q 323 1178 275 1131 q 450 1225 372 1225 q 578 1177 527 1225 q 629 1054 629 1130 q 578 930 629 978 q 450 882 528 882 m 450 996 q 491 1012 474 996 q 507 1053 507 1028 q 491 1095 507 1079 q 450 1110 474 1110 q 410 1095 427 1110 q 393 1053 393 1079 q 408 1012 393 1028 q 450 996 422 996 z "},"Æ":{"ha":1172,"x_min":-7,"x_max":1111,"o":"m 1111 0 l 578 0 l 578 190 l 334 190 l 273 0 l -7 0 l 359 991 l 1111 991 l 1111 784 l 829 784 l 829 616 l 1089 616 l 1089 409 l 829 409 l 829 211 l 1111 211 l 1111 0 m 401 402 l 578 402 l 578 779 l 523 779 l 401 402 z "},"Ç":{"ha":803,"x_min":62,"x_max":765,"o":"m 496 795 q 424 774 456 795 q 369 714 391 753 q 335 619 347 675 q 323 492 323 563 q 343 329 323 395 q 406 231 364 264 q 510 198 447 198 q 620 216 567 198 q 726 260 673 235 l 726 41 q 608 0 670 13 q 476 -14 546 -14 q 244 48 336 -14 q 107 223 153 109 q 62 493 62 336 q 91 701 62 607 q 174 863 119 795 q 308 968 229 931 q 488 1006 387 1006 q 627 989 557 1006 q 765 936 697 972 l 692 734 q 598 778 646 760 q 496 795 550 795 m 614 -173 q 566 -290 614 -246 q 432 -334 518 -334 q 357 -328 391 -334 q 297 -315 322 -323 l 297 -187 q 340 -197 320 -193 q 380 -201 361 -201 q 420 -191 406 -201 q 434 -161 434 -180 q 410 -124 434 -138 q 339 -104 387 -111 l 383 0 l 502 0 l 486 -44 q 549 -65 520 -50 q 596 -107 578 -81 q 614 -173 614 -133 z "},"È":{"ha":689,"x_min":95,"x_max":628,"o":"m 628 0 l 95 0 l 95 991 l 628 991 l 628 784 l 347 784 l 347 616 l 607 616 l 607 409 l 347 409 l 347 211 l 628 211 l 628 0 m 372 1288 q 416 1220 389 1259 q 470 1145 443 1181 q 514 1085 497 1108 l 514 1065 l 344 1065 q 288 1110 321 1082 q 218 1168 254 1137 q 150 1227 182 1199 q 99 1274 119 1256 l 99 1288 l 372 1288 z "},"É":{"ha":689,"x_min":95,"x_max":647,"o":"m 628 0 l 95 0 l 95 991 l 628 991 l 628 784 l 347 784 l 347 616 l 607 616 l 607 409 l 347 409 l 347 211 l 628 211 l 628 0 m 647 1288 l 647 1274 q 597 1229 628 1255 q 532 1172 567 1202 q 464 1115 498 1143 q 403 1065 430 1086 l 232 1065 l 232 1085 q 281 1152 255 1116 q 332 1222 307 1187 q 376 1288 357 1257 l 647 1288 z "},"Ê":{"ha":689,"x_min":90,"x_max":632,"o":"m 628 0 l 95 0 l 95 991 l 628 991 l 628 784 l 347 784 l 347 616 l 607 616 l 607 409 l 347 409 l 347 211 l 628 211 l 628 0 m 479 1288 q 524 1221 498 1257 q 578 1151 550 1185 q 632 1085 606 1116 l 632 1065 l 477 1065 q 420 1109 448 1084 q 361 1167 393 1135 q 301 1109 328 1134 q 248 1065 275 1084 l 90 1065 l 90 1085 q 142 1146 113 1109 q 200 1222 172 1183 q 244 1288 228 1260 l 479 1288 z "},"Ë":{"ha":689,"x_min":95,"x_max":628,"o":"m 628 0 l 95 0 l 95 991 l 628 991 l 628 784 l 347 784 l 347 616 l 607 616 l 607 409 l 347 409 l 347 211 l 628 211 l 628 0 m 103 1182 q 133 1262 103 1236 q 210 1289 163 1289 q 288 1262 257 1289 q 319 1182 319 1234 q 288 1104 319 1132 q 210 1076 257 1076 q 133 1103 163 1076 q 103 1182 103 1131 m 399 1182 q 430 1262 399 1236 q 508 1289 460 1289 q 587 1262 556 1289 q 617 1182 617 1234 q 587 1104 617 1132 q 508 1076 556 1076 q 430 1104 460 1076 q 399 1182 399 1131 z "},"Ì":{"ha":442,"x_min":-56,"x_max":359,"o":"m 95 0 l 95 991 l 347 991 l 347 0 l 95 0 m 216 1288 q 261 1220 234 1259 q 315 1145 288 1181 q 359 1085 342 1108 l 359 1065 l 189 1065 q 132 1110 165 1082 q 63 1168 99 1137 q -5 1227 26 1199 q -56 1274 -37 1256 l -56 1288 l 216 1288 z "},"Í":{"ha":442,"x_min":83,"x_max":498,"o":"m 95 0 l 95 991 l 347 991 l 347 0 l 95 0 m 498 1288 l 498 1274 q 448 1229 479 1255 q 383 1172 418 1202 q 315 1115 349 1143 q 254 1065 281 1086 l 83 1065 l 83 1085 q 132 1152 106 1116 q 183 1222 158 1187 q 227 1288 208 1257 l 498 1288 z "},"Î":{"ha":442,"x_min":-50,"x_max":492,"o":"m 95 0 l 95 991 l 347 991 l 347 0 l 95 0 m 340 1288 q 385 1221 359 1257 q 439 1151 411 1185 q 493 1085 467 1116 l 493 1065 l 338 1065 q 281 1109 309 1084 q 222 1167 254 1135 q 162 1109 189 1134 q 109 1065 136 1084 l -50 1065 l -50 1085 q 3 1146 -26 1109 q 61 1222 33 1183 q 105 1288 89 1260 l 340 1288 z "},"Ï":{"ha":442,"x_min":-36,"x_max":478,"o":"m 95 0 l 95 991 l 347 991 l 347 0 l 95 0 m -36 1182 q -6 1262 -36 1236 q 71 1289 24 1289 q 149 1262 118 1289 q 180 1182 180 1234 q 149 1104 180 1132 q 71 1076 118 1076 q -6 1103 24 1076 q -36 1182 -36 1131 m 260 1182 q 291 1262 260 1236 q 369 1289 321 1289 q 448 1262 417 1289 q 478 1182 478 1234 q 448 1104 478 1132 q 369 1076 417 1076 q 291 1104 321 1076 q 260 1182 260 1131 z "},"Ð":{"ha":918,"x_min":11,"x_max":855,"o":"m 402 991 q 648 937 547 991 q 802 776 749 882 q 855 517 855 670 q 798 233 855 348 q 635 59 741 118 q 383 0 530 0 l 95 0 l 95 405 l 11 405 l 11 600 l 95 600 l 95 991 l 402 991 m 401 781 l 347 781 l 347 600 l 465 600 l 465 405 l 347 405 l 347 213 l 386 213 q 544 285 494 213 q 594 507 594 357 q 573 663 594 603 q 509 752 551 724 q 401 781 466 781 z "},"Ñ":{"ha":1035,"x_min":95,"x_max":941,"o":"m 941 0 l 627 0 l 317 658 l 311 658 q 317 569 315 614 q 321 481 320 524 q 323 406 323 439 l 323 0 l 95 0 l 95 991 l 406 991 l 715 347 l 720 347 q 715 432 718 389 q 712 516 713 475 q 711 588 711 556 l 711 991 l 941 991 l 941 0 m 253 1063 q 263 1153 255 1111 q 289 1227 272 1195 q 333 1277 306 1259 q 400 1295 361 1295 q 456 1285 428 1295 q 511 1262 484 1275 q 564 1239 538 1249 q 615 1230 590 1230 q 642 1244 630 1230 q 659 1296 653 1259 l 780 1296 q 734 1121 775 1177 q 633 1064 693 1064 q 575 1074 604 1064 q 517 1097 545 1084 q 464 1119 489 1109 q 417 1129 439 1129 q 392 1117 405 1129 q 372 1063 378 1104 l 253 1063 z "},"Ò":{"ha":985,"x_min":62,"x_max":922,"o":"m 922 497 q 896 283 922 378 q 817 122 870 189 q 683 21 764 56 q 492 -14 602 -14 q 303 21 385 -14 q 169 122 222 56 q 89 283 115 189 q 62 498 62 378 q 110 772 62 659 q 253 947 157 886 q 493 1007 349 1007 q 734 947 640 1007 q 876 772 829 886 q 922 497 922 659 m 326 497 q 344 336 326 402 q 398 236 361 270 q 492 201 435 201 q 588 235 552 201 q 641 335 625 269 q 658 497 658 401 q 619 720 658 643 q 493 796 581 796 q 398 761 435 796 q 344 660 361 726 q 326 497 326 593 m 505 1288 q 549 1220 522 1259 q 603 1145 576 1181 q 647 1085 630 1108 l 647 1065 l 477 1065 q 420 1110 454 1082 q 351 1168 387 1137 q 283 1227 315 1199 q 232 1274 252 1256 l 232 1288 l 505 1288 z "},"Ó":{"ha":985,"x_min":62,"x_max":922,"o":"m 922 497 q 896 283 922 378 q 817 122 870 189 q 683 21 764 56 q 492 -14 602 -14 q 303 21 385 -14 q 169 122 222 56 q 89 283 115 189 q 62 498 62 378 q 110 772 62 659 q 253 947 157 886 q 493 1007 349 1007 q 734 947 640 1007 q 876 772 829 886 q 922 497 922 659 m 326 497 q 344 336 326 402 q 398 236 361 270 q 492 201 435 201 q 588 235 552 201 q 641 335 625 269 q 658 497 658 401 q 619 720 658 643 q 493 796 581 796 q 398 761 435 796 q 344 660 361 726 q 326 497 326 593 m 781 1288 l 781 1274 q 731 1229 762 1255 q 666 1172 701 1202 q 597 1115 631 1143 q 536 1065 564 1086 l 366 1065 l 366 1085 q 415 1152 389 1116 q 466 1222 441 1187 q 509 1288 491 1257 l 781 1288 z "},"Ô":{"ha":985,"x_min":62,"x_max":922,"o":"m 922 497 q 896 283 922 378 q 817 122 870 189 q 683 21 764 56 q 492 -14 602 -14 q 303 21 385 -14 q 169 122 222 56 q 89 283 115 189 q 62 498 62 378 q 110 772 62 659 q 253 947 157 886 q 493 1007 349 1007 q 734 947 640 1007 q 876 772 829 886 q 922 497 922 659 m 326 497 q 344 336 326 402 q 398 236 361 270 q 492 201 435 201 q 588 235 552 201 q 641 335 625 269 q 658 497 658 401 q 619 720 658 643 q 493 796 581 796 q 398 761 435 796 q 344 660 361 726 q 326 497 326 593 m 613 1288 q 658 1221 632 1257 q 712 1151 684 1185 q 766 1085 740 1116 l 766 1065 l 610 1065 q 554 1109 582 1084 q 494 1167 526 1135 q 435 1109 461 1134 q 381 1065 408 1084 l 223 1065 l 223 1085 q 276 1146 246 1109 q 334 1222 306 1183 q 378 1288 361 1260 l 613 1288 z "},"Õ":{"ha":985,"x_min":62,"x_max":922,"o":"m 922 497 q 896 283 922 378 q 817 122 870 189 q 683 21 764 56 q 492 -14 602 -14 q 303 21 385 -14 q 169 122 222 56 q 89 283 115 189 q 62 498 62 378 q 110 772 62 659 q 253 947 157 886 q 493 1007 349 1007 q 734 947 640 1007 q 876 772 829 886 q 922 497 922 659 m 326 497 q 344 336 326 402 q 398 236 361 270 q 492 201 435 201 q 588 235 552 201 q 641 335 625 269 q 658 497 658 401 q 619 720 658 643 q 493 796 581 796 q 398 761 435 796 q 344 660 361 726 q 326 497 326 593 m 229 1063 q 239 1153 231 1111 q 264 1227 248 1195 q 309 1277 281 1259 q 376 1295 336 1295 q 431 1285 404 1295 q 486 1262 459 1275 q 539 1239 513 1249 q 591 1230 566 1230 q 617 1244 606 1230 q 635 1296 629 1259 l 755 1296 q 710 1121 751 1177 q 608 1064 669 1064 q 550 1074 580 1064 q 493 1097 521 1084 q 439 1119 465 1109 q 393 1129 414 1129 q 367 1117 380 1129 q 348 1063 354 1104 l 229 1063 z "},"Ö":{"ha":985,"x_min":62,"x_max":922,"o":"m 922 497 q 896 283 922 378 q 817 122 870 189 q 683 21 764 56 q 492 -14 602 -14 q 303 21 385 -14 q 169 122 222 56 q 89 283 115 189 q 62 498 62 378 q 110 772 62 659 q 253 947 157 886 q 493 1007 349 1007 q 734 947 640 1007 q 876 772 829 886 q 922 497 922 659 m 326 497 q 344 336 326 402 q 398 236 361 270 q 492 201 435 201 q 588 235 552 201 q 641 335 625 269 q 658 497 658 401 q 619 720 658 643 q 493 796 581 796 q 398 761 435 796 q 344 660 361 726 q 326 497 326 593 m 236 1182 q 266 1262 236 1236 q 343 1289 296 1289 q 421 1262 390 1289 q 452 1182 452 1234 q 421 1104 452 1132 q 343 1076 390 1076 q 266 1103 296 1076 q 236 1182 236 1131 m 532 1182 q 563 1262 532 1236 q 641 1289 593 1289 q 720 1262 689 1289 q 750 1182 750 1234 q 720 1104 750 1132 q 641 1076 689 1076 q 563 1104 593 1076 q 532 1182 532 1131 z "},"×":{"ha":754,"x_min":74,"x_max":681,"o":"m 553 793 l 681 669 l 501 490 l 678 313 l 553 188 l 374 364 l 197 189 l 75 315 l 248 490 l 74 665 l 197 793 l 374 619 l 553 793 z "},"Ø":{"ha":985,"x_min":62,"x_max":922,"o":"m 922 497 q 896 283 922 378 q 817 122 870 189 q 683 21 764 56 q 492 -14 602 -14 q 393 -6 439 -14 q 307 18 347 2 l 256 -74 l 136 -5 l 193 94 q 93 270 123 170 q 62 498 62 371 q 110 772 62 659 q 253 947 157 886 q 493 1007 349 1007 q 600 998 550 1007 q 690 970 649 989 l 735 1050 l 854 986 l 801 891 q 892 726 863 826 q 922 497 922 626 m 661 497 q 659 571 661 537 q 651 635 656 606 l 415 217 q 451 202 431 207 q 492 197 471 197 q 590 232 553 197 q 644 334 627 267 q 661 497 661 401 m 323 497 q 326 414 323 452 q 338 342 330 375 l 578 770 q 539 791 561 784 q 493 799 517 799 q 396 764 434 799 q 340 661 358 728 q 323 497 323 594 z "},"Ù":{"ha":934,"x_min":90,"x_max":846,"o":"m 846 991 l 846 366 q 803 161 846 246 q 675 31 760 76 q 464 -14 590 -14 q 186 82 283 -14 q 90 359 90 177 l 90 991 l 342 991 l 342 376 q 374 242 342 283 q 467 201 406 201 q 539 219 511 201 q 580 275 567 237 q 593 377 593 314 l 593 991 l 846 991 m 479 1288 q 523 1220 496 1259 q 577 1145 550 1181 q 621 1085 604 1108 l 621 1065 l 451 1065 q 395 1110 428 1082 q 325 1168 361 1137 q 257 1227 289 1199 q 206 1274 226 1256 l 206 1288 l 479 1288 z "},"Ú":{"ha":934,"x_min":90,"x_max":846,"o":"m 846 991 l 846 366 q 803 161 846 246 q 675 31 760 76 q 464 -14 590 -14 q 186 82 283 -14 q 90 359 90 177 l 90 991 l 342 991 l 342 376 q 374 242 342 283 q 467 201 406 201 q 539 219 511 201 q 580 275 567 237 q 593 377 593 314 l 593 991 l 846 991 m 755 1288 l 755 1274 q 705 1229 736 1255 q 640 1172 675 1202 q 572 1115 606 1143 q 511 1065 538 1086 l 340 1065 l 340 1085 q 389 1152 363 1116 q 440 1222 415 1187 q 484 1288 465 1257 l 755 1288 z "},"Û":{"ha":934,"x_min":90,"x_max":846,"o":"m 846 991 l 846 366 q 803 161 846 246 q 675 31 760 76 q 464 -14 590 -14 q 186 82 283 -14 q 90 359 90 177 l 90 991 l 342 991 l 342 376 q 374 242 342 283 q 467 201 406 201 q 539 219 511 201 q 580 275 567 237 q 593 377 593 314 l 593 991 l 846 991 m 587 1288 q 632 1221 606 1257 q 686 1151 658 1185 q 740 1085 714 1116 l 740 1065 l 585 1065 q 528 1109 556 1084 q 469 1167 500 1135 q 409 1109 435 1134 q 355 1065 382 1084 l 197 1065 l 197 1085 q 250 1146 220 1109 q 308 1222 280 1183 q 352 1288 336 1260 l 587 1288 z "},"Ü":{"ha":934,"x_min":90,"x_max":846,"o":"m 846 991 l 846 366 q 803 161 846 246 q 675 31 760 76 q 464 -14 590 -14 q 186 82 283 -14 q 90 359 90 177 l 90 991 l 342 991 l 342 376 q 374 242 342 283 q 467 201 406 201 q 539 219 511 201 q 580 275 567 237 q 593 377 593 314 l 593 991 l 846 991 m 210 1182 q 240 1262 210 1236 q 317 1289 271 1289 q 395 1262 364 1289 q 427 1182 427 1234 q 395 1104 427 1132 q 317 1076 364 1076 q 240 1103 271 1076 q 210 1182 210 1131 m 507 1182 q 537 1262 507 1236 q 615 1289 568 1289 q 694 1262 663 1289 q 724 1182 724 1234 q 694 1104 724 1132 q 615 1076 663 1076 q 537 1104 567 1076 q 507 1182 507 1131 z "},"Ý":{"ha":827,"x_min":0,"x_max":827,"o":"m 414 627 l 560 991 l 827 991 l 540 384 l 540 0 l 287 0 l 287 376 l 0 991 l 269 991 l 414 627 m 701 1288 l 701 1274 q 651 1229 682 1255 q 586 1172 621 1202 q 517 1115 551 1143 q 456 1065 484 1086 l 286 1065 l 286 1085 q 335 1152 309 1116 q 386 1222 361 1187 q 429 1288 411 1257 l 701 1288 z "},"Þ":{"ha":783,"x_min":95,"x_max":748,"o":"m 748 532 q 730 400 748 463 q 671 289 711 337 q 567 212 631 240 q 409 184 502 184 l 347 184 l 347 0 l 95 0 l 95 991 l 347 991 l 347 847 l 412 847 q 664 765 581 847 q 748 532 748 683 m 347 393 l 384 393 q 441 407 415 393 q 481 452 467 421 q 496 530 496 482 q 473 611 496 583 q 401 639 450 639 l 347 639 l 347 393 z "},"ß":{"ha":928,"x_min":81,"x_max":891,"o":"m 811 809 q 795 723 811 759 q 755 661 779 687 q 708 616 732 635 q 668 581 684 597 q 652 548 652 565 q 664 522 652 534 q 699 493 675 509 q 758 453 723 477 q 831 393 802 424 q 876 324 861 363 q 891 231 891 285 q 859 97 891 151 q 764 14 827 42 q 611 -14 702 -14 q 492 -5 544 -14 q 397 26 441 3 l 397 229 q 449 202 420 214 q 509 182 479 189 q 564 174 539 174 q 619 188 599 174 q 639 223 639 201 q 632 253 639 240 q 602 284 625 267 q 531 330 578 302 q 450 393 478 363 q 410 455 421 424 q 399 521 399 487 q 415 592 399 563 q 456 644 431 621 q 505 687 481 667 q 546 731 530 707 q 563 788 563 755 q 535 844 563 820 q 452 867 507 867 q 381 850 410 867 q 339 800 353 833 q 326 718 326 767 l 326 0 l 81 0 l 81 746 q 127 917 81 846 q 258 1025 174 987 q 452 1063 342 1063 q 638 1034 557 1063 q 765 948 719 1004 q 811 809 811 891 z "},"à":{"ha":776,"x_min":43,"x_max":697,"o":"m 418 782 q 623 712 549 782 q 697 504 697 642 l 697 0 l 524 0 l 480 102 l 475 102 q 416 37 447 62 q 346 -1 385 11 q 250 -14 306 -14 q 137 18 184 -14 q 67 105 91 50 q 43 235 43 161 q 118 418 43 358 q 338 485 194 479 l 452 489 l 452 505 q 431 576 452 553 q 369 599 409 599 q 281 584 330 599 q 179 542 233 569 l 112 713 q 250 764 173 747 q 418 782 326 782 m 453 343 l 401 340 q 316 315 342 338 q 290 248 290 292 q 307 189 290 208 q 355 170 324 170 q 425 200 396 170 q 453 279 453 231 l 453 343 m 407 1064 q 451 996 425 1035 q 505 921 478 958 q 549 861 532 884 l 549 842 l 379 842 q 323 886 356 859 q 253 944 290 913 q 185 1004 217 975 q 134 1050 154 1032 l 134 1064 l 407 1064 z "},"á":{"ha":776,"x_min":43,"x_max":697,"o":"m 418 782 q 623 712 549 782 q 697 504 697 642 l 697 0 l 524 0 l 480 102 l 475 102 q 416 37 447 62 q 346 -1 385 11 q 250 -14 306 -14 q 137 18 184 -14 q 67 105 91 50 q 43 235 43 161 q 118 418 43 358 q 338 485 194 479 l 452 489 l 452 505 q 431 576 452 553 q 369 599 409 599 q 281 584 330 599 q 179 542 233 569 l 112 713 q 250 764 173 747 q 418 782 326 782 m 453 343 l 401 340 q 316 315 342 338 q 290 248 290 292 q 307 189 290 208 q 355 170 324 170 q 425 200 396 170 q 453 279 453 231 l 453 343 m 682 1064 l 682 1050 q 633 1005 663 1031 q 568 948 602 978 q 499 891 533 919 q 438 842 465 863 l 267 842 l 267 861 q 316 928 290 892 q 368 998 342 963 q 411 1064 393 1034 l 682 1064 z "},"â":{"ha":776,"x_min":43,"x_max":697,"o":"m 418 782 q 623 712 549 782 q 697 504 697 642 l 697 0 l 524 0 l 480 102 l 475 102 q 416 37 447 62 q 346 -1 385 11 q 250 -14 306 -14 q 137 18 184 -14 q 67 105 91 50 q 43 235 43 161 q 118 418 43 358 q 338 485 194 479 l 452 489 l 452 505 q 431 576 452 553 q 369 599 409 599 q 281 584 330 599 q 179 542 233 569 l 112 713 q 250 764 173 747 q 418 782 326 782 m 453 343 l 401 340 q 316 315 342 338 q 290 248 290 292 q 307 189 290 208 q 355 170 324 170 q 425 200 396 170 q 453 279 453 231 l 453 343 m 515 1064 q 559 997 534 1033 q 613 927 585 962 q 667 861 642 892 l 667 842 l 512 842 q 456 886 484 861 q 396 943 428 911 q 336 885 363 910 q 283 842 310 861 l 125 842 l 125 861 q 178 923 148 886 q 235 998 208 960 q 279 1064 263 1036 l 515 1064 z "},"ã":{"ha":776,"x_min":43,"x_max":697,"o":"m 418 782 q 623 712 549 782 q 697 504 697 642 l 697 0 l 524 0 l 480 102 l 475 102 q 416 37 447 62 q 346 -1 385 11 q 250 -14 306 -14 q 137 18 184 -14 q 67 105 91 50 q 43 235 43 161 q 118 418 43 358 q 338 485 194 479 l 452 489 l 452 505 q 431 576 452 553 q 369 599 409 599 q 281 584 330 599 q 179 542 233 569 l 112 713 q 250 764 173 747 q 418 782 326 782 m 453 343 l 401 340 q 316 315 342 338 q 290 248 290 292 q 307 189 290 208 q 355 170 324 170 q 425 200 396 170 q 453 279 453 231 l 453 343 m 131 839 q 141 929 133 887 q 167 1003 150 971 q 211 1053 184 1035 q 278 1071 239 1071 q 334 1061 306 1071 q 389 1038 361 1051 q 442 1016 416 1025 q 493 1006 468 1006 q 519 1020 508 1006 q 537 1072 531 1035 l 658 1072 q 612 897 653 954 q 511 840 571 840 q 453 850 482 840 q 395 873 423 860 q 342 896 367 886 q 295 905 317 905 q 270 893 283 905 q 250 839 256 880 l 131 839 z "},"ä":{"ha":776,"x_min":43,"x_max":697,"o":"m 418 782 q 623 712 549 782 q 697 504 697 642 l 697 0 l 524 0 l 480 102 l 475 102 q 416 37 447 62 q 346 -1 385 11 q 250 -14 306 -14 q 137 18 184 -14 q 67 105 91 50 q 43 235 43 161 q 118 418 43 358 q 338 485 194 479 l 452 489 l 452 505 q 431 576 452 553 q 369 599 409 599 q 281 584 330 599 q 179 542 233 569 l 112 713 q 250 764 173 747 q 418 782 326 782 m 453 343 l 401 340 q 316 315 342 338 q 290 248 290 292 q 307 189 290 208 q 355 170 324 170 q 425 200 396 170 q 453 279 453 231 l 453 343 m 138 958 q 169 1039 138 1012 q 245 1065 199 1065 q 323 1038 292 1065 q 355 958 355 1010 q 323 880 355 908 q 245 852 292 852 q 169 880 199 852 q 138 958 138 907 m 435 958 q 465 1039 435 1012 q 543 1065 496 1065 q 622 1038 591 1065 q 652 958 652 1010 q 622 880 652 908 q 543 852 591 852 q 465 880 495 852 q 435 958 435 907 z "},"å":{"ha":776,"x_min":43,"x_max":697,"o":"m 418 782 q 623 712 549 782 q 697 504 697 642 l 697 0 l 524 0 l 480 102 l 475 102 q 416 37 447 62 q 346 -1 385 11 q 250 -14 306 -14 q 137 18 184 -14 q 67 105 91 50 q 43 235 43 161 q 118 418 43 358 q 338 485 194 479 l 452 489 l 452 505 q 431 576 452 553 q 369 599 409 599 q 281 584 330 599 q 179 542 233 569 l 112 713 q 250 764 173 747 q 418 782 326 782 m 453 343 l 401 340 q 316 315 342 338 q 290 248 290 292 q 307 189 290 208 q 355 170 324 170 q 425 200 396 170 q 453 279 453 231 l 453 343 m 395 839 q 268 886 317 839 q 220 1010 220 933 q 268 1135 220 1088 q 395 1182 317 1182 q 523 1135 472 1182 q 574 1011 574 1087 q 523 887 574 935 q 395 839 473 839 m 395 954 q 436 969 419 954 q 452 1010 452 985 q 436 1052 452 1036 q 395 1067 419 1067 q 355 1052 372 1067 q 338 1010 338 1036 q 353 969 338 985 q 395 954 368 954 z "},"æ":{"ha":1153,"x_min":43,"x_max":1104,"o":"m 795 781 q 960 742 890 781 q 1066 624 1029 702 q 1104 430 1104 545 l 1104 313 l 686 313 q 725 208 688 246 q 838 170 762 170 q 947 183 892 170 q 1061 229 1002 197 l 1061 42 q 949 0 1008 13 q 808 -14 890 -14 q 702 0 753 -14 q 610 40 652 13 q 538 111 568 68 q 461 39 499 66 q 377 -1 423 12 q 267 -14 330 -14 q 148 18 198 -14 q 70 106 98 50 q 43 237 43 163 q 78 374 43 321 q 181 455 114 428 q 340 485 248 481 l 452 489 l 452 505 q 430 577 452 556 q 370 599 407 599 q 282 585 330 599 q 180 543 233 570 l 114 713 q 246 765 174 747 q 391 782 317 782 q 503 766 453 782 q 589 717 552 749 q 678 765 629 749 q 795 781 727 781 m 453 343 l 404 340 q 316 313 342 338 q 290 243 290 288 q 308 187 290 205 q 356 170 325 170 q 405 183 382 170 q 440 222 427 197 q 453 279 453 247 l 453 343 m 788 604 q 718 575 746 604 q 688 475 690 547 l 882 475 q 870 545 882 516 q 838 589 859 574 q 788 604 817 604 z "},"ç":{"ha":675,"x_min":52,"x_max":642,"o":"m 397 -14 q 210 28 288 -14 q 92 157 133 70 q 52 380 52 245 q 94 596 52 507 q 217 734 136 686 q 410 782 297 782 q 534 767 477 782 q 642 724 592 752 l 573 536 q 495 570 532 558 q 418 582 457 582 q 356 559 382 582 q 315 492 330 536 q 300 381 300 448 q 315 272 300 315 q 357 208 330 229 q 421 188 384 188 q 522 205 472 188 q 619 256 572 223 l 619 54 q 520 4 574 22 q 397 -14 466 -14 m 550 -173 q 502 -290 550 -246 q 368 -334 454 -334 q 292 -328 327 -334 q 233 -315 258 -323 l 233 -187 q 276 -197 256 -193 q 316 -201 296 -201 q 355 -191 341 -201 q 370 -161 370 -180 q 346 -124 370 -138 q 275 -104 322 -111 l 319 0 l 437 0 l 421 -44 q 485 -65 456 -50 q 532 -107 514 -81 q 550 -173 550 -133 z "},"è":{"ha":764,"x_min":52,"x_max":716,"o":"m 390 781 q 565 742 492 781 q 677 624 638 702 q 716 431 716 546 l 716 313 l 296 313 q 335 207 298 244 q 446 170 372 170 q 561 184 508 170 q 671 229 613 198 l 671 42 q 558 0 619 13 q 413 -14 496 -14 q 218 30 299 -14 q 95 161 138 73 q 52 380 52 248 q 92 603 52 513 q 209 736 133 692 q 390 781 284 781 m 397 604 q 329 574 356 604 q 298 475 301 545 l 492 475 q 480 546 492 517 q 448 589 469 574 q 397 604 427 604 m 397 1064 q 442 996 415 1035 q 496 921 469 958 q 540 861 523 884 l 540 842 l 370 842 q 313 886 347 859 q 244 944 280 913 q 176 1004 208 975 q 125 1050 144 1032 l 125 1064 l 397 1064 z "},"é":{"ha":764,"x_min":52,"x_max":716,"o":"m 390 781 q 565 742 492 781 q 677 624 638 702 q 716 431 716 546 l 716 313 l 296 313 q 335 207 298 244 q 446 170 372 170 q 561 184 508 170 q 671 229 613 198 l 671 42 q 558 0 619 13 q 413 -14 496 -14 q 218 30 299 -14 q 95 161 138 73 q 52 380 52 248 q 92 603 52 513 q 209 736 133 692 q 390 781 284 781 m 397 604 q 329 574 356 604 q 298 475 301 545 l 492 475 q 480 546 492 517 q 448 589 469 574 q 397 604 427 604 m 673 1064 l 673 1050 q 623 1005 654 1031 q 558 948 593 978 q 490 891 524 919 q 429 842 456 863 l 258 842 l 258 861 q 307 928 281 892 q 358 998 333 963 q 401 1064 383 1034 l 673 1064 z "},"ê":{"ha":764,"x_min":52,"x_max":716,"o":"m 390 781 q 565 742 492 781 q 677 624 638 702 q 716 431 716 546 l 716 313 l 296 313 q 335 207 298 244 q 446 170 372 170 q 561 184 508 170 q 671 229 613 198 l 671 42 q 558 0 619 13 q 413 -14 496 -14 q 218 30 299 -14 q 95 161 138 73 q 52 380 52 248 q 92 603 52 513 q 209 736 133 692 q 390 781 284 781 m 397 604 q 329 574 356 604 q 298 475 301 545 l 492 475 q 480 546 492 517 q 448 589 469 574 q 397 604 427 604 m 505 1064 q 550 997 524 1033 q 604 927 576 962 q 658 861 632 892 l 658 842 l 503 842 q 446 886 474 861 q 387 943 418 911 q 327 885 353 910 q 273 842 300 861 l 115 842 l 115 861 q 168 923 138 886 q 226 998 198 960 q 270 1064 254 1036 l 505 1064 z "},"ë":{"ha":764,"x_min":52,"x_max":716,"o":"m 390 781 q 565 742 492 781 q 677 624 638 702 q 716 431 716 546 l 716 313 l 296 313 q 335 207 298 244 q 446 170 372 170 q 561 184 508 170 q 671 229 613 198 l 671 42 q 558 0 619 13 q 413 -14 496 -14 q 218 30 299 -14 q 95 161 138 73 q 52 380 52 248 q 92 603 52 513 q 209 736 133 692 q 390 781 284 781 m 397 604 q 329 574 356 604 q 298 475 301 545 l 492 475 q 480 546 492 517 q 448 589 469 574 q 397 604 427 604 m 129 958 q 159 1039 129 1012 q 236 1065 189 1065 q 314 1038 283 1065 q 345 958 345 1010 q 314 880 345 908 q 236 852 283 852 q 159 880 189 852 q 129 958 129 907 m 425 958 q 456 1039 425 1012 q 534 1065 486 1065 q 612 1038 582 1065 q 643 958 643 1010 q 612 880 643 908 q 534 852 582 852 q 455 880 486 852 q 425 958 425 907 z "},"ì":{"ha":410,"x_min":-56,"x_max":359,"o":"m 327 0 l 82 0 l 82 768 l 327 768 l 327 0 m 216 1064 q 261 996 234 1035 q 315 921 288 958 q 359 861 342 884 l 359 842 l 189 842 q 132 886 165 859 q 63 944 99 913 q -5 1004 26 975 q -56 1050 -37 1032 l -56 1064 l 216 1064 z "},"í":{"ha":410,"x_min":77,"x_max":492,"o":"m 327 0 l 82 0 l 82 768 l 327 768 l 327 0 m 492 1064 l 492 1050 q 443 1005 473 1031 q 378 948 412 978 q 309 891 343 919 q 248 842 275 863 l 77 842 l 77 861 q 126 928 100 892 q 178 998 153 963 q 221 1064 203 1034 l 492 1064 z "},"î":{"ha":410,"x_min":-65,"x_max":477,"o":"m 327 0 l 82 0 l 82 768 l 327 768 l 327 0 m 325 1064 q 370 997 344 1033 q 424 927 395 962 q 477 861 452 892 l 477 842 l 322 842 q 266 886 294 861 q 206 943 238 911 q 146 885 173 910 q 93 842 120 861 l -65 842 l -65 861 q -12 923 -42 886 q 45 998 18 960 q 90 1064 73 1036 l 325 1064 z "},"ï":{"ha":410,"x_min":-52,"x_max":462,"o":"m 327 0 l 82 0 l 82 768 l 327 768 l 327 0 m -52 958 q -22 1039 -52 1012 q 55 1065 8 1065 q 133 1038 102 1065 q 164 958 164 1010 q 133 880 164 908 q 55 852 102 852 q -22 880 8 852 q -52 958 -52 907 m 244 958 q 275 1039 244 1012 q 353 1065 305 1065 q 431 1038 401 1065 q 462 958 462 1010 q 431 880 462 908 q 353 852 401 852 q 274 880 304 852 q 244 958 244 907 z "},"ð":{"ha":804,"x_min":52,"x_max":748,"o":"m 307 1067 q 384 1028 347 1048 q 454 984 420 1008 l 570 1068 l 651 954 l 564 890 q 663 756 622 827 q 726 596 705 685 q 748 390 748 507 q 706 175 748 265 q 586 35 664 84 q 399 -14 507 -14 q 218 28 296 -14 q 96 149 140 70 q 52 338 52 227 q 93 529 52 451 q 202 647 134 607 q 353 688 271 688 q 407 684 384 688 q 448 672 431 680 q 477 652 465 665 l 481 655 q 449 715 467 686 q 405 775 431 745 l 304 701 l 222 814 l 311 880 q 268 912 291 896 q 222 943 245 928 l 307 1067 m 401 498 q 343 481 365 498 q 312 429 321 464 q 302 338 302 393 q 312 250 302 287 q 344 194 322 214 q 401 174 366 174 q 477 219 455 174 q 498 354 498 264 q 493 412 498 386 q 476 458 488 439 q 445 488 464 477 q 401 498 427 498 z "},"ñ":{"ha":833,"x_min":81,"x_max":754,"o":"m 514 782 q 689 711 623 782 q 754 500 754 641 l 754 0 l 509 0 l 509 424 q 492 539 509 500 q 429 578 475 578 q 347 522 368 578 q 326 344 326 467 l 326 0 l 81 0 l 81 768 l 269 768 l 299 670 l 311 670 q 361 732 332 707 q 428 769 390 757 q 514 782 467 782 m 159 839 q 170 929 161 887 q 195 1003 178 971 q 240 1053 212 1035 q 307 1071 267 1071 q 362 1061 334 1071 q 417 1038 390 1051 q 470 1016 444 1025 q 522 1006 496 1006 q 548 1020 536 1006 q 566 1072 559 1035 l 686 1072 q 641 897 682 954 q 539 840 600 840 q 481 850 511 840 q 424 873 452 860 q 370 896 395 886 q 323 905 345 905 q 298 893 311 905 q 279 839 285 880 l 159 839 z "},"ò":{"ha":801,"x_min":52,"x_max":748,"o":"m 748 386 q 727 228 748 301 q 663 101 706 155 q 553 17 619 47 q 399 -14 488 -14 q 252 16 316 -14 q 143 100 188 46 q 75 227 98 154 q 52 386 52 300 q 91 594 52 505 q 208 732 130 683 q 402 782 286 782 q 582 736 504 782 q 704 602 660 690 q 748 386 748 513 m 300 385 q 310 272 300 317 q 343 202 321 226 q 401 178 365 178 q 459 202 437 178 q 490 272 480 225 q 499 386 499 318 q 490 499 499 454 q 458 567 480 545 q 400 590 437 590 q 323 539 347 590 q 300 385 300 488 m 412 1064 q 457 996 430 1035 q 511 921 484 958 q 555 861 538 884 l 555 842 l 385 842 q 328 886 361 859 q 259 944 295 913 q 191 1004 222 975 q 140 1050 159 1032 l 140 1064 l 412 1064 z "},"ó":{"ha":801,"x_min":52,"x_max":748,"o":"m 748 386 q 727 228 748 301 q 663 101 706 155 q 553 17 619 47 q 399 -14 488 -14 q 252 16 316 -14 q 143 100 188 46 q 75 227 98 154 q 52 386 52 300 q 91 594 52 505 q 208 732 130 683 q 402 782 286 782 q 582 736 504 782 q 704 602 660 690 q 748 386 748 513 m 300 385 q 310 272 300 317 q 343 202 321 226 q 401 178 365 178 q 459 202 437 178 q 490 272 480 225 q 499 386 499 318 q 490 499 499 454 q 458 567 480 545 q 400 590 437 590 q 323 539 347 590 q 300 385 300 488 m 688 1064 l 688 1050 q 639 1005 669 1031 q 574 948 608 978 q 505 891 539 919 q 444 842 471 863 l 273 842 l 273 861 q 322 928 296 892 q 374 998 349 963 q 417 1064 399 1034 l 688 1064 z "},"ô":{"ha":801,"x_min":52,"x_max":748,"o":"m 748 386 q 727 228 748 301 q 663 101 706 155 q 553 17 619 47 q 399 -14 488 -14 q 252 16 316 -14 q 143 100 188 46 q 75 227 98 154 q 52 386 52 300 q 91 594 52 505 q 208 732 130 683 q 402 782 286 782 q 582 736 504 782 q 704 602 660 690 q 748 386 748 513 m 300 385 q 310 272 300 317 q 343 202 321 226 q 401 178 365 178 q 459 202 437 178 q 490 272 480 225 q 499 386 499 318 q 490 499 499 454 q 458 567 480 545 q 400 590 437 590 q 323 539 347 590 q 300 385 300 488 m 521 1064 q 566 997 540 1033 q 620 927 591 962 q 673 861 648 892 l 673 842 l 518 842 q 462 886 490 861 q 402 943 434 911 q 342 885 369 910 q 289 842 316 861 l 131 842 l 131 861 q 184 923 154 886 q 241 998 214 960 q 286 1064 269 1036 l 521 1064 z "},"õ":{"ha":801,"x_min":52,"x_max":748,"o":"m 748 386 q 727 228 748 301 q 663 101 706 155 q 553 17 619 47 q 399 -14 488 -14 q 252 16 316 -14 q 143 100 188 46 q 75 227 98 154 q 52 386 52 300 q 91 594 52 505 q 208 732 130 683 q 402 782 286 782 q 582 736 504 782 q 704 602 660 690 q 748 386 748 513 m 300 385 q 310 272 300 317 q 343 202 321 226 q 401 178 365 178 q 459 202 437 178 q 490 272 480 225 q 499 386 499 318 q 490 499 499 454 q 458 567 480 545 q 400 590 437 590 q 323 539 347 590 q 300 385 300 488 m 136 839 q 147 929 138 887 q 172 1003 155 971 q 217 1053 189 1035 q 283 1071 244 1071 q 339 1061 311 1071 q 394 1038 367 1051 q 447 1016 421 1025 q 498 1006 473 1006 q 525 1020 513 1006 q 543 1072 536 1035 l 663 1072 q 617 897 659 954 q 516 840 576 840 q 458 850 488 840 q 400 873 429 860 q 347 896 372 886 q 300 905 322 905 q 275 893 288 905 q 256 839 262 880 l 136 839 z "},"ö":{"ha":801,"x_min":52,"x_max":748,"o":"m 748 386 q 727 228 748 301 q 663 101 706 155 q 553 17 619 47 q 399 -14 488 -14 q 252 16 316 -14 q 143 100 188 46 q 75 227 98 154 q 52 386 52 300 q 91 594 52 505 q 208 732 130 683 q 402 782 286 782 q 582 736 504 782 q 704 602 660 690 q 748 386 748 513 m 300 385 q 310 272 300 317 q 343 202 321 226 q 401 178 365 178 q 459 202 437 178 q 490 272 480 225 q 499 386 499 318 q 490 499 499 454 q 458 567 480 545 q 400 590 437 590 q 323 539 347 590 q 300 385 300 488 m 144 958 q 174 1039 144 1012 q 251 1065 204 1065 q 329 1038 298 1065 q 360 958 360 1010 q 329 880 360 908 q 251 852 298 852 q 174 880 204 852 q 144 958 144 907 m 440 958 q 471 1039 440 1012 q 549 1065 501 1065 q 627 1038 597 1065 q 658 958 658 1010 q 627 880 658 908 q 549 852 597 852 q 470 880 500 852 q 440 958 440 907 z "},"÷":{"ha":754,"x_min":55,"x_max":699,"o":"m 55 399 l 55 581 l 699 581 l 699 399 l 55 399 m 377 103 q 299 132 330 103 q 269 220 269 161 q 299 310 269 281 q 377 338 329 338 q 455 310 425 338 q 485 220 485 281 q 454 133 485 162 q 377 103 424 103 m 377 642 q 299 671 330 642 q 269 759 269 701 q 299 848 269 820 q 377 877 329 877 q 455 848 425 877 q 485 759 485 820 q 454 671 485 701 q 377 642 424 642 z "},"ø":{"ha":821,"x_min":52,"x_max":768,"o":"m 768 386 q 725 171 768 260 q 602 34 682 81 q 408 -14 522 -14 q 336 -7 371 -14 q 271 9 302 -1 l 220 -79 l 109 -18 l 164 78 q 80 213 108 136 q 52 386 52 289 q 147 679 52 575 q 412 782 243 782 q 485 775 450 782 q 551 756 520 769 l 594 831 l 704 771 l 658 688 q 739 561 710 637 q 768 386 768 484 m 286 385 q 287 336 286 359 q 292 294 288 313 l 462 590 q 438 600 451 597 q 410 603 425 603 q 315 548 343 603 q 286 385 286 494 m 534 386 q 533 430 534 409 q 529 469 532 452 l 361 176 q 384 168 372 170 q 410 165 397 165 q 484 190 457 165 q 522 264 511 215 q 534 386 534 314 z "},"ù":{"ha":833,"x_min":79,"x_max":752,"o":"m 752 768 l 752 0 l 565 0 l 535 95 l 522 95 q 470 34 500 58 q 402 -2 440 9 q 319 -14 364 -14 q 194 18 248 -14 q 110 112 140 49 q 79 268 79 174 l 79 768 l 324 768 l 324 345 q 341 230 324 269 q 400 191 359 191 q 468 217 446 191 q 499 293 491 243 q 507 410 507 342 l 507 768 l 752 768 m 429 1064 q 473 996 446 1035 q 527 921 500 958 q 571 861 554 884 l 571 842 l 401 842 q 345 886 378 859 q 275 944 311 913 q 207 1004 239 975 q 156 1050 176 1032 l 156 1064 l 429 1064 z "},"ú":{"ha":833,"x_min":79,"x_max":752,"o":"m 752 768 l 752 0 l 565 0 l 535 95 l 522 95 q 470 34 500 58 q 402 -2 440 9 q 319 -14 364 -14 q 194 18 248 -14 q 110 112 140 49 q 79 268 79 174 l 79 768 l 324 768 l 324 345 q 341 230 324 269 q 400 191 359 191 q 468 217 446 191 q 499 293 491 243 q 507 410 507 342 l 507 768 l 752 768 m 704 1064 l 704 1050 q 654 1005 685 1031 q 589 948 624 978 q 521 891 555 919 q 460 842 487 863 l 289 842 l 289 861 q 338 928 312 892 q 389 998 364 963 q 433 1064 414 1034 l 704 1064 z "},"û":{"ha":833,"x_min":79,"x_max":752,"o":"m 752 768 l 752 0 l 565 0 l 535 95 l 522 95 q 470 34 500 58 q 402 -2 440 9 q 319 -14 364 -14 q 194 18 248 -14 q 110 112 140 49 q 79 268 79 174 l 79 768 l 324 768 l 324 345 q 341 230 324 269 q 400 191 359 191 q 468 217 446 191 q 499 293 491 243 q 507 410 507 342 l 507 768 l 752 768 m 537 1064 q 582 997 556 1033 q 636 927 608 962 q 690 861 664 892 l 690 842 l 534 842 q 478 886 506 861 q 418 943 450 911 q 359 885 385 910 q 305 842 332 861 l 147 842 l 147 861 q 200 923 170 886 q 258 998 230 960 q 302 1064 286 1036 l 537 1064 z "},"ü":{"ha":833,"x_min":79,"x_max":752,"o":"m 752 768 l 752 0 l 565 0 l 535 95 l 522 95 q 470 34 500 58 q 402 -2 440 9 q 319 -14 364 -14 q 194 18 248 -14 q 110 112 140 49 q 79 268 79 174 l 79 768 l 324 768 l 324 345 q 341 230 324 269 q 400 191 359 191 q 468 217 446 191 q 499 293 491 243 q 507 410 507 342 l 507 768 l 752 768 m 160 958 q 190 1039 160 1012 q 267 1065 220 1065 q 345 1038 314 1065 q 376 958 376 1010 q 345 880 376 908 q 267 852 314 852 q 190 880 220 852 q 160 958 160 907 m 456 958 q 487 1039 456 1012 q 565 1065 517 1065 q 644 1038 613 1065 q 674 958 674 1010 q 644 880 674 908 q 565 852 613 852 q 487 880 517 852 q 456 958 456 907 z "},"ý":{"ha":765,"x_min":1,"x_max":763,"o":"m 1 768 l 258 768 l 364 381 q 372 346 368 365 q 378 309 376 327 q 382 275 381 291 l 387 275 q 395 326 390 300 q 407 379 399 351 l 511 768 l 763 768 l 495 -49 q 420 -211 463 -148 q 318 -304 378 -274 q 173 -334 258 -334 q 116 -330 141 -334 q 70 -322 91 -326 l 70 -119 q 102 -125 84 -123 q 139 -127 121 -127 q 197 -114 175 -127 q 234 -73 219 -101 q 264 1 250 -44 l 268 11 l 1 768 m 670 1064 l 670 1050 q 621 1005 651 1031 q 555 948 590 978 q 487 891 521 919 q 426 842 453 863 l 255 842 l 255 861 q 304 928 278 892 q 355 998 330 963 q 399 1064 380 1034 l 670 1064 z "},"þ":{"ha":810,"x_min":81,"x_max":759,"o":"m 759 384 q 727 168 759 257 q 638 33 695 79 q 507 -14 581 -14 q 432 -1 465 -14 q 372 33 399 11 q 326 86 346 56 l 317 86 q 322 39 320 62 q 325 -4 323 16 q 326 -39 326 -24 l 326 -334 l 81 -334 l 81 1055 l 326 1055 l 326 824 q 323 738 326 777 q 316 669 320 699 l 326 669 q 374 733 347 709 q 433 770 400 758 q 509 782 467 782 q 690 678 622 782 q 759 384 759 574 m 510 384 q 489 534 510 484 q 422 585 468 585 q 349 541 370 585 q 326 404 327 498 l 326 372 q 348 235 326 280 q 423 190 370 190 q 473 212 454 190 q 501 277 492 233 q 510 384 510 320 z "},"ÿ":{"ha":765,"x_min":1,"x_max":763,"o":"m 1 768 l 258 768 l 364 381 q 372 346 368 365 q 378 309 376 327 q 382 275 381 291 l 387 275 q 395 326 390 300 q 407 379 399 351 l 511 768 l 763 768 l 495 -49 q 420 -211 463 -148 q 318 -304 378 -274 q 173 -334 258 -334 q 116 -330 141 -334 q 70 -322 91 -326 l 70 -119 q 102 -125 84 -123 q 139 -127 121 -127 q 197 -114 175 -127 q 234 -73 219 -101 q 264 1 250 -44 l 268 11 l 1 768 m 126 958 q 156 1039 126 1012 q 233 1065 186 1065 q 311 1038 280 1065 q 342 958 342 1010 q 311 880 342 908 q 233 852 280 852 q 156 880 186 852 q 126 958 126 907 m 422 958 q 453 1039 422 1012 q 531 1065 484 1065 q 610 1038 579 1065 q 640 958 640 1010 q 610 880 640 908 q 531 852 579 852 q 453 880 483 852 q 422 958 422 907 z "},"Ā":{"ha":903,"x_min":0,"x_max":903,"o":"m 630 0 l 587 190 l 319 190 l 275 0 l 0 0 l 283 994 l 617 994 l 903 0 l 630 0 m 541 401 l 500 593 q 484 667 493 625 q 466 752 474 709 q 452 825 457 794 q 440 754 448 795 q 423 671 432 713 q 406 595 414 629 l 364 401 l 541 401 m 681 1236 l 681 1076 l 228 1076 l 228 1236 l 681 1236 z "},"ā":{"ha":776,"x_min":43,"x_max":697,"o":"m 418 782 q 623 712 549 782 q 697 504 697 642 l 697 0 l 524 0 l 480 102 l 475 102 q 416 37 447 62 q 346 -1 385 11 q 250 -14 306 -14 q 137 18 184 -14 q 67 105 91 50 q 43 235 43 161 q 118 418 43 358 q 338 485 194 479 l 452 489 l 452 505 q 431 576 452 553 q 369 599 409 599 q 281 584 330 599 q 179 542 233 569 l 112 713 q 250 764 173 747 q 418 782 326 782 m 453 343 l 401 340 q 316 315 342 338 q 290 248 290 292 q 307 189 290 208 q 355 170 324 170 q 425 200 396 170 q 453 279 453 231 l 453 343 m 624 1012 l 624 852 l 171 852 l 171 1012 l 624 1012 z "},"Ă":{"ha":903,"x_min":0,"x_max":903,"o":"m 630 0 l 587 190 l 319 190 l 275 0 l 0 0 l 283 994 l 617 994 l 903 0 l 630 0 m 541 401 l 500 593 q 484 667 493 625 q 466 752 474 709 q 452 825 457 794 q 440 754 448 795 q 423 671 432 713 q 406 595 414 629 l 364 401 l 541 401 m 701 1317 q 667 1184 699 1241 q 580 1097 635 1128 q 452 1065 525 1065 q 273 1131 338 1065 q 206 1317 209 1197 l 344 1317 q 362 1261 350 1281 q 397 1233 375 1241 q 452 1225 419 1225 q 504 1233 481 1225 q 541 1261 526 1241 q 562 1317 556 1282 l 701 1317 z "},"ă":{"ha":776,"x_min":43,"x_max":697,"o":"m 418 782 q 623 712 549 782 q 697 504 697 642 l 697 0 l 524 0 l 480 102 l 475 102 q 416 37 447 62 q 346 -1 385 11 q 250 -14 306 -14 q 137 18 184 -14 q 67 105 91 50 q 43 235 43 161 q 118 418 43 358 q 338 485 194 479 l 452 489 l 452 505 q 431 576 452 553 q 369 599 409 599 q 281 584 330 599 q 179 542 233 569 l 112 713 q 250 764 173 747 q 418 782 326 782 m 453 343 l 401 340 q 316 315 342 338 q 290 248 290 292 q 307 189 290 208 q 355 170 324 170 q 425 200 396 170 q 453 279 453 231 l 453 343 m 645 1093 q 611 961 643 1017 q 524 873 579 904 q 396 842 469 842 q 217 907 281 842 q 150 1093 153 973 l 288 1093 q 306 1037 294 1057 q 341 1009 319 1017 q 396 1001 363 1001 q 447 1009 425 1001 q 485 1038 470 1017 q 505 1093 500 1058 l 645 1093 z "},"Ą":{"ha":903,"x_min":0,"x_max":903,"o":"m 630 0 l 587 190 l 319 190 l 275 0 l 0 0 l 283 994 l 617 994 l 903 0 l 630 0 m 541 401 l 500 593 q 484 667 493 625 q 466 752 474 709 q 452 825 457 794 q 440 754 448 795 q 423 671 432 713 q 406 595 414 629 l 364 401 l 541 401 m 738 -132 q 753 -169 738 -156 q 793 -182 768 -182 q 829 -178 811 -182 q 860 -168 848 -174 l 860 -314 q 813 -327 840 -321 q 749 -334 785 -334 q 616 -292 665 -334 q 567 -178 567 -250 q 579 -113 567 -146 q 623 -44 592 -79 q 708 29 654 -8 l 818 0 q 755 -73 773 -45 q 738 -132 738 -101 z "},"ą":{"ha":776,"x_min":43,"x_max":712,"o":"m 418 782 q 623 712 549 782 q 697 504 697 642 l 697 0 l 524 0 l 480 102 l 475 102 q 416 37 447 62 q 346 -1 385 11 q 250 -14 306 -14 q 137 18 184 -14 q 67 105 91 50 q 43 235 43 161 q 118 418 43 358 q 338 485 194 479 l 452 489 l 452 505 q 431 576 452 553 q 369 599 409 599 q 281 584 330 599 q 179 542 233 569 l 112 713 q 250 764 173 747 q 418 782 326 782 m 453 343 l 401 340 q 316 315 342 338 q 290 248 290 292 q 307 189 290 208 q 355 170 324 170 q 425 200 396 170 q 453 279 453 231 l 453 343 m 590 -132 q 605 -169 590 -156 q 645 -182 620 -182 q 682 -178 663 -182 q 712 -168 700 -174 l 712 -314 q 665 -327 692 -321 q 601 -334 637 -334 q 468 -292 517 -334 q 419 -178 419 -250 q 432 -113 419 -146 q 475 -44 444 -79 q 560 29 506 -8 l 670 0 q 608 -73 625 -45 q 590 -132 590 -101 z "},"Ć":{"ha":803,"x_min":62,"x_max":765,"o":"m 496 795 q 424 774 456 795 q 369 714 391 753 q 335 619 347 675 q 323 492 323 563 q 343 329 323 395 q 406 231 364 264 q 510 198 447 198 q 620 216 567 198 q 726 260 673 235 l 726 41 q 608 0 670 13 q 476 -14 546 -14 q 244 48 336 -14 q 107 223 153 109 q 62 493 62 336 q 91 701 62 607 q 174 863 119 795 q 308 968 229 931 q 488 1006 387 1006 q 627 989 557 1006 q 765 936 697 972 l 692 734 q 598 778 646 760 q 496 795 550 795 m 745 1288 l 745 1274 q 695 1229 726 1255 q 630 1172 665 1202 q 562 1115 595 1143 q 500 1065 528 1086 l 330 1065 l 330 1085 q 379 1152 353 1116 q 430 1222 405 1187 q 473 1288 455 1257 l 745 1288 z "},"ć":{"ha":675,"x_min":52,"x_max":663,"o":"m 397 -14 q 210 28 288 -14 q 92 157 133 70 q 52 380 52 245 q 94 596 52 507 q 217 734 136 686 q 410 782 297 782 q 534 767 477 782 q 642 724 592 752 l 573 536 q 495 570 532 558 q 418 582 457 582 q 356 559 382 582 q 315 492 330 536 q 300 381 300 448 q 315 272 300 315 q 357 208 330 229 q 421 188 384 188 q 522 205 472 188 q 619 256 572 223 l 619 54 q 520 4 574 22 q 397 -14 466 -14 m 663 1064 l 663 1050 q 613 1005 644 1031 q 548 948 583 978 q 479 891 513 919 q 418 842 446 863 l 248 842 l 248 861 q 297 928 271 892 q 348 998 323 963 q 391 1064 373 1034 l 663 1064 z "},"Ĉ":{"ha":803,"x_min":62,"x_max":765,"o":"m 496 795 q 424 774 456 795 q 369 714 391 753 q 335 619 347 675 q 323 492 323 563 q 343 329 323 395 q 406 231 364 264 q 510 198 447 198 q 620 216 567 198 q 726 260 673 235 l 726 41 q 608 0 670 13 q 476 -14 546 -14 q 244 48 336 -14 q 107 223 153 109 q 62 493 62 336 q 91 701 62 607 q 174 863 119 795 q 308 968 229 931 q 488 1006 387 1006 q 627 989 557 1006 q 765 936 697 972 l 692 734 q 598 778 646 760 q 496 795 550 795 m 577 1288 q 622 1221 596 1257 q 676 1151 648 1185 q 730 1085 704 1116 l 730 1065 l 574 1065 q 518 1109 546 1084 q 458 1167 490 1135 q 399 1109 425 1134 q 345 1065 372 1084 l 187 1065 l 187 1085 q 240 1146 210 1109 q 298 1222 270 1183 q 342 1288 326 1260 l 577 1288 z "},"ĉ":{"ha":675,"x_min":52,"x_max":648,"o":"m 397 -14 q 210 28 288 -14 q 92 157 133 70 q 52 380 52 245 q 94 596 52 507 q 217 734 136 686 q 410 782 297 782 q 534 767 477 782 q 642 724 592 752 l 573 536 q 495 570 532 558 q 418 582 457 582 q 356 559 382 582 q 315 492 330 536 q 300 381 300 448 q 315 272 300 315 q 357 208 330 229 q 421 188 384 188 q 522 205 472 188 q 619 256 572 223 l 619 54 q 520 4 574 22 q 397 -14 466 -14 m 495 1064 q 540 997 514 1033 q 594 927 566 962 q 648 861 622 892 l 648 842 l 492 842 q 436 886 464 861 q 376 943 408 911 q 317 885 343 910 q 263 842 290 861 l 105 842 l 105 861 q 158 923 128 886 q 216 998 188 960 q 260 1064 243 1036 l 495 1064 z "},"Ċ":{"ha":803,"x_min":62,"x_max":765,"o":"m 496 795 q 424 774 456 795 q 369 714 391 753 q 335 619 347 675 q 323 492 323 563 q 343 329 323 395 q 406 231 364 264 q 510 198 447 198 q 620 216 567 198 q 726 260 673 235 l 726 41 q 608 0 670 13 q 476 -14 546 -14 q 244 48 336 -14 q 107 223 153 109 q 62 493 62 336 q 91 701 62 607 q 174 863 119 795 q 308 968 229 931 q 488 1006 387 1006 q 627 989 557 1006 q 765 936 697 972 l 692 734 q 598 778 646 760 q 496 795 550 795 m 464 1301 q 559 1275 524 1301 q 594 1183 594 1248 q 558 1094 594 1120 q 464 1067 522 1067 q 369 1094 405 1067 q 334 1183 334 1120 q 369 1275 334 1249 q 464 1301 404 1301 z "},"ċ":{"ha":675,"x_min":52,"x_max":642,"o":"m 397 -14 q 210 28 288 -14 q 92 157 133 70 q 52 380 52 245 q 94 596 52 507 q 217 734 136 686 q 410 782 297 782 q 534 767 477 782 q 642 724 592 752 l 573 536 q 495 570 532 558 q 418 582 457 582 q 356 559 382 582 q 315 492 330 536 q 300 381 300 448 q 315 272 300 315 q 357 208 330 229 q 421 188 384 188 q 522 205 472 188 q 619 256 572 223 l 619 54 q 520 4 574 22 q 397 -14 466 -14 m 382 1078 q 477 1051 441 1078 q 512 960 512 1024 q 476 870 512 897 q 382 843 440 843 q 287 870 323 843 q 252 960 252 897 q 287 1051 252 1025 q 382 1078 321 1078 z "},"Č":{"ha":803,"x_min":62,"x_max":765,"o":"m 496 795 q 424 774 456 795 q 369 714 391 753 q 335 619 347 675 q 323 492 323 563 q 343 329 323 395 q 406 231 364 264 q 510 198 447 198 q 620 216 567 198 q 726 260 673 235 l 726 41 q 608 0 670 13 q 476 -14 546 -14 q 244 48 336 -14 q 107 223 153 109 q 62 493 62 336 q 91 701 62 607 q 174 863 119 795 q 308 968 229 931 q 488 1006 387 1006 q 627 989 557 1006 q 765 936 697 972 l 692 734 q 598 778 646 760 q 496 795 550 795 m 342 1065 q 297 1132 326 1094 q 239 1207 269 1171 q 187 1268 210 1244 l 187 1288 l 345 1288 q 400 1243 374 1267 q 458 1186 427 1219 q 518 1244 490 1219 q 574 1288 546 1269 l 730 1288 l 730 1268 q 680 1207 709 1243 q 623 1133 650 1171 q 577 1065 595 1095 l 342 1065 z "},"č":{"ha":675,"x_min":52,"x_max":648,"o":"m 397 -14 q 210 28 288 -14 q 92 157 133 70 q 52 380 52 245 q 94 596 52 507 q 217 734 136 686 q 410 782 297 782 q 534 767 477 782 q 642 724 592 752 l 573 536 q 495 570 532 558 q 418 582 457 582 q 356 559 382 582 q 315 492 330 536 q 300 381 300 448 q 315 272 300 315 q 357 208 330 229 q 421 188 384 188 q 522 205 472 188 q 619 256 572 223 l 619 54 q 520 4 574 22 q 397 -14 466 -14 m 260 842 q 215 908 243 870 q 157 984 187 947 q 105 1044 127 1021 l 105 1064 l 263 1064 q 318 1020 292 1044 q 376 962 345 996 q 436 1020 408 996 q 492 1064 464 1045 l 648 1064 l 648 1044 q 597 983 627 1019 q 541 909 568 947 q 495 842 513 871 l 260 842 z "},"Ď":{"ha":918,"x_min":95,"x_max":855,"o":"m 855 517 q 798 233 855 348 q 635 59 741 118 q 383 0 530 0 l 95 0 l 95 991 l 402 991 q 648 937 547 991 q 802 776 749 882 q 855 517 855 670 m 594 507 q 573 663 594 603 q 509 752 551 724 q 401 781 466 781 l 347 781 l 347 213 l 386 213 q 544 285 494 213 q 594 507 594 357 m 341 1065 q 297 1132 325 1094 q 239 1207 269 1171 q 186 1268 209 1244 l 186 1288 l 345 1288 q 399 1243 373 1267 q 458 1186 426 1219 q 517 1244 490 1219 q 574 1288 545 1269 l 729 1288 l 729 1268 q 679 1207 708 1243 q 622 1133 650 1171 q 576 1065 595 1095 l 341 1065 z "},"ď":{"ha":810,"x_min":52,"x_max":1034,"o":"m 302 -14 q 120 91 188 -14 q 52 385 52 195 q 121 679 52 575 q 304 782 190 782 q 381 769 347 782 q 441 730 414 755 q 488 669 467 705 l 494 669 q 487 754 490 710 q 484 833 484 798 l 484 1055 l 730 1055 l 730 0 l 540 0 l 495 86 l 484 86 q 437 33 463 55 q 380 -2 412 10 q 302 -14 347 -14 m 393 185 q 471 228 448 185 q 495 364 494 271 l 495 397 q 472 533 495 488 q 393 578 450 578 q 325 531 350 578 q 299 384 299 483 q 325 233 299 281 q 393 185 351 185 m 1034 1055 l 1034 1040 q 1004 971 1019 1005 q 970 904 988 937 q 930 833 952 870 l 775 833 l 775 852 q 785 898 780 871 q 794 952 789 924 q 802 1007 799 980 q 807 1055 806 1034 l 1034 1055 z "},"Đ":{"ha":918,"x_min":11,"x_max":855,"o":"m 402 991 q 648 937 547 991 q 802 776 749 882 q 855 517 855 670 q 798 233 855 348 q 635 59 741 118 q 383 0 530 0 l 95 0 l 95 405 l 11 405 l 11 600 l 95 600 l 95 991 l 402 991 m 401 781 l 347 781 l 347 600 l 465 600 l 465 405 l 347 405 l 347 213 l 386 213 q 544 285 494 213 q 594 507 594 357 q 573 663 594 603 q 509 752 551 724 q 401 781 466 781 z "},"đ":{"ha":825,"x_min":52,"x_max":825,"o":"m 296 -14 q 118 85 185 -14 q 52 361 52 184 q 122 637 52 543 q 306 732 192 732 q 384 719 350 732 q 445 681 418 706 q 492 621 472 656 l 498 621 q 489 699 494 655 q 484 785 484 743 l 484 795 l 351 795 l 351 956 l 484 956 l 484 1055 l 730 1055 l 730 956 l 825 956 l 825 795 l 730 795 l 730 0 l 532 0 l 486 86 l 475 86 q 428 33 452 55 q 371 -2 403 10 q 296 -14 340 -14 m 400 185 q 473 223 452 185 q 495 342 494 260 l 495 371 q 470 489 495 450 q 399 528 446 528 q 336 489 359 528 q 312 359 312 449 q 334 232 312 279 q 400 185 356 185 z "},"Ē":{"ha":689,"x_min":95,"x_max":628,"o":"m 628 0 l 95 0 l 95 991 l 628 991 l 628 784 l 347 784 l 347 616 l 607 616 l 607 409 l 347 409 l 347 211 l 628 211 l 628 0 m 589 1236 l 589 1076 l 136 1076 l 136 1236 l 589 1236 z "},"ē":{"ha":764,"x_min":52,"x_max":716,"o":"m 390 781 q 565 742 492 781 q 677 624 638 702 q 716 431 716 546 l 716 313 l 296 313 q 335 207 298 244 q 446 170 372 170 q 561 184 508 170 q 671 229 613 198 l 671 42 q 558 0 619 13 q 413 -14 496 -14 q 218 30 299 -14 q 95 161 138 73 q 52 380 52 248 q 92 603 52 513 q 209 736 133 692 q 390 781 284 781 m 397 604 q 329 574 356 604 q 298 475 301 545 l 492 475 q 480 546 492 517 q 448 589 469 574 q 397 604 427 604 m 614 1012 l 614 852 l 161 852 l 161 1012 l 614 1012 z "},"Ĕ":{"ha":689,"x_min":95,"x_max":628,"o":"m 628 0 l 95 0 l 95 991 l 628 991 l 628 784 l 347 784 l 347 616 l 607 616 l 607 409 l 347 409 l 347 211 l 628 211 l 628 0 m 609 1317 q 575 1184 607 1241 q 488 1097 543 1128 q 360 1065 433 1065 q 181 1131 245 1065 q 114 1317 117 1197 l 252 1317 q 270 1261 258 1281 q 305 1233 283 1241 q 360 1225 327 1225 q 411 1233 389 1225 q 449 1261 434 1241 q 469 1317 464 1282 l 609 1317 z "},"ĕ":{"ha":764,"x_min":52,"x_max":716,"o":"m 390 781 q 565 742 492 781 q 677 624 638 702 q 716 431 716 546 l 716 313 l 296 313 q 335 207 298 244 q 446 170 372 170 q 561 184 508 170 q 671 229 613 198 l 671 42 q 558 0 619 13 q 413 -14 496 -14 q 218 30 299 -14 q 95 161 138 73 q 52 380 52 248 q 92 603 52 513 q 209 736 133 692 q 390 781 284 781 m 397 604 q 329 574 356 604 q 298 475 301 545 l 492 475 q 480 546 492 517 q 448 589 469 574 q 397 604 427 604 m 635 1093 q 601 961 633 1017 q 514 873 569 904 q 386 842 458 842 q 207 907 271 842 q 140 1093 142 973 l 277 1093 q 296 1037 283 1057 q 331 1009 309 1017 q 386 1001 353 1001 q 437 1009 414 1001 q 475 1038 460 1017 q 495 1093 490 1058 l 635 1093 z "},"Ė":{"ha":689,"x_min":95,"x_max":628,"o":"m 628 0 l 95 0 l 95 991 l 628 991 l 628 784 l 347 784 l 347 616 l 607 616 l 607 409 l 347 409 l 347 211 l 628 211 l 628 0 m 366 1301 q 461 1275 426 1301 q 496 1183 496 1248 q 460 1094 496 1120 q 366 1067 425 1067 q 272 1094 307 1067 q 236 1183 236 1120 q 271 1275 236 1249 q 366 1301 306 1301 z "},"ė":{"ha":764,"x_min":52,"x_max":716,"o":"m 390 781 q 565 742 492 781 q 677 624 638 702 q 716 431 716 546 l 716 313 l 296 313 q 335 207 298 244 q 446 170 372 170 q 561 184 508 170 q 671 229 613 198 l 671 42 q 558 0 619 13 q 413 -14 496 -14 q 218 30 299 -14 q 95 161 138 73 q 52 380 52 248 q 92 603 52 513 q 209 736 133 692 q 390 781 284 781 m 397 604 q 329 574 356 604 q 298 475 301 545 l 492 475 q 480 546 492 517 q 448 589 469 574 q 397 604 427 604 m 392 1078 q 487 1051 452 1078 q 522 960 522 1024 q 486 870 522 897 q 392 843 450 843 q 297 870 333 843 q 262 960 262 897 q 297 1051 262 1025 q 392 1078 332 1078 z "},"Ę":{"ha":689,"x_min":95,"x_max":634,"o":"m 628 0 l 95 0 l 95 991 l 628 991 l 628 784 l 347 784 l 347 616 l 607 616 l 607 409 l 347 409 l 347 211 l 628 211 l 628 0 m 512 -132 q 527 -169 512 -156 q 567 -182 542 -182 q 604 -178 585 -182 q 634 -168 622 -174 l 634 -314 q 587 -327 614 -321 q 523 -334 559 -334 q 390 -292 439 -334 q 341 -178 341 -250 q 354 -113 341 -146 q 397 -44 366 -79 q 482 29 428 -8 l 592 0 q 530 -73 547 -45 q 512 -132 512 -101 z "},"ę":{"ha":764,"x_min":52,"x_max":716,"o":"m 555 -130 q 570 -168 555 -155 q 607 -180 585 -180 q 646 -176 625 -180 q 680 -165 667 -172 l 680 -315 q 625 -328 655 -323 q 562 -334 594 -334 q 431 -291 477 -334 q 384 -176 384 -248 q 396 -114 384 -145 q 437 -51 408 -83 q 516 18 466 -18 l 671 42 q 597 -35 622 -3 q 563 -88 572 -66 q 555 -130 555 -111 m 390 781 q 565 742 492 781 q 677 624 638 702 q 716 431 716 546 l 716 313 l 296 313 q 335 207 298 244 q 446 170 372 170 q 561 184 508 170 q 671 229 613 198 l 671 42 q 558 0 619 13 q 413 -14 496 -14 q 218 30 299 -14 q 95 161 138 73 q 52 380 52 248 q 92 603 52 513 q 209 736 133 692 q 390 781 284 781 m 397 604 q 329 574 356 604 q 298 475 301 545 l 492 475 q 480 546 492 517 q 448 589 469 574 q 397 604 427 604 z "},"Ě":{"ha":689,"x_min":90,"x_max":632,"o":"m 628 0 l 95 0 l 95 991 l 628 991 l 628 784 l 347 784 l 347 616 l 607 616 l 607 409 l 347 409 l 347 211 l 628 211 l 628 0 m 244 1065 q 200 1132 228 1094 q 142 1207 172 1171 q 90 1268 112 1244 l 90 1288 l 248 1288 q 302 1243 276 1267 q 361 1186 329 1219 q 420 1244 393 1219 q 477 1288 448 1269 l 632 1288 l 632 1268 q 582 1207 611 1243 q 525 1133 553 1171 q 479 1065 498 1095 l 244 1065 z "},"ě":{"ha":764,"x_min":52,"x_max":716,"o":"m 390 781 q 565 742 492 781 q 677 624 638 702 q 716 431 716 546 l 716 313 l 296 313 q 335 207 298 244 q 446 170 372 170 q 561 184 508 170 q 671 229 613 198 l 671 42 q 558 0 619 13 q 413 -14 496 -14 q 218 30 299 -14 q 95 161 138 73 q 52 380 52 248 q 92 603 52 513 q 209 736 133 692 q 390 781 284 781 m 397 604 q 329 574 356 604 q 298 475 301 545 l 492 475 q 480 546 492 517 q 448 589 469 574 q 397 604 427 604 m 270 842 q 225 908 254 870 q 168 984 197 947 q 115 1044 138 1021 l 115 1064 l 273 1064 q 328 1020 302 1044 q 387 962 355 996 q 446 1020 418 996 q 503 1064 474 1045 l 658 1064 l 658 1044 q 608 983 637 1019 q 551 909 578 947 q 505 842 524 871 l 270 842 z "},"Ĝ":{"ha":926,"x_min":62,"x_max":844,"o":"m 458 581 l 844 581 l 844 46 q 679 2 768 18 q 493 -14 589 -14 q 264 44 361 -14 q 115 216 168 102 q 62 498 62 330 q 118 770 62 656 q 279 944 173 883 q 537 1006 385 1006 q 696 988 622 1006 q 827 943 771 970 l 751 742 q 652 781 705 768 q 542 795 600 795 q 418 756 466 795 q 347 650 370 718 q 323 492 323 583 q 345 332 323 397 q 409 233 367 267 q 511 199 451 199 q 559 202 532 199 q 603 210 585 205 l 603 378 l 458 378 l 458 581 m 627 1288 q 672 1221 646 1257 q 726 1151 698 1185 q 780 1085 754 1116 l 780 1065 l 625 1065 q 568 1109 596 1084 q 509 1167 541 1135 q 449 1109 475 1134 q 395 1065 422 1084 l 237 1065 l 237 1085 q 290 1146 260 1109 q 348 1222 320 1183 q 392 1288 376 1260 l 627 1288 z "},"ĝ":{"ha":767,"x_min":10,"x_max":748,"o":"m 323 -334 q 92 -278 173 -334 q 10 -119 10 -222 q 52 -9 10 -55 q 169 56 93 37 q 109 101 134 70 q 85 169 85 133 q 105 237 85 210 q 173 298 125 264 q 92 384 122 326 q 61 517 61 442 q 96 660 61 602 q 199 750 132 719 q 366 781 267 781 q 411 778 387 781 q 458 772 436 775 q 494 765 481 768 l 748 765 l 748 635 l 653 604 q 668 561 663 583 q 672 511 672 538 q 592 317 672 386 q 360 249 513 249 q 297 255 319 249 q 287 238 292 248 q 281 217 281 229 q 295 193 281 202 q 330 180 308 184 q 378 176 353 176 l 511 176 q 680 123 623 176 q 738 -39 738 70 q 631 -257 738 -180 q 323 -334 524 -334 m 337 -169 q 428 -159 387 -169 q 494 -130 469 -149 q 518 -80 518 -110 q 505 -46 518 -58 q 467 -31 492 -35 q 406 -26 442 -26 l 302 -26 q 263 -36 280 -26 q 236 -61 245 -45 q 226 -98 226 -77 q 256 -150 226 -131 q 337 -169 286 -169 m 368 400 q 417 429 400 400 q 435 515 435 458 q 418 603 435 574 q 368 631 401 631 q 316 603 333 631 q 299 516 299 574 q 316 429 299 458 q 368 400 332 400 m 498 1064 q 543 997 517 1033 q 597 927 569 962 q 651 861 625 892 l 651 842 l 496 842 q 439 886 467 861 q 380 943 412 911 q 320 885 347 910 q 267 842 294 861 l 109 842 l 109 861 q 161 923 132 886 q 219 998 191 960 q 263 1064 247 1036 l 498 1064 z "},"Ğ":{"ha":926,"x_min":62,"x_max":844,"o":"m 458 581 l 844 581 l 844 46 q 679 2 768 18 q 493 -14 589 -14 q 264 44 361 -14 q 115 216 168 102 q 62 498 62 330 q 118 770 62 656 q 279 944 173 883 q 537 1006 385 1006 q 696 988 622 1006 q 827 943 771 970 l 751 742 q 652 781 705 768 q 542 795 600 795 q 418 756 466 795 q 347 650 370 718 q 323 492 323 583 q 345 332 323 397 q 409 233 367 267 q 511 199 451 199 q 559 202 532 199 q 603 210 585 205 l 603 378 l 458 378 l 458 581 m 756 1317 q 722 1184 754 1241 q 635 1097 690 1128 q 507 1065 580 1065 q 328 1131 393 1065 q 261 1317 264 1197 l 399 1317 q 417 1261 405 1281 q 452 1233 430 1241 q 507 1225 474 1225 q 558 1233 536 1225 q 596 1261 581 1241 q 616 1317 611 1282 l 756 1317 z "},"ğ":{"ha":767,"x_min":10,"x_max":748,"o":"m 323 -334 q 92 -278 173 -334 q 10 -119 10 -222 q 52 -9 10 -55 q 169 56 93 37 q 109 101 134 70 q 85 169 85 133 q 105 237 85 210 q 173 298 125 264 q 92 384 122 326 q 61 517 61 442 q 96 660 61 602 q 199 750 132 719 q 366 781 267 781 q 411 778 387 781 q 458 772 436 775 q 494 765 481 768 l 748 765 l 748 635 l 653 604 q 668 561 663 583 q 672 511 672 538 q 592 317 672 386 q 360 249 513 249 q 297 255 319 249 q 287 238 292 248 q 281 217 281 229 q 295 193 281 202 q 330 180 308 184 q 378 176 353 176 l 511 176 q 680 123 623 176 q 738 -39 738 70 q 631 -257 738 -180 q 323 -334 524 -334 m 337 -169 q 428 -159 387 -169 q 494 -130 469 -149 q 518 -80 518 -110 q 505 -46 518 -58 q 467 -31 492 -35 q 406 -26 442 -26 l 302 -26 q 263 -36 280 -26 q 236 -61 245 -45 q 226 -98 226 -77 q 256 -150 226 -131 q 337 -169 286 -169 m 368 400 q 417 429 400 400 q 435 515 435 458 q 418 603 435 574 q 368 631 401 631 q 316 603 333 631 q 299 516 299 574 q 316 429 299 458 q 368 400 332 400 m 627 1093 q 593 961 625 1017 q 506 873 561 904 q 378 842 450 842 q 199 907 263 842 q 132 1093 134 973 l 269 1093 q 288 1037 275 1057 q 322 1009 300 1017 q 378 1001 345 1001 q 429 1009 406 1001 q 467 1038 452 1017 q 487 1093 481 1058 l 627 1093 z "},"Ġ":{"ha":926,"x_min":62,"x_max":844,"o":"m 458 581 l 844 581 l 844 46 q 679 2 768 18 q 493 -14 589 -14 q 264 44 361 -14 q 115 216 168 102 q 62 498 62 330 q 118 770 62 656 q 279 944 173 883 q 537 1006 385 1006 q 696 988 622 1006 q 827 943 771 970 l 751 742 q 652 781 705 768 q 542 795 600 795 q 418 756 466 795 q 347 650 370 718 q 323 492 323 583 q 345 332 323 397 q 409 233 367 267 q 511 199 451 199 q 559 202 532 199 q 603 210 585 205 l 603 378 l 458 378 l 458 581 m 514 1301 q 609 1275 574 1301 q 644 1183 644 1248 q 608 1094 644 1120 q 514 1067 572 1067 q 419 1094 455 1067 q 384 1183 384 1120 q 419 1275 384 1249 q 514 1301 454 1301 z "},"ġ":{"ha":767,"x_min":10,"x_max":748,"o":"m 323 -334 q 92 -278 173 -334 q 10 -119 10 -222 q 52 -9 10 -55 q 169 56 93 37 q 109 101 134 70 q 85 169 85 133 q 105 237 85 210 q 173 298 125 264 q 92 384 122 326 q 61 517 61 442 q 96 660 61 602 q 199 750 132 719 q 366 781 267 781 q 411 778 387 781 q 458 772 436 775 q 494 765 481 768 l 748 765 l 748 635 l 653 604 q 668 561 663 583 q 672 511 672 538 q 592 317 672 386 q 360 249 513 249 q 297 255 319 249 q 287 238 292 248 q 281 217 281 229 q 295 193 281 202 q 330 180 308 184 q 378 176 353 176 l 511 176 q 680 123 623 176 q 738 -39 738 70 q 631 -257 738 -180 q 323 -334 524 -334 m 337 -169 q 428 -159 387 -169 q 494 -130 469 -149 q 518 -80 518 -110 q 505 -46 518 -58 q 467 -31 492 -35 q 406 -26 442 -26 l 302 -26 q 263 -36 280 -26 q 236 -61 245 -45 q 226 -98 226 -77 q 256 -150 226 -131 q 337 -169 286 -169 m 368 400 q 417 429 400 400 q 435 515 435 458 q 418 603 435 574 q 368 631 401 631 q 316 603 333 631 q 299 516 299 574 q 316 429 299 458 q 368 400 332 400 m 380 1078 q 475 1051 439 1078 q 510 960 510 1024 q 474 870 510 897 q 380 843 438 843 q 285 870 321 843 q 250 960 250 897 q 284 1051 250 1025 q 380 1078 319 1078 z "},"Ģ":{"ha":926,"x_min":62,"x_max":844,"o":"m 458 581 l 844 581 l 844 46 q 679 2 768 18 q 493 -14 589 -14 q 264 44 361 -14 q 115 216 168 102 q 62 498 62 330 q 118 770 62 656 q 279 944 173 883 q 537 1006 385 1006 q 696 988 622 1006 q 827 943 771 970 l 751 742 q 652 781 705 768 q 542 795 600 795 q 418 756 466 795 q 347 650 370 718 q 323 492 323 583 q 345 332 323 397 q 409 233 367 267 q 511 199 451 199 q 559 202 532 199 q 603 210 585 205 l 603 378 l 458 378 l 458 581 m 618 -85 l 618 -100 q 590 -171 605 -136 q 557 -239 575 -205 q 517 -307 540 -272 l 362 -307 l 362 -288 q 375 -224 369 -261 q 386 -149 381 -186 q 391 -85 390 -112 l 618 -85 z "},"ģ":{"ha":767,"x_min":10,"x_max":748,"o":"m 500 1061 l 500 1041 q 489 970 494 1006 q 479 900 483 934 q 473 838 475 867 l 245 838 l 245 854 q 275 922 260 888 q 308 989 290 955 q 347 1061 326 1023 l 500 1061 m 323 -334 q 92 -278 173 -334 q 10 -119 10 -222 q 52 -9 10 -55 q 169 56 93 37 q 109 101 134 70 q 85 169 85 133 q 105 237 85 210 q 173 298 125 264 q 92 384 122 326 q 61 517 61 442 q 96 660 61 602 q 199 750 132 719 q 366 781 267 781 q 411 778 387 781 q 458 772 436 775 q 494 765 481 768 l 748 765 l 748 635 l 653 604 q 668 561 663 583 q 672 511 672 538 q 592 317 672 386 q 360 249 513 249 q 297 255 319 249 q 287 238 292 248 q 281 217 281 229 q 295 193 281 202 q 330 180 308 184 q 378 176 353 176 l 511 176 q 680 123 623 176 q 738 -39 738 70 q 631 -257 738 -180 q 323 -334 524 -334 m 337 -169 q 428 -159 387 -169 q 494 -130 469 -149 q 518 -80 518 -110 q 505 -46 518 -58 q 467 -31 492 -35 q 406 -26 442 -26 l 302 -26 q 263 -36 280 -26 q 236 -61 245 -45 q 226 -98 226 -77 q 256 -150 226 -131 q 337 -169 286 -169 m 368 400 q 417 429 400 400 q 435 515 435 458 q 418 603 435 574 q 368 631 401 631 q 316 603 333 631 q 299 516 299 574 q 316 429 299 458 q 368 400 332 400 z "},"Ĥ":{"ha":955,"x_min":95,"x_max":861,"o":"m 861 0 l 608 0 l 608 409 l 347 409 l 347 0 l 95 0 l 95 991 l 347 991 l 347 621 l 608 621 l 608 991 l 861 991 l 861 0 m 597 1288 q 642 1221 616 1257 q 696 1151 668 1185 q 750 1085 724 1116 l 750 1065 l 595 1065 q 538 1109 566 1084 q 479 1167 511 1135 q 419 1109 446 1134 q 366 1065 393 1084 l 208 1065 l 208 1085 q 260 1146 231 1109 q 318 1222 290 1183 q 362 1288 346 1260 l 597 1288 z "},"ĥ":{"ha":833,"x_min":-65,"x_max":754,"o":"m 326 1055 l 326 884 q 322 765 326 818 q 311 673 318 712 l 323 673 q 371 736 344 712 q 434 771 399 760 q 513 782 470 782 q 638 751 584 782 q 723 657 692 720 q 754 500 754 595 l 754 0 l 509 0 l 509 424 q 490 539 509 500 q 433 578 471 578 q 367 552 391 578 q 335 474 344 526 q 326 345 326 422 l 326 0 l 81 0 l 81 1055 l 326 1055 m 325 1352 q 370 1285 344 1320 q 424 1214 395 1249 q 477 1149 452 1179 l 477 1129 l 322 1129 q 266 1173 294 1148 q 206 1231 238 1198 q 146 1173 173 1198 q 93 1129 120 1148 l -65 1129 l -65 1149 q -12 1210 -42 1173 q 45 1285 18 1247 q 90 1352 73 1324 l 325 1352 z "},"Ħ":{"ha":966,"x_min":-3,"x_max":970,"o":"m 100 0 l 100 724 l -3 724 l -3 882 l 100 882 l 100 991 l 352 991 l 352 882 l 613 882 l 613 991 l 866 991 l 866 882 l 970 882 l 970 724 l 866 724 l 866 0 l 613 0 l 613 409 l 352 409 l 352 0 l 100 0 m 352 621 l 613 621 l 613 724 l 352 724 l 352 621 z "},"ħ":{"ha":840,"x_min":-5,"x_max":762,"o":"m 334 1055 l 334 956 l 473 956 l 473 795 l 333 795 l 333 776 q 329 705 333 747 q 318 624 325 663 l 332 624 q 379 686 353 662 q 441 721 406 709 q 520 732 477 732 q 646 701 592 732 q 731 607 701 669 q 762 451 762 545 l 762 0 l 515 0 l 515 374 q 497 489 515 450 q 439 528 478 528 q 375 504 399 528 q 342 428 352 479 q 333 294 333 376 l 333 0 l 87 0 l 87 795 l -5 795 l -5 956 l 87 956 l 87 1055 l 334 1055 z "},"Ĩ":{"ha":442,"x_min":-42,"x_max":485,"o":"m 95 0 l 95 991 l 347 991 l 347 0 l 95 0 m -42 1063 q -32 1153 -40 1111 q -6 1227 -23 1195 q 38 1277 11 1259 q 105 1295 66 1295 q 161 1285 133 1295 q 216 1262 189 1275 q 269 1239 243 1249 q 320 1230 295 1230 q 347 1244 335 1230 q 364 1296 358 1259 l 485 1296 q 439 1121 480 1177 q 338 1064 398 1064 q 280 1074 309 1064 q 222 1097 250 1084 q 169 1119 194 1109 q 122 1129 144 1129 q 97 1117 110 1129 q 77 1063 83 1104 l -42 1063 z "},"ĩ":{"ha":410,"x_min":-60,"x_max":467,"o":"m 327 0 l 82 0 l 82 768 l 327 768 l 327 0 m -60 839 q -49 929 -58 887 q -24 1003 -41 971 q 21 1053 -7 1035 q 87 1071 48 1071 q 143 1061 115 1071 q 198 1038 171 1051 q 251 1016 225 1025 q 302 1006 277 1006 q 329 1020 317 1006 q 347 1072 340 1035 l 467 1072 q 421 897 463 954 q 320 840 380 840 q 262 850 292 840 q 204 873 233 860 q 151 896 176 886 q 104 905 126 905 q 79 893 92 905 q 60 839 66 880 l -60 839 z "},"Ī":{"ha":442,"x_min":-5,"x_max":448,"o":"m 95 0 l 95 991 l 347 991 l 347 0 l 95 0 m 448 1236 l 448 1076 l -5 1076 l -5 1236 l 448 1236 z "},"ī":{"ha":410,"x_min":-19,"x_max":433,"o":"m 327 0 l 82 0 l 82 768 l 327 768 l 327 0 m 434 1012 l 434 852 l -19 852 l -19 1012 l 434 1012 z "},"Ĭ":{"ha":442,"x_min":-27,"x_max":468,"o":"m 95 0 l 95 991 l 347 991 l 347 0 l 95 0 m 468 1317 q 434 1184 466 1241 q 347 1097 402 1128 q 219 1065 292 1065 q 40 1131 104 1065 q -27 1317 -24 1197 l 111 1317 q 129 1261 117 1281 q 164 1233 142 1241 q 219 1225 186 1225 q 270 1233 248 1225 q 308 1261 293 1241 q 328 1317 323 1282 l 468 1317 z "},"ĭ":{"ha":410,"x_min":-41,"x_max":454,"o":"m 327 0 l 82 0 l 82 768 l 327 768 l 327 0 m 454 1093 q 420 961 452 1017 q 333 873 389 904 q 205 842 278 842 q 26 907 91 842 q -41 1093 -38 973 l 97 1093 q 116 1037 103 1057 q 150 1009 128 1017 q 205 1001 172 1001 q 257 1009 234 1001 q 294 1038 279 1017 q 315 1093 309 1058 l 454 1093 z "},"Į":{"ha":442,"x_min":75,"x_max":368,"o":"m 95 0 l 95 991 l 347 991 l 347 0 l 95 0 m 245 -132 q 260 -169 245 -156 q 300 -182 275 -182 q 337 -178 319 -182 q 368 -168 355 -174 l 368 -314 q 320 -327 348 -321 q 256 -334 293 -334 q 124 -292 173 -334 q 75 -178 75 -250 q 87 -113 75 -146 q 131 -44 100 -79 q 216 29 161 -8 l 326 0 q 263 -73 281 -45 q 245 -132 245 -101 z "},"į":{"ha":410,"x_min":47,"x_max":340,"o":"m 327 768 l 327 0 l 82 0 l 82 768 l 327 768 m 205 1078 q 300 1051 264 1078 q 336 960 336 1024 q 299 870 336 897 q 205 843 263 843 q 111 870 146 843 q 75 960 75 897 q 110 1051 75 1025 q 205 1078 144 1078 m 218 -132 q 233 -169 218 -156 q 273 -182 248 -182 q 310 -178 292 -182 q 340 -168 328 -174 l 340 -314 q 293 -327 321 -321 q 229 -334 266 -334 q 97 -292 146 -334 q 47 -178 47 -250 q 60 -113 47 -146 q 103 -44 73 -79 q 189 29 134 -8 l 298 0 q 236 -73 254 -45 q 218 -132 218 -101 z "},"İ":{"ha":442,"x_min":91,"x_max":351,"o":"m 95 0 l 95 991 l 347 991 l 347 0 l 95 0 m 221 1301 q 316 1275 281 1301 q 351 1183 351 1248 q 315 1094 351 1120 q 221 1067 279 1067 q 126 1094 162 1067 q 91 1183 91 1120 q 126 1275 91 1249 q 221 1301 161 1301 z "},"Ĳ":{"ha":888,"x_min":95,"x_max":793,"o":"m 95 0 l 95 991 l 347 991 l 347 0 l 95 0 m 472 -311 q 403 -307 435 -311 q 345 -297 371 -303 l 345 -93 q 386 -103 364 -98 q 433 -107 408 -107 q 498 -89 475 -107 q 532 -33 522 -71 q 542 70 542 6 l 542 991 l 793 991 l 793 87 q 754 -150 793 -62 q 643 -274 715 -237 q 472 -311 570 -311 z "},"ĳ":{"ha":819,"x_min":75,"x_max":745,"o":"m 327 768 l 327 0 l 82 0 l 82 768 l 327 768 m 205 1078 q 300 1051 264 1078 q 336 960 336 1024 q 299 870 336 897 q 205 843 263 843 q 111 870 146 843 q 75 960 75 897 q 110 1051 75 1025 q 205 1078 144 1078 m 478 -334 q 412 -329 448 -334 q 349 -317 376 -324 l 349 -118 q 385 -127 368 -124 q 420 -130 402 -130 q 472 -107 453 -130 q 492 -26 492 -84 l 492 768 l 736 768 l 736 -62 q 709 -204 736 -143 q 625 -299 682 -265 q 478 -334 568 -333 m 485 960 q 519 1051 485 1025 q 614 1078 554 1078 q 710 1051 674 1078 q 745 960 745 1024 q 709 870 745 897 q 614 843 673 843 q 520 870 556 843 q 485 960 485 897 z "},"Ĵ":{"ha":446,"x_min":-97,"x_max":496,"o":"m 30 -311 q -39 -307 -7 -311 q -97 -297 -71 -303 l -97 -93 q -56 -103 -78 -98 q -9 -107 -35 -107 q 56 -89 33 -107 q 90 -33 80 -71 q 100 70 100 6 l 100 991 l 351 991 l 351 87 q 312 -150 351 -62 q 200 -274 273 -237 q 30 -311 128 -311 m 345 1288 q 389 1221 363 1257 q 443 1151 415 1185 q 497 1085 471 1116 l 497 1065 l 342 1065 q 286 1109 313 1084 q 226 1167 258 1135 q 166 1109 193 1134 q 113 1065 140 1084 l -45 1065 l -45 1085 q 7 1146 -22 1109 q 65 1222 37 1183 q 109 1288 93 1260 l 345 1288 z "},"ĵ":{"ha":410,"x_min":-66,"x_max":476,"o":"m 68 -334 q 0 -328 39 -334 q -62 -317 -39 -323 l -62 -118 q -25 -127 -42 -124 q 10 -130 -8 -130 q 62 -108 43 -130 q 81 -29 81 -85 l 81 768 l 326 768 l 326 -62 q 299 -200 326 -139 q 215 -298 272 -262 q 68 -334 158 -334 m 324 1064 q 369 997 343 1033 q 423 927 395 962 q 477 861 451 892 l 477 842 l 321 842 q 265 886 293 861 q 205 943 237 911 q 146 885 172 910 q 92 842 119 861 l -66 842 l -66 861 q -13 923 -43 886 q 45 998 17 960 q 89 1064 73 1036 l 324 1064 z "},"Ķ":{"ha":861,"x_min":95,"x_max":871,"o":"m 867 0 l 585 0 l 415 374 l 347 332 l 347 0 l 95 0 l 95 991 l 347 991 l 347 561 q 377 624 359 592 q 414 688 395 656 l 598 991 l 871 991 l 596 547 l 867 0 m 584 -85 l 584 -100 q 556 -171 571 -136 q 524 -239 541 -205 q 484 -307 506 -272 l 328 -307 l 328 -288 q 341 -224 335 -261 q 352 -149 347 -186 q 357 -85 356 -112 l 584 -85 z "},"ķ":{"ha":820,"x_min":81,"x_max":823,"o":"m 326 1055 l 326 638 q 323 534 326 589 q 314 431 321 479 l 319 431 q 354 491 334 458 q 389 547 373 524 l 542 768 l 810 768 l 574 441 l 823 0 l 548 0 l 402 277 l 326 217 l 326 0 l 81 0 l 81 1055 l 326 1055 m 547 -85 l 547 -100 q 519 -171 534 -136 q 486 -239 504 -205 q 446 -307 469 -272 l 291 -307 l 291 -288 q 304 -224 298 -261 q 314 -149 310 -186 q 319 -85 319 -112 l 547 -85 z "},"ĸ":{"ha":820,"x_min":81,"x_max":823,"o":"m 812 768 l 572 437 l 823 0 l 550 0 l 403 275 l 326 214 l 326 0 l 81 0 l 81 768 l 326 768 l 326 619 q 324 517 326 564 q 318 433 322 471 l 323 433 q 355 488 337 458 q 393 548 373 519 l 543 768 l 812 768 z "},"Ĺ":{"ha":701,"x_min":92,"x_max":667,"o":"m 95 0 l 95 991 l 347 991 l 347 210 l 667 210 l 667 0 l 95 0 m 507 1288 l 507 1274 q 457 1229 488 1255 q 392 1172 427 1202 q 323 1115 357 1143 q 262 1065 290 1086 l 92 1065 l 92 1085 q 141 1152 115 1116 q 192 1222 167 1187 q 235 1288 217 1257 l 507 1288 z "},"ĺ":{"ha":408,"x_min":77,"x_max":492,"o":"m 326 0 l 81 0 l 81 1055 l 326 1055 l 326 0 m 492 1351 l 492 1337 q 442 1292 473 1318 q 377 1235 412 1265 q 309 1178 342 1206 q 248 1128 275 1149 l 77 1128 l 77 1148 q 126 1215 100 1179 q 177 1285 152 1250 q 220 1351 202 1320 l 492 1351 z "},"Ļ":{"ha":701,"x_min":95,"x_max":667,"o":"m 95 0 l 95 991 l 347 991 l 347 210 l 667 210 l 667 0 l 95 0 m 507 -85 l 507 -100 q 479 -171 494 -136 q 447 -239 465 -205 q 407 -307 429 -272 l 252 -307 l 252 -288 q 264 -224 258 -261 q 275 -149 271 -186 q 280 -85 279 -112 l 507 -85 z "},"ļ":{"ha":408,"x_min":76,"x_max":332,"o":"m 326 0 l 81 0 l 81 1055 l 326 1055 l 326 0 m 332 -85 l 332 -100 q 304 -171 319 -136 q 271 -239 289 -205 q 231 -307 254 -272 l 76 -307 l 76 -288 q 89 -224 83 -261 q 99 -149 95 -186 q 104 -85 104 -112 l 332 -85 z "},"Ľ":{"ha":701,"x_min":95,"x_max":726,"o":"m 95 0 l 95 991 l 347 991 l 347 210 l 667 210 l 667 0 l 95 0 m 726 991 l 726 977 q 695 907 711 941 q 662 840 680 873 q 621 770 644 806 l 467 770 l 467 789 q 476 834 471 808 q 486 888 481 860 q 494 943 490 916 q 498 991 497 970 l 726 991 z "},"ľ":{"ha":408,"x_min":81,"x_max":629,"o":"m 326 0 l 81 0 l 81 1055 l 326 1055 l 326 0 m 629 1055 l 629 1040 q 598 971 614 1005 q 565 904 583 937 q 524 833 547 870 l 370 833 l 370 852 q 379 898 374 871 q 389 952 384 924 q 397 1007 393 980 q 401 1055 400 1034 l 629 1055 z "},"Ŀ":{"ha":701,"x_min":95,"x_max":690,"o":"m 95 0 l 95 991 l 347 991 l 347 210 l 667 210 l 667 0 l 95 0 m 560 665 q 655 638 620 665 q 690 547 690 611 q 654 457 690 484 q 560 430 618 430 q 466 457 501 430 q 430 547 430 484 q 465 638 430 612 q 560 665 500 665 z "},"ŀ":{"ha":568,"x_min":81,"x_max":618,"o":"m 326 0 l 81 0 l 81 1055 l 326 1055 l 326 0 m 488 646 q 583 619 548 646 q 618 528 618 592 q 583 438 618 465 q 488 411 547 411 q 394 438 429 411 q 358 528 358 465 q 393 619 358 593 q 488 646 428 646 z "},"Ł":{"ha":738,"x_min":-29,"x_max":702,"o":"m 130 0 l 130 328 l 74 293 l -29 446 l 130 555 l 130 991 l 382 991 l 382 726 l 498 807 l 603 656 l 382 500 l 382 210 l 702 210 l 702 0 l 130 0 z "},"ł":{"ha":513,"x_min":-30,"x_max":543,"o":"m 135 0 l 135 300 l 73 261 l -30 414 l 135 526 l 135 1055 l 380 1055 l 380 690 l 439 730 l 543 578 l 380 465 l 380 0 l 135 0 z "},"Ń":{"ha":1035,"x_min":95,"x_max":941,"o":"m 941 0 l 627 0 l 317 658 l 311 658 q 317 569 315 614 q 321 481 320 524 q 323 406 323 439 l 323 0 l 95 0 l 95 991 l 406 991 l 715 347 l 720 347 q 715 432 718 389 q 712 516 713 475 q 711 588 711 556 l 711 991 l 941 991 l 941 0 m 805 1288 l 805 1274 q 755 1229 786 1255 q 690 1172 725 1202 q 622 1115 656 1143 q 561 1065 588 1086 l 390 1065 l 390 1085 q 439 1152 413 1116 q 490 1222 465 1187 q 534 1288 515 1257 l 805 1288 z "},"ń":{"ha":833,"x_min":81,"x_max":754,"o":"m 514 782 q 689 711 623 782 q 754 500 754 641 l 754 0 l 509 0 l 509 424 q 492 539 509 500 q 429 578 475 578 q 347 522 368 578 q 326 344 326 467 l 326 0 l 81 0 l 81 768 l 269 768 l 299 670 l 311 670 q 361 732 332 707 q 428 769 390 757 q 514 782 467 782 m 711 1064 l 711 1050 q 661 1005 692 1031 q 596 948 631 978 q 528 891 562 919 q 467 842 494 863 l 296 842 l 296 861 q 345 928 319 892 q 396 998 371 963 q 439 1064 421 1034 l 711 1064 z "},"Ņ":{"ha":1035,"x_min":95,"x_max":941,"o":"m 941 0 l 627 0 l 317 658 l 311 658 q 317 569 315 614 q 321 481 320 524 q 323 406 323 439 l 323 0 l 95 0 l 95 991 l 406 991 l 715 347 l 720 347 q 715 432 718 389 q 712 516 713 475 q 711 588 711 556 l 711 991 l 941 991 l 941 0 m 645 -85 l 645 -100 q 617 -171 632 -136 q 585 -239 602 -205 q 545 -307 567 -272 l 389 -307 l 389 -288 q 402 -224 396 -261 q 413 -149 408 -186 q 418 -85 417 -112 l 645 -85 z "},"ņ":{"ha":833,"x_min":81,"x_max":754,"o":"m 514 782 q 689 711 623 782 q 754 500 754 641 l 754 0 l 509 0 l 509 424 q 492 539 509 500 q 429 578 475 578 q 347 522 368 578 q 326 344 326 467 l 326 0 l 81 0 l 81 768 l 269 768 l 299 670 l 311 670 q 361 732 332 707 q 428 769 390 757 q 514 782 467 782 m 544 -85 l 544 -100 q 516 -171 531 -136 q 484 -239 501 -205 q 444 -307 466 -272 l 288 -307 l 288 -288 q 301 -224 295 -261 q 312 -149 307 -186 q 317 -85 316 -112 l 544 -85 z "},"Ň":{"ha":1035,"x_min":95,"x_max":941,"o":"m 941 0 l 627 0 l 317 658 l 311 658 q 317 569 315 614 q 321 481 320 524 q 323 406 323 439 l 323 0 l 95 0 l 95 991 l 406 991 l 715 347 l 720 347 q 715 432 718 389 q 712 516 713 475 q 711 588 711 556 l 711 991 l 941 991 l 941 0 m 402 1065 q 358 1132 386 1094 q 300 1207 330 1171 q 248 1268 270 1244 l 248 1288 l 406 1288 q 460 1243 434 1267 q 519 1186 487 1219 q 578 1244 551 1219 q 635 1288 606 1269 l 790 1288 l 790 1268 q 740 1207 769 1243 q 683 1133 711 1171 q 637 1065 656 1095 l 402 1065 z "},"ň":{"ha":833,"x_min":81,"x_max":754,"o":"m 514 782 q 689 711 623 782 q 754 500 754 641 l 754 0 l 509 0 l 509 424 q 492 539 509 500 q 429 578 475 578 q 347 522 368 578 q 326 344 326 467 l 326 0 l 81 0 l 81 768 l 269 768 l 299 670 l 311 670 q 361 732 332 707 q 428 769 390 757 q 514 782 467 782 m 309 842 q 264 908 292 870 q 206 984 236 947 q 154 1044 176 1021 l 154 1064 l 312 1064 q 367 1020 340 1044 q 425 962 393 996 q 485 1020 457 996 q 541 1064 513 1045 l 696 1064 l 696 1044 q 646 983 675 1019 q 590 909 617 947 q 544 842 562 871 l 309 842 z "},"ŉ":{"ha":1048,"x_min":1,"x_max":969,"o":"m 729 782 q 904 711 838 782 q 969 500 969 641 l 969 0 l 724 0 l 724 424 q 707 539 724 500 q 644 578 690 578 q 562 522 583 578 q 541 344 541 467 l 541 0 l 296 0 l 296 768 l 484 768 l 514 670 l 526 670 q 576 732 547 707 q 643 769 605 757 q 729 782 682 782 m 286 991 l 294 976 q 267 844 283 913 q 231 711 250 775 q 189 595 211 647 l 2 595 q 20 690 11 637 q 36 797 28 742 q 51 902 44 852 q 60 991 57 953 l 286 991 z "},"Ŋ":{"ha":1035,"x_min":95,"x_max":941,"o":"m 626 -321 q 552 -317 586 -321 q 492 -307 519 -313 l 492 -102 q 537 -113 514 -109 q 589 -117 561 -117 q 660 -103 633 -117 q 702 -63 688 -90 q 717 3 715 -36 l 316 674 l 311 674 q 317 587 315 633 q 321 494 319 541 q 322 408 322 448 l 322 0 l 95 0 l 95 991 l 393 991 l 715 454 l 720 454 q 715 539 718 492 q 712 633 713 586 q 711 718 711 680 l 711 991 l 941 991 l 941 24 q 904 -167 941 -90 q 797 -283 867 -244 q 626 -321 726 -321 z "},"ŋ":{"ha":833,"x_min":81,"x_max":754,"o":"m 498 -334 q 433 -329 469 -334 q 369 -317 397 -324 l 369 -118 q 405 -127 389 -124 q 439 -130 421 -130 q 490 -107 471 -130 q 509 -26 509 -84 l 509 436 q 490 542 509 506 q 433 578 472 578 q 370 556 393 578 q 336 483 347 534 q 326 344 326 431 l 326 0 l 81 0 l 81 768 l 269 768 l 298 673 l 313 673 q 364 735 334 711 q 433 771 395 760 q 515 782 472 782 q 639 751 585 782 q 724 657 693 720 q 754 500 754 594 l 754 -62 q 729 -194 754 -132 q 648 -295 704 -256 q 498 -334 591 -334 z "},"Ō":{"ha":985,"x_min":62,"x_max":922,"o":"m 922 497 q 896 283 922 378 q 817 122 870 189 q 683 21 764 56 q 492 -14 602 -14 q 303 21 385 -14 q 169 122 222 56 q 89 283 115 189 q 62 498 62 378 q 110 772 62 659 q 253 947 157 886 q 493 1007 349 1007 q 734 947 640 1007 q 876 772 829 886 q 922 497 922 659 m 326 497 q 344 336 326 402 q 398 236 361 270 q 492 201 435 201 q 588 235 552 201 q 641 335 625 269 q 658 497 658 401 q 619 720 658 643 q 493 796 581 796 q 398 761 435 796 q 344 660 361 726 q 326 497 326 593 m 722 1236 l 722 1076 l 269 1076 l 269 1236 l 722 1236 z "},"ō":{"ha":801,"x_min":52,"x_max":748,"o":"m 748 386 q 727 228 748 301 q 663 101 706 155 q 553 17 619 47 q 399 -14 488 -14 q 252 16 316 -14 q 143 100 188 46 q 75 227 98 154 q 52 386 52 300 q 91 594 52 505 q 208 732 130 683 q 402 782 286 782 q 582 736 504 782 q 704 602 660 690 q 748 386 748 513 m 300 385 q 310 272 300 317 q 343 202 321 226 q 401 178 365 178 q 459 202 437 178 q 490 272 480 225 q 499 386 499 318 q 490 499 499 454 q 458 567 480 545 q 400 590 437 590 q 323 539 347 590 q 300 385 300 488 m 629 1012 l 629 852 l 176 852 l 176 1012 l 629 1012 z "},"Ŏ":{"ha":985,"x_min":62,"x_max":922,"o":"m 922 497 q 896 283 922 378 q 817 122 870 189 q 683 21 764 56 q 492 -14 602 -14 q 303 21 385 -14 q 169 122 222 56 q 89 283 115 189 q 62 498 62 378 q 110 772 62 659 q 253 947 157 886 q 493 1007 349 1007 q 734 947 640 1007 q 876 772 829 886 q 922 497 922 659 m 326 497 q 344 336 326 402 q 398 236 361 270 q 492 201 435 201 q 588 235 552 201 q 641 335 625 269 q 658 497 658 401 q 619 720 658 643 q 493 796 581 796 q 398 761 435 796 q 344 660 361 726 q 326 497 326 593 m 743 1317 q 709 1184 741 1241 q 622 1097 677 1128 q 494 1065 566 1065 q 315 1131 379 1065 q 248 1317 250 1197 l 385 1317 q 404 1261 391 1281 q 438 1233 416 1241 q 494 1225 460 1225 q 545 1233 522 1225 q 583 1261 568 1241 q 603 1317 597 1282 l 743 1317 z "},"ŏ":{"ha":801,"x_min":52,"x_max":748,"o":"m 748 386 q 727 228 748 301 q 663 101 706 155 q 553 17 619 47 q 399 -14 488 -14 q 252 16 316 -14 q 143 100 188 46 q 75 227 98 154 q 52 386 52 300 q 91 594 52 505 q 208 732 130 683 q 402 782 286 782 q 582 736 504 782 q 704 602 660 690 q 748 386 748 513 m 300 385 q 310 272 300 317 q 343 202 321 226 q 401 178 365 178 q 459 202 437 178 q 490 272 480 225 q 499 386 499 318 q 490 499 499 454 q 458 567 480 545 q 400 590 437 590 q 323 539 347 590 q 300 385 300 488 m 650 1093 q 616 961 648 1017 q 529 873 585 904 q 401 842 474 842 q 222 907 287 842 q 155 1093 158 973 l 293 1093 q 312 1037 299 1057 q 346 1009 324 1017 q 401 1001 368 1001 q 453 1009 430 1001 q 490 1038 475 1017 q 511 1093 505 1058 l 650 1093 z "},"Ő":{"ha":985,"x_min":62,"x_max":922,"o":"m 922 497 q 896 283 922 378 q 817 122 870 189 q 683 21 764 56 q 492 -14 602 -14 q 303 21 385 -14 q 169 122 222 56 q 89 283 115 189 q 62 498 62 378 q 110 772 62 659 q 253 947 157 886 q 493 1007 349 1007 q 734 947 640 1007 q 876 772 829 886 q 922 497 922 659 m 326 497 q 344 336 326 402 q 398 236 361 270 q 492 201 435 201 q 588 235 552 201 q 641 335 625 269 q 658 497 658 401 q 619 720 658 643 q 493 796 581 796 q 398 761 435 796 q 344 660 361 726 q 326 497 326 593 m 879 1288 l 879 1274 q 844 1227 869 1255 q 785 1171 818 1200 q 718 1113 751 1141 q 659 1065 684 1086 l 532 1065 l 532 1085 q 577 1161 555 1124 q 620 1231 600 1198 q 651 1288 640 1264 l 879 1288 m 597 1288 l 597 1274 q 562 1227 587 1254 q 504 1171 536 1200 q 436 1114 471 1142 q 374 1065 402 1086 l 252 1065 l 252 1085 q 297 1161 275 1124 q 339 1232 319 1199 q 371 1288 359 1264 l 597 1288 z "},"ő":{"ha":801,"x_min":52,"x_max":786,"o":"m 748 386 q 727 228 748 301 q 663 101 706 155 q 553 17 619 47 q 399 -14 488 -14 q 252 16 316 -14 q 143 100 188 46 q 75 227 98 154 q 52 386 52 300 q 91 594 52 505 q 208 732 130 683 q 402 782 286 782 q 582 736 504 782 q 704 602 660 690 q 748 386 748 513 m 300 385 q 310 272 300 317 q 343 202 321 226 q 401 178 365 178 q 459 202 437 178 q 490 272 480 225 q 499 386 499 318 q 490 499 499 454 q 458 567 480 545 q 400 590 437 590 q 323 539 347 590 q 300 385 300 488 m 787 1064 l 787 1050 q 751 1004 777 1031 q 692 947 726 977 q 626 889 659 917 q 566 842 592 862 l 440 842 l 440 861 q 485 937 463 900 q 528 1007 508 975 q 559 1064 547 1040 l 787 1064 m 505 1064 l 505 1050 q 470 1003 495 1030 q 411 947 444 977 q 344 890 378 918 q 282 842 310 863 l 160 842 l 160 861 q 205 938 182 900 q 247 1008 227 975 q 279 1064 267 1040 l 505 1064 z "},"Œ":{"ha":1185,"x_min":62,"x_max":1124,"o":"m 471 1007 q 543 1003 505 1007 q 606 991 581 999 l 1124 991 l 1124 784 l 844 784 l 844 616 l 1103 616 l 1103 409 l 844 409 l 844 211 l 1124 211 l 1124 0 l 603 0 q 542 -10 579 -6 q 471 -14 505 -14 q 242 52 333 -14 q 107 233 151 117 q 62 498 62 349 q 107 764 62 650 q 241 943 151 879 q 471 1007 332 1007 m 480 796 q 413 777 441 796 q 365 719 384 757 q 336 625 345 680 q 326 497 326 569 q 343 336 326 402 q 394 236 360 270 q 479 201 428 201 q 544 207 513 201 q 595 221 574 212 l 595 770 q 545 789 575 782 q 480 796 514 796 z "},"œ":{"ha":1212,"x_min":52,"x_max":1163,"o":"m 854 781 q 1019 742 949 781 q 1125 624 1088 702 q 1163 430 1163 545 l 1163 313 l 745 313 q 784 208 747 246 q 897 170 821 170 q 1006 183 951 170 q 1120 229 1061 197 l 1120 42 q 1008 0 1067 13 q 867 -14 949 -14 q 736 8 794 -14 q 633 75 677 30 q 532 9 591 31 q 399 -14 473 -14 q 214 36 292 -14 q 94 175 136 85 q 52 386 52 265 q 92 596 52 507 q 210 733 132 685 q 402 782 288 782 q 526 761 470 782 q 625 699 583 741 q 686 744 652 726 q 762 772 720 762 q 854 781 804 781 m 400 590 q 324 539 347 590 q 300 385 300 488 q 311 272 300 317 q 343 202 321 226 q 401 178 365 178 q 459 202 437 178 q 490 272 480 225 q 499 386 499 318 q 490 499 499 454 q 458 567 480 545 q 400 590 437 590 m 847 604 q 777 575 805 604 q 747 475 749 547 l 941 475 q 929 545 941 516 q 897 589 918 574 q 847 604 876 604 z "},"Ŕ":{"ha":848,"x_min":95,"x_max":861,"o":"m 390 991 q 598 959 515 991 q 723 861 681 926 q 764 699 764 796 q 747 590 764 640 q 695 502 729 541 q 612 432 661 463 l 861 0 l 578 0 l 396 367 l 347 367 l 347 0 l 95 0 l 95 991 l 390 991 m 387 791 l 347 791 l 347 559 l 385 559 q 474 589 441 559 q 507 686 507 618 q 478 765 507 738 q 387 791 449 791 m 718 1288 l 718 1274 q 668 1229 699 1255 q 603 1172 637 1202 q 534 1115 568 1143 q 473 1065 500 1086 l 302 1065 l 302 1085 q 352 1152 326 1116 q 403 1222 378 1187 q 446 1288 428 1257 l 718 1288 z "},"ŕ":{"ha":587,"x_min":81,"x_max":604,"o":"m 501 782 q 538 780 519 782 q 573 774 557 778 l 552 528 q 520 534 539 532 q 473 536 502 536 q 417 529 444 536 q 370 504 391 522 q 338 457 350 487 q 326 382 326 427 l 326 0 l 81 0 l 81 768 l 266 768 l 303 646 l 315 646 q 360 711 332 680 q 424 762 388 743 q 501 782 460 782 m 604 1064 l 604 1050 q 555 1005 585 1031 q 490 948 524 978 q 421 891 455 919 q 360 842 387 863 l 189 842 l 189 861 q 238 928 212 892 q 290 998 264 963 q 333 1064 315 1034 l 604 1064 z "},"Ŗ":{"ha":848,"x_min":95,"x_max":861,"o":"m 390 991 q 598 959 515 991 q 723 861 681 926 q 764 699 764 796 q 747 590 764 640 q 695 502 729 541 q 612 432 661 463 l 861 0 l 578 0 l 396 367 l 347 367 l 347 0 l 95 0 l 95 991 l 390 991 m 387 791 l 347 791 l 347 559 l 385 559 q 474 589 441 559 q 507 686 507 618 q 478 765 507 738 q 387 791 449 791 m 570 -85 l 570 -100 q 542 -171 557 -136 q 509 -239 527 -205 q 469 -307 492 -272 l 314 -307 l 314 -288 q 327 -224 321 -261 q 337 -149 333 -186 q 342 -85 342 -112 l 570 -85 z "},"ŗ":{"ha":587,"x_min":81,"x_max":573,"o":"m 501 782 q 538 780 519 782 q 573 774 557 778 l 552 528 q 520 534 539 532 q 473 536 502 536 q 417 529 444 536 q 370 504 391 522 q 338 457 350 487 q 326 382 326 427 l 326 0 l 81 0 l 81 768 l 266 768 l 303 646 l 315 646 q 360 711 332 680 q 424 762 388 743 q 501 782 460 782 m 338 -85 l 338 -100 q 311 -171 326 -136 q 278 -239 296 -205 q 238 -307 260 -272 l 83 -307 l 83 -288 q 96 -224 90 -261 q 106 -149 102 -186 q 111 -85 111 -112 l 338 -85 z "},"Ř":{"ha":848,"x_min":95,"x_max":861,"o":"m 390 991 q 598 959 515 991 q 723 861 681 926 q 764 699 764 796 q 747 590 764 640 q 695 502 729 541 q 612 432 661 463 l 861 0 l 578 0 l 396 367 l 347 367 l 347 0 l 95 0 l 95 991 l 390 991 m 387 791 l 347 791 l 347 559 l 385 559 q 474 589 441 559 q 507 686 507 618 q 478 765 507 738 q 387 791 449 791 m 315 1065 q 270 1132 298 1094 q 212 1207 242 1171 q 160 1268 182 1244 l 160 1288 l 318 1288 q 373 1243 347 1267 q 431 1186 399 1219 q 491 1244 463 1219 q 547 1288 519 1269 l 703 1288 l 703 1268 q 652 1207 682 1243 q 596 1133 623 1171 q 550 1065 568 1095 l 315 1065 z "},"ř":{"ha":587,"x_min":47,"x_max":589,"o":"m 501 782 q 538 780 519 782 q 573 774 557 778 l 552 528 q 520 534 539 532 q 473 536 502 536 q 417 529 444 536 q 370 504 391 522 q 338 457 350 487 q 326 382 326 427 l 326 0 l 81 0 l 81 768 l 266 768 l 303 646 l 315 646 q 360 711 332 680 q 424 762 388 743 q 501 782 460 782 m 201 842 q 157 908 185 870 q 99 984 129 947 q 47 1044 69 1021 l 47 1064 l 205 1064 q 260 1020 233 1044 q 318 962 286 996 q 378 1020 350 996 q 434 1064 406 1045 l 589 1064 l 589 1044 q 539 983 568 1019 q 483 909 510 947 q 437 842 455 871 l 201 842 z "},"Ś":{"ha":716,"x_min":50,"x_max":676,"o":"m 676 301 q 636 143 676 215 q 519 29 597 72 q 326 -14 441 -14 q 225 -7 271 -14 q 137 12 179 -1 q 50 49 95 26 l 50 288 q 191 226 119 248 q 321 204 263 204 q 378 214 356 204 q 411 240 400 223 q 422 278 422 256 q 409 320 422 302 q 363 360 396 338 q 272 412 331 381 q 183 467 222 439 q 115 529 143 494 q 72 608 87 563 q 56 715 56 654 q 97 872 56 808 q 214 971 138 937 q 394 1006 290 1006 q 543 986 473 1006 q 676 935 613 966 l 604 728 q 493 775 546 759 q 395 791 440 791 q 346 783 365 791 q 318 760 327 774 q 309 728 309 746 q 322 685 309 703 q 371 645 336 666 q 470 589 406 623 q 582 515 536 554 q 652 425 628 476 q 676 301 676 373 m 656 1288 l 656 1274 q 607 1229 637 1255 q 542 1172 576 1202 q 473 1115 507 1143 q 412 1065 439 1086 l 241 1065 l 241 1085 q 291 1152 264 1116 q 342 1222 317 1187 q 385 1288 367 1257 l 656 1288 z "},"ś":{"ha":634,"x_min":47,"x_max":604,"o":"m 590 236 q 558 102 590 158 q 461 16 526 46 q 296 -14 396 -14 q 168 -4 227 -14 q 48 29 108 5 l 48 241 q 168 196 105 212 q 279 179 231 179 q 335 189 317 179 q 353 221 353 199 q 342 248 353 236 q 302 276 332 260 q 214 319 273 292 q 121 377 158 344 q 65 453 84 410 q 47 555 47 497 q 123 724 47 665 q 330 782 199 782 q 458 765 398 782 q 581 717 518 749 l 517 546 q 424 587 472 570 q 338 603 375 603 q 296 594 310 603 q 281 569 281 586 q 291 546 281 556 q 328 520 300 535 q 412 478 356 505 q 509 419 469 452 q 569 343 549 387 q 590 236 590 300 m 604 1064 l 604 1050 q 554 1005 585 1031 q 489 948 524 978 q 420 891 454 919 q 359 842 387 863 l 189 842 l 189 861 q 238 928 212 892 q 289 998 264 963 q 332 1064 314 1034 l 604 1064 z "},"Ŝ":{"ha":716,"x_min":50,"x_max":676,"o":"m 676 301 q 636 143 676 215 q 519 29 597 72 q 326 -14 441 -14 q 225 -7 271 -14 q 137 12 179 -1 q 50 49 95 26 l 50 288 q 191 226 119 248 q 321 204 263 204 q 378 214 356 204 q 411 240 400 223 q 422 278 422 256 q 409 320 422 302 q 363 360 396 338 q 272 412 331 381 q 183 467 222 439 q 115 529 143 494 q 72 608 87 563 q 56 715 56 654 q 97 872 56 808 q 214 971 138 937 q 394 1006 290 1006 q 543 986 473 1006 q 676 935 613 966 l 604 728 q 493 775 546 759 q 395 791 440 791 q 346 783 365 791 q 318 760 327 774 q 309 728 309 746 q 322 685 309 703 q 371 645 336 666 q 470 589 406 623 q 582 515 536 554 q 652 425 628 476 q 676 301 676 373 m 489 1288 q 534 1221 508 1257 q 588 1151 559 1185 q 642 1085 616 1116 l 642 1065 l 486 1065 q 430 1109 458 1084 q 370 1167 402 1135 q 311 1109 337 1134 q 257 1065 284 1084 l 99 1065 l 99 1085 q 152 1146 122 1109 q 210 1222 182 1183 q 254 1288 237 1260 l 489 1288 z "},"ŝ":{"ha":634,"x_min":46,"x_max":590,"o":"m 590 236 q 558 102 590 158 q 461 16 526 46 q 296 -14 396 -14 q 168 -4 227 -14 q 48 29 108 5 l 48 241 q 168 196 105 212 q 279 179 231 179 q 335 189 317 179 q 353 221 353 199 q 342 248 353 236 q 302 276 332 260 q 214 319 273 292 q 121 377 158 344 q 65 453 84 410 q 47 555 47 497 q 123 724 47 665 q 330 782 199 782 q 458 765 398 782 q 581 717 518 749 l 517 546 q 424 587 472 570 q 338 603 375 603 q 296 594 310 603 q 281 569 281 586 q 291 546 281 556 q 328 520 300 535 q 412 478 356 505 q 509 419 469 452 q 569 343 549 387 q 590 236 590 300 m 436 1064 q 481 997 455 1033 q 535 927 507 962 q 589 861 563 892 l 589 842 l 433 842 q 377 886 405 861 q 317 943 349 911 q 258 885 284 910 q 204 842 231 861 l 46 842 l 46 861 q 99 923 69 886 q 157 998 129 960 q 201 1064 184 1036 l 436 1064 z "},"Ş":{"ha":716,"x_min":50,"x_max":676,"o":"m 676 301 q 636 143 676 215 q 519 29 597 72 q 326 -14 441 -14 q 225 -7 271 -14 q 137 12 179 -1 q 50 49 95 26 l 50 288 q 191 226 119 248 q 321 204 263 204 q 378 214 356 204 q 411 240 400 223 q 422 278 422 256 q 409 320 422 302 q 363 360 396 338 q 272 412 331 381 q 183 467 222 439 q 115 529 143 494 q 72 608 87 563 q 56 715 56 654 q 97 872 56 808 q 214 971 138 937 q 394 1006 290 1006 q 543 986 473 1006 q 676 935 613 966 l 604 728 q 493 775 546 759 q 395 791 440 791 q 346 783 365 791 q 318 760 327 774 q 309 728 309 746 q 322 685 309 703 q 371 645 336 666 q 470 589 406 623 q 582 515 536 554 q 652 425 628 476 q 676 301 676 373 m 503 -173 q 455 -290 503 -246 q 321 -334 407 -334 q 245 -328 280 -334 q 186 -315 211 -323 l 186 -187 q 229 -197 209 -193 q 269 -201 250 -201 q 309 -191 294 -201 q 323 -161 323 -180 q 299 -124 323 -138 q 228 -104 275 -111 l 272 0 l 391 0 l 374 -44 q 438 -65 409 -50 q 485 -107 467 -81 q 503 -173 503 -133 z "},"ş":{"ha":634,"x_min":47,"x_max":590,"o":"m 590 236 q 558 102 590 158 q 461 16 526 46 q 296 -14 396 -14 q 168 -4 227 -14 q 48 29 108 5 l 48 241 q 168 196 105 212 q 279 179 231 179 q 335 189 317 179 q 353 221 353 199 q 342 248 353 236 q 302 276 332 260 q 214 319 273 292 q 121 377 158 344 q 65 453 84 410 q 47 555 47 497 q 123 724 47 665 q 330 782 199 782 q 458 765 398 782 q 581 717 518 749 l 517 546 q 424 587 472 570 q 338 603 375 603 q 296 594 310 603 q 281 569 281 586 q 291 546 281 556 q 328 520 300 535 q 412 478 356 505 q 509 419 469 452 q 569 343 549 387 q 590 236 590 300 m 456 -173 q 408 -290 456 -246 q 274 -334 360 -334 q 199 -328 233 -334 q 139 -315 164 -323 l 139 -187 q 182 -197 162 -193 q 222 -201 203 -201 q 262 -191 248 -201 q 276 -161 276 -180 q 252 -124 276 -138 q 181 -104 229 -111 l 225 0 l 344 0 l 328 -44 q 391 -65 362 -50 q 438 -107 420 -81 q 456 -173 456 -133 z "},"Š":{"ha":716,"x_min":50,"x_max":676,"o":"m 676 301 q 636 143 676 215 q 519 29 597 72 q 326 -14 441 -14 q 225 -7 271 -14 q 137 12 179 -1 q 50 49 95 26 l 50 288 q 191 226 119 248 q 321 204 263 204 q 378 214 356 204 q 411 240 400 223 q 422 278 422 256 q 409 320 422 302 q 363 360 396 338 q 272 412 331 381 q 183 467 222 439 q 115 529 143 494 q 72 608 87 563 q 56 715 56 654 q 97 872 56 808 q 214 971 138 937 q 394 1006 290 1006 q 543 986 473 1006 q 676 935 613 966 l 604 728 q 493 775 546 759 q 395 791 440 791 q 346 783 365 791 q 318 760 327 774 q 309 728 309 746 q 322 685 309 703 q 371 645 336 666 q 470 589 406 623 q 582 515 536 554 q 652 425 628 476 q 676 301 676 373 m 254 1065 q 209 1132 237 1094 q 151 1207 181 1171 q 99 1268 121 1244 l 99 1288 l 257 1288 q 312 1243 286 1267 q 370 1186 338 1219 q 430 1244 402 1219 q 486 1288 458 1269 l 642 1288 l 642 1268 q 591 1207 621 1243 q 535 1133 562 1171 q 489 1065 507 1095 l 254 1065 z "},"š":{"ha":634,"x_min":46,"x_max":590,"o":"m 590 236 q 558 102 590 158 q 461 16 526 46 q 296 -14 396 -14 q 168 -4 227 -14 q 48 29 108 5 l 48 241 q 168 196 105 212 q 279 179 231 179 q 335 189 317 179 q 353 221 353 199 q 342 248 353 236 q 302 276 332 260 q 214 319 273 292 q 121 377 158 344 q 65 453 84 410 q 47 555 47 497 q 123 724 47 665 q 330 782 199 782 q 458 765 398 782 q 581 717 518 749 l 517 546 q 424 587 472 570 q 338 603 375 603 q 296 594 310 603 q 281 569 281 586 q 291 546 281 556 q 328 520 300 535 q 412 478 356 505 q 509 419 469 452 q 569 343 549 387 q 590 236 590 300 m 201 842 q 156 908 184 870 q 98 984 128 947 q 46 1044 68 1021 l 46 1064 l 204 1064 q 259 1020 233 1044 q 317 962 286 996 q 377 1020 349 996 q 433 1064 405 1045 l 589 1064 l 589 1044 q 538 983 568 1019 q 482 909 509 947 q 436 842 454 871 l 201 842 z "},"Ț":{"ha":730,"x_min":29,"x_max":701,"o":"m 491 0 l 240 0 l 240 780 l 29 780 l 29 991 l 701 991 l 701 780 l 491 780 l 491 0 m 492 -85 l 492 -100 q 465 -171 479 -136 q 432 -239 450 -205 q 392 -307 414 -272 l 237 -307 l 237 -288 q 250 -224 243 -261 q 260 -149 256 -186 q 265 -85 264 -112 l 492 -85 z "},"ț":{"ha":566,"x_min":23,"x_max":532,"o":"m 418 189 q 474 196 447 189 q 532 215 501 203 l 532 29 q 446 -2 491 9 q 340 -14 401 -14 q 213 13 265 -14 q 135 97 161 39 q 109 253 109 156 l 109 576 l 23 576 l 23 690 l 131 761 l 191 922 l 355 922 l 355 768 l 521 768 l 521 576 l 355 576 l 355 263 q 371 207 355 226 q 418 189 387 189 m 455 -85 l 455 -100 q 427 -171 442 -136 q 395 -239 412 -205 q 355 -307 377 -272 l 199 -307 l 199 -288 q 212 -224 206 -261 q 223 -149 218 -186 q 228 -85 227 -112 l 455 -85 z "},"Ť":{"ha":730,"x_min":29,"x_max":701,"o":"m 491 0 l 240 0 l 240 780 l 29 780 l 29 991 l 701 991 l 701 780 l 491 780 l 491 0 m 250 1065 q 206 1132 234 1094 q 148 1207 178 1171 q 96 1268 118 1244 l 96 1288 l 254 1288 q 309 1243 282 1267 q 367 1186 335 1219 q 427 1244 399 1219 q 483 1288 454 1269 l 638 1288 l 638 1268 q 588 1207 617 1243 q 531 1133 559 1171 q 486 1065 504 1095 l 250 1065 z "},"ť":{"ha":566,"x_min":23,"x_max":794,"o":"m 418 189 q 474 196 447 189 q 532 215 501 203 l 532 29 q 446 -2 491 9 q 340 -14 401 -14 q 213 13 265 -14 q 135 97 161 39 q 109 253 109 156 l 109 576 l 23 576 l 23 690 l 131 761 l 191 922 l 355 922 l 355 768 l 521 768 l 521 576 l 355 576 l 355 263 q 371 207 355 226 q 418 189 387 189 m 794 1055 l 794 1040 q 764 971 779 1005 q 730 904 748 937 q 690 833 712 870 l 535 833 l 535 852 q 545 898 540 871 q 554 952 549 924 q 562 1007 559 980 q 567 1055 566 1034 l 794 1055 z "},"Ŧ":{"ha":730,"x_min":29,"x_max":701,"o":"m 240 0 l 240 383 l 113 383 l 113 580 l 240 580 l 240 780 l 29 780 l 29 991 l 701 991 l 701 780 l 491 780 l 491 580 l 619 580 l 619 383 l 491 383 l 491 0 l 240 0 z "},"ŧ":{"ha":579,"x_min":23,"x_max":532,"o":"m 34 304 l 34 465 l 501 465 l 501 304 l 34 304 m 418 189 q 474 196 447 189 q 532 215 501 203 l 532 29 q 446 -2 491 9 q 340 -14 401 -14 q 213 13 265 -14 q 135 97 161 39 q 109 253 109 156 l 109 576 l 23 576 l 23 690 l 131 761 l 191 922 l 355 922 l 355 768 l 521 768 l 521 576 l 355 576 l 355 263 q 371 207 355 226 q 418 189 387 189 z "},"Ũ":{"ha":934,"x_min":90,"x_max":846,"o":"m 846 991 l 846 366 q 803 161 846 246 q 675 31 760 76 q 464 -14 590 -14 q 186 82 283 -14 q 90 359 90 177 l 90 991 l 342 991 l 342 376 q 374 242 342 283 q 467 201 406 201 q 539 219 511 201 q 580 275 567 237 q 593 377 593 314 l 593 991 l 846 991 m 203 1063 q 213 1153 205 1111 q 239 1227 222 1195 q 283 1277 256 1259 q 350 1295 311 1295 q 406 1285 378 1295 q 460 1262 433 1275 q 514 1239 488 1249 q 565 1230 540 1230 q 591 1244 580 1230 q 609 1296 603 1259 l 730 1296 q 684 1121 725 1177 q 583 1064 643 1064 q 525 1074 554 1064 q 467 1097 495 1084 q 414 1119 439 1109 q 367 1129 389 1129 q 341 1117 355 1129 q 322 1063 328 1104 l 203 1063 z "},"ũ":{"ha":833,"x_min":79,"x_max":752,"o":"m 752 768 l 752 0 l 565 0 l 535 95 l 522 95 q 470 34 500 58 q 402 -2 440 9 q 319 -14 364 -14 q 194 18 248 -14 q 110 112 140 49 q 79 268 79 174 l 79 768 l 324 768 l 324 345 q 341 230 324 269 q 400 191 359 191 q 468 217 446 191 q 499 293 491 243 q 507 410 507 342 l 507 768 l 752 768 m 152 839 q 162 929 154 887 q 188 1003 171 971 q 232 1053 205 1035 q 299 1071 260 1071 q 355 1061 327 1071 q 410 1038 382 1051 q 463 1016 437 1025 q 514 1006 489 1006 q 541 1020 529 1006 q 558 1072 552 1035 l 679 1072 q 633 897 674 954 q 532 840 592 840 q 474 850 503 840 q 416 873 444 860 q 363 896 388 886 q 316 905 338 905 q 291 893 304 905 q 271 839 277 880 l 152 839 z "},"Ū":{"ha":934,"x_min":90,"x_max":846,"o":"m 846 991 l 846 366 q 803 161 846 246 q 675 31 760 76 q 464 -14 590 -14 q 186 82 283 -14 q 90 359 90 177 l 90 991 l 342 991 l 342 376 q 374 242 342 283 q 467 201 406 201 q 539 219 511 201 q 580 275 567 237 q 593 377 593 314 l 593 991 l 846 991 m 696 1236 l 696 1076 l 243 1076 l 243 1236 l 696 1236 z "},"ū":{"ha":833,"x_min":79,"x_max":752,"o":"m 752 768 l 752 0 l 565 0 l 535 95 l 522 95 q 470 34 500 58 q 402 -2 440 9 q 319 -14 364 -14 q 194 18 248 -14 q 110 112 140 49 q 79 268 79 174 l 79 768 l 324 768 l 324 345 q 341 230 324 269 q 400 191 359 191 q 468 217 446 191 q 499 293 491 243 q 507 410 507 342 l 507 768 l 752 768 m 646 1012 l 646 852 l 193 852 l 193 1012 l 646 1012 z "},"Ŭ":{"ha":934,"x_min":90,"x_max":846,"o":"m 846 991 l 846 366 q 803 161 846 246 q 675 31 760 76 q 464 -14 590 -14 q 186 82 283 -14 q 90 359 90 177 l 90 991 l 342 991 l 342 376 q 374 242 342 283 q 467 201 406 201 q 539 219 511 201 q 580 275 567 237 q 593 377 593 314 l 593 991 l 846 991 m 717 1317 q 683 1184 715 1241 q 596 1097 651 1128 q 468 1065 541 1065 q 289 1131 353 1065 q 222 1317 224 1197 l 359 1317 q 378 1261 366 1281 q 413 1233 391 1241 q 468 1225 435 1225 q 519 1233 496 1225 q 557 1261 542 1241 q 577 1317 572 1282 l 717 1317 z "},"ŭ":{"ha":833,"x_min":79,"x_max":752,"o":"m 752 768 l 752 0 l 565 0 l 535 95 l 522 95 q 470 34 500 58 q 402 -2 440 9 q 319 -14 364 -14 q 194 18 248 -14 q 110 112 140 49 q 79 268 79 174 l 79 768 l 324 768 l 324 345 q 341 230 324 269 q 400 191 359 191 q 468 217 446 191 q 499 293 491 243 q 507 410 507 342 l 507 768 l 752 768 m 666 1093 q 632 961 664 1017 q 545 873 600 904 q 417 842 490 842 q 238 907 302 842 q 171 1093 174 973 l 309 1093 q 327 1037 315 1057 q 362 1009 340 1017 q 417 1001 384 1001 q 468 1009 446 1001 q 506 1038 491 1017 q 526 1093 521 1058 l 666 1093 z "},"Ů":{"ha":934,"x_min":90,"x_max":846,"o":"m 846 991 l 846 366 q 803 161 846 246 q 675 31 760 76 q 464 -14 590 -14 q 186 82 283 -14 q 90 359 90 177 l 90 991 l 342 991 l 342 376 q 374 242 342 283 q 467 201 406 201 q 539 219 511 201 q 580 275 567 237 q 593 377 593 314 l 593 991 l 846 991 m 467 1063 q 340 1110 389 1063 q 292 1234 292 1157 q 340 1359 292 1312 q 467 1406 389 1406 q 595 1358 544 1406 q 646 1235 646 1311 q 595 1111 646 1159 q 467 1063 545 1063 m 467 1177 q 508 1193 491 1177 q 524 1234 524 1209 q 508 1276 524 1260 q 467 1291 491 1291 q 427 1276 444 1291 q 410 1234 410 1260 q 425 1193 410 1209 q 467 1177 439 1177 z "},"ů":{"ha":833,"x_min":79,"x_max":752,"o":"m 752 768 l 752 0 l 565 0 l 535 95 l 522 95 q 470 34 500 58 q 402 -2 440 9 q 319 -14 364 -14 q 194 18 248 -14 q 110 112 140 49 q 79 268 79 174 l 79 768 l 324 768 l 324 345 q 341 230 324 269 q 400 191 359 191 q 468 217 446 191 q 499 293 491 243 q 507 410 507 342 l 507 768 l 752 768 m 417 839 q 290 886 338 839 q 241 1010 241 933 q 290 1135 241 1088 q 417 1182 338 1182 q 545 1135 494 1182 q 595 1011 595 1087 q 545 887 595 935 q 417 839 494 839 m 417 954 q 457 969 441 954 q 474 1010 474 985 q 457 1052 474 1036 q 417 1067 441 1067 q 377 1052 393 1067 q 360 1010 360 1036 q 375 969 360 985 q 417 954 389 954 z "},"Ű":{"ha":934,"x_min":90,"x_max":853,"o":"m 846 991 l 846 366 q 803 161 846 246 q 675 31 760 76 q 464 -14 590 -14 q 186 82 283 -14 q 90 359 90 177 l 90 991 l 342 991 l 342 376 q 374 242 342 283 q 467 201 406 201 q 539 219 511 201 q 580 275 567 237 q 593 377 593 314 l 593 991 l 846 991 m 853 1288 l 853 1274 q 818 1227 844 1255 q 759 1171 792 1200 q 692 1113 726 1141 q 633 1065 659 1086 l 507 1065 l 507 1085 q 552 1161 529 1124 q 594 1231 574 1198 q 625 1288 614 1264 l 853 1288 m 572 1288 l 572 1274 q 536 1227 562 1254 q 478 1171 511 1200 q 411 1114 445 1142 q 349 1065 376 1086 l 227 1065 l 227 1085 q 271 1161 249 1124 q 313 1232 294 1199 q 345 1288 333 1264 l 572 1288 z "},"ű":{"ha":833,"x_min":79,"x_max":802,"o":"m 752 768 l 752 0 l 565 0 l 535 95 l 522 95 q 470 34 500 58 q 402 -2 440 9 q 319 -14 364 -14 q 194 18 248 -14 q 110 112 140 49 q 79 268 79 174 l 79 768 l 324 768 l 324 345 q 341 230 324 269 q 400 191 359 191 q 468 217 446 191 q 499 293 491 243 q 507 410 507 342 l 507 768 l 752 768 m 803 1064 l 803 1050 q 768 1004 793 1031 q 709 947 742 977 q 642 889 675 917 q 583 842 608 862 l 456 842 l 456 861 q 502 937 479 900 q 544 1007 524 975 q 575 1064 564 1040 l 803 1064 m 522 1064 l 522 1050 q 486 1003 511 1030 q 428 947 460 977 q 360 890 395 918 q 298 842 326 863 l 176 842 l 176 861 q 221 938 199 900 q 263 1008 243 975 q 295 1064 283 1040 l 522 1064 z "},"Ų":{"ha":934,"x_min":90,"x_max":846,"o":"m 614 -128 q 628 -169 614 -157 q 664 -180 642 -180 q 703 -176 680 -180 q 739 -165 726 -172 l 739 -315 q 684 -328 715 -323 q 620 -334 653 -334 q 490 -290 536 -334 q 443 -170 443 -247 q 455 -103 443 -137 q 496 -33 467 -69 q 575 41 525 3 l 750 90 q 674 4 705 42 q 629 -65 644 -33 q 614 -128 614 -96 m 846 991 l 846 366 q 803 161 846 246 q 675 31 760 76 q 464 -14 590 -14 q 186 82 283 -14 q 90 359 90 177 l 90 991 l 342 991 l 342 376 q 374 242 342 283 q 467 201 406 201 q 539 219 511 201 q 580 275 567 237 q 593 377 593 314 l 593 991 l 846 991 z "},"ų":{"ha":833,"x_min":79,"x_max":752,"o":"m 752 768 l 752 0 l 565 0 l 535 95 l 522 95 q 470 34 500 58 q 402 -2 440 9 q 319 -14 364 -14 q 194 18 248 -14 q 110 112 140 49 q 79 268 79 174 l 79 768 l 324 768 l 324 345 q 341 230 324 269 q 400 191 359 191 q 468 217 446 191 q 499 293 491 243 q 507 410 507 342 l 507 768 l 752 768 m 628 -132 q 643 -169 628 -156 q 683 -182 658 -182 q 720 -178 701 -182 q 750 -168 738 -174 l 750 -314 q 703 -327 730 -321 q 639 -334 675 -334 q 506 -292 555 -334 q 457 -178 457 -250 q 470 -113 457 -146 q 513 -44 482 -79 q 598 29 544 -8 l 708 0 q 646 -73 663 -45 q 628 -132 628 -101 z "},"Ŵ":{"ha":1284,"x_min":11,"x_max":1274,"o":"m 1274 991 l 1058 0 l 764 0 l 683 401 q 673 455 678 424 q 662 522 667 486 q 651 593 656 557 q 643 659 646 629 q 636 597 641 632 q 625 525 631 562 q 613 456 619 488 q 604 402 608 424 l 521 0 l 229 0 l 11 991 l 255 991 l 345 527 q 355 472 349 505 q 367 399 361 438 q 379 322 373 360 q 388 254 385 284 q 400 341 393 294 q 416 434 407 387 q 432 520 425 480 q 446 587 440 560 l 534 991 l 753 991 l 835 587 q 849 518 841 559 q 866 430 857 477 q 881 337 874 383 q 892 254 888 292 q 904 340 896 290 q 920 440 911 390 q 935 526 928 490 l 1027 991 l 1274 991 m 762 1288 q 807 1221 781 1257 q 861 1151 833 1185 q 915 1085 889 1116 l 915 1065 l 760 1065 q 703 1109 731 1084 q 644 1167 675 1135 q 584 1109 610 1134 q 530 1065 557 1084 l 372 1065 l 372 1085 q 425 1146 395 1109 q 483 1222 455 1183 q 527 1288 511 1260 l 762 1288 z "},"ŵ":{"ha":1143,"x_min":12,"x_max":1131,"o":"m 675 0 l 606 338 q 596 394 602 363 q 587 455 591 425 q 578 514 582 486 q 572 562 575 542 l 568 562 q 561 512 565 541 q 552 451 557 483 q 542 389 547 420 q 532 334 536 359 l 463 0 l 197 0 l 12 768 l 255 768 l 306 500 q 319 420 313 465 q 330 329 326 375 q 337 241 335 282 l 342 241 q 348 301 344 269 q 356 367 351 334 q 367 431 361 401 q 377 486 372 462 l 435 768 l 711 768 l 766 481 q 780 400 772 444 q 792 315 787 357 q 801 241 798 273 l 806 241 q 813 328 808 281 q 825 420 818 374 q 838 500 831 465 l 893 768 l 1131 768 l 945 0 l 675 0 m 692 1064 q 736 997 711 1033 q 790 927 762 962 q 844 861 819 892 l 844 842 l 689 842 q 633 886 661 861 q 573 943 605 911 q 513 885 540 910 q 460 842 487 861 l 302 842 l 302 861 q 355 923 325 886 q 412 998 385 960 q 456 1064 440 1036 l 692 1064 z "},"Ŷ":{"ha":827,"x_min":0,"x_max":827,"o":"m 414 627 l 560 991 l 827 991 l 540 384 l 540 0 l 287 0 l 287 376 l 0 991 l 269 991 l 414 627 m 533 1288 q 578 1221 552 1257 q 632 1151 604 1185 q 686 1085 660 1116 l 686 1065 l 530 1065 q 474 1109 502 1084 q 414 1167 446 1135 q 355 1109 381 1134 q 301 1065 328 1084 l 143 1065 l 143 1085 q 196 1146 166 1109 q 254 1222 226 1183 q 298 1288 281 1260 l 533 1288 z "},"ŷ":{"ha":765,"x_min":1,"x_max":763,"o":"m 1 768 l 258 768 l 364 381 q 372 346 368 365 q 378 309 376 327 q 382 275 381 291 l 387 275 q 395 326 390 300 q 407 379 399 351 l 511 768 l 763 768 l 495 -49 q 420 -211 463 -148 q 318 -304 378 -274 q 173 -334 258 -334 q 116 -330 141 -334 q 70 -322 91 -326 l 70 -119 q 102 -125 84 -123 q 139 -127 121 -127 q 197 -114 175 -127 q 234 -73 219 -101 q 264 1 250 -44 l 268 11 l 1 768 m 503 1064 q 547 997 522 1033 q 601 927 573 962 q 655 861 629 892 l 655 842 l 500 842 q 444 886 471 861 q 384 943 416 911 q 324 885 351 910 q 271 842 298 861 l 113 842 l 113 861 q 165 923 136 886 q 223 998 195 960 q 267 1064 251 1036 l 503 1064 z "},"Ÿ":{"ha":827,"x_min":0,"x_max":827,"o":"m 414 627 l 560 991 l 827 991 l 540 384 l 540 0 l 287 0 l 287 376 l 0 991 l 269 991 l 414 627 m 157 1182 q 187 1262 157 1236 q 264 1289 217 1289 q 342 1262 311 1289 q 373 1182 373 1234 q 342 1104 373 1132 q 264 1076 311 1076 q 187 1103 217 1076 q 157 1182 157 1131 m 453 1182 q 484 1262 453 1236 q 562 1289 514 1289 q 640 1262 610 1289 q 671 1182 671 1234 q 640 1104 671 1132 q 562 1076 610 1076 q 483 1104 513 1076 q 453 1182 453 1131 z "},"Ź":{"ha":751,"x_min":35,"x_max":720,"o":"m 720 0 l 35 0 l 35 165 l 416 783 l 44 783 l 44 991 l 710 991 l 710 827 l 330 210 l 720 210 l 720 0 m 670 1288 l 670 1274 q 621 1229 651 1255 q 555 1172 590 1202 q 487 1115 521 1143 q 426 1065 453 1086 l 255 1065 l 255 1085 q 304 1152 278 1116 q 355 1222 330 1187 q 399 1288 380 1257 l 670 1288 z "},"ź":{"ha":628,"x_min":28,"x_max":606,"o":"m 599 0 l 28 0 l 28 144 l 309 573 l 44 573 l 44 768 l 586 768 l 586 612 l 317 195 l 599 195 l 599 0 m 606 1064 l 606 1050 q 556 1005 587 1031 q 491 948 526 978 q 422 891 456 919 q 361 842 389 863 l 191 842 l 191 861 q 240 928 214 892 q 291 998 266 963 q 334 1064 316 1034 l 606 1064 z "},"Ż":{"ha":751,"x_min":35,"x_max":720,"o":"m 720 0 l 35 0 l 35 165 l 416 783 l 44 783 l 44 991 l 710 991 l 710 827 l 330 210 l 720 210 l 720 0 m 389 1301 q 484 1275 449 1301 q 519 1183 519 1248 q 484 1094 519 1120 q 389 1067 448 1067 q 295 1094 330 1067 q 259 1183 259 1120 q 294 1275 259 1249 q 389 1301 329 1301 z "},"ż":{"ha":628,"x_min":28,"x_max":599,"o":"m 599 0 l 28 0 l 28 144 l 309 573 l 44 573 l 44 768 l 586 768 l 586 612 l 317 195 l 599 195 l 599 0 m 325 1078 q 420 1051 385 1078 q 455 960 455 1024 q 419 870 455 897 q 325 843 383 843 q 230 870 266 843 q 195 960 195 897 q 230 1051 195 1025 q 325 1078 264 1078 z "},"Ž":{"ha":751,"x_min":35,"x_max":720,"o":"m 720 0 l 35 0 l 35 165 l 416 783 l 44 783 l 44 991 l 710 991 l 710 827 l 330 210 l 720 210 l 720 0 m 267 1065 q 223 1132 251 1094 q 165 1207 195 1171 q 113 1268 135 1244 l 113 1288 l 271 1288 q 326 1243 299 1267 q 384 1186 352 1219 q 444 1244 416 1219 q 500 1288 471 1269 l 655 1288 l 655 1268 q 605 1207 634 1243 q 548 1133 576 1171 q 503 1065 521 1095 l 267 1065 z "},"ž":{"ha":628,"x_min":28,"x_max":599,"o":"m 599 0 l 28 0 l 28 144 l 309 573 l 44 573 l 44 768 l 586 768 l 586 612 l 317 195 l 599 195 l 599 0 m 203 842 q 158 908 186 870 q 100 984 130 947 q 48 1044 71 1021 l 48 1064 l 206 1064 q 261 1020 235 1044 q 319 962 288 996 q 379 1020 351 996 q 435 1064 407 1045 l 591 1064 l 591 1044 q 541 983 570 1019 q 484 909 511 947 q 438 842 456 871 l 203 842 z "},"ſ":{"ha":498,"x_min":92,"x_max":533,"o":"m 396 873 q 350 852 362 873 q 338 784 338 830 l 338 0 l 92 0 l 92 777 q 121 950 92 888 q 206 1038 150 1013 q 341 1063 262 1063 q 445 1053 399 1063 q 533 1026 490 1044 l 486 856 q 442 868 464 863 q 396 873 420 873 z "},"ƒ":{"ha":680,"x_min":75,"x_max":633,"o":"m 438 1034 q 538 1025 490 1034 q 633 998 586 1016 l 587 828 q 544 839 565 835 q 503 843 524 843 q 460 823 473 843 q 447 755 447 802 l 447 738 l 596 738 l 596 546 l 447 546 l 447 -53 q 421 -209 447 -146 q 342 -303 395 -272 q 211 -334 290 -334 q 136 -328 172 -334 q 75 -314 100 -321 l 75 -121 q 112 -131 95 -127 q 149 -134 130 -134 q 189 -112 177 -134 q 201 -45 201 -90 l 201 546 l 109 546 l 109 671 l 204 734 l 204 755 q 229 918 204 857 q 306 1006 254 979 q 438 1034 358 1034 z "},"Ǻ":{"ha":902,"x_min":0,"x_max":903,"o":"m 0 0 l 283 941 q 277 969 279 954 q 275 999 275 983 q 323 1124 275 1076 q 450 1171 371 1171 q 577 1123 526 1171 q 629 1000 629 1076 q 626 968 629 984 q 618 939 624 953 l 903 0 l 630 0 l 585 190 l 319 190 l 275 0 l 0 0 m 366 402 l 539 402 l 497 577 q 481 647 490 607 q 464 728 472 688 q 452 795 456 768 q 443 747 448 774 q 432 691 438 720 q 420 632 426 661 q 408 578 414 604 l 366 402 m 450 943 q 491 959 474 943 q 507 1000 507 975 q 491 1041 507 1025 q 450 1057 474 1057 q 410 1041 427 1057 q 393 1000 393 1025 q 408 959 393 975 q 450 943 422 943 m 337 1214 l 337 1228 q 385 1275 366 1257 q 417 1306 404 1293 q 441 1335 430 1320 l 722 1335 l 722 1324 q 684 1298 709 1314 q 627 1266 658 1282 q 567 1236 595 1250 q 519 1214 538 1221 l 337 1214 z "},"ǻ":{"ha":776,"x_min":43,"x_max":697,"o":"m 418 782 q 623 712 549 782 q 697 504 697 642 l 697 0 l 524 0 l 480 102 l 475 102 q 416 37 447 62 q 346 -1 385 11 q 250 -14 306 -14 q 137 18 184 -14 q 67 106 91 50 q 43 237 43 163 q 117 421 43 363 q 338 485 191 480 l 452 489 l 452 505 q 431 576 452 553 q 369 599 409 599 q 281 584 330 599 q 179 542 233 569 l 112 713 q 250 764 173 747 q 418 782 326 782 m 453 343 l 401 340 q 316 313 342 338 q 290 244 290 288 q 307 187 290 205 q 355 170 324 170 q 425 200 396 170 q 453 279 453 231 l 453 343 m 396 1046 q 356 1030 372 1046 q 339 989 339 1015 q 354 948 339 964 q 396 932 368 932 q 436 948 420 932 q 453 989 453 964 q 436 1030 453 1015 q 396 1046 420 1046 m 396 1160 q 487 1139 446 1160 q 553 1079 528 1118 q 577 990 577 1041 q 526 866 577 914 q 396 818 474 818 q 269 865 317 818 q 220 989 220 913 q 269 1114 220 1067 q 396 1160 317 1160 m 653 1339 l 653 1331 q 600 1288 637 1314 q 524 1236 564 1261 q 461 1196 485 1211 l 280 1196 l 280 1208 q 328 1265 309 1242 q 361 1304 347 1287 q 385 1339 374 1322 l 653 1339 z "},"Ǽ":{"ha":1172,"x_min":-7,"x_max":1111,"o":"m 1111 0 l 578 0 l 578 190 l 334 190 l 273 0 l -7 0 l 359 991 l 1111 991 l 1111 784 l 829 784 l 829 616 l 1089 616 l 1089 409 l 829 409 l 829 211 l 1111 211 l 1111 0 m 401 402 l 578 402 l 578 779 l 523 779 l 401 402 m 911 1288 l 911 1274 q 861 1229 892 1255 q 796 1172 831 1202 q 728 1115 762 1143 q 667 1065 694 1086 l 496 1065 l 496 1085 q 545 1152 519 1116 q 596 1222 571 1187 q 640 1288 621 1257 l 911 1288 z "},"ǽ":{"ha":1153,"x_min":43,"x_max":1104,"o":"m 795 781 q 960 742 890 781 q 1066 624 1029 702 q 1104 430 1104 545 l 1104 313 l 686 313 q 725 208 688 246 q 838 170 762 170 q 947 183 892 170 q 1061 229 1002 197 l 1061 42 q 949 0 1008 13 q 808 -14 890 -14 q 702 0 753 -14 q 610 40 652 13 q 538 111 568 68 q 461 39 499 66 q 377 -1 423 12 q 267 -14 330 -14 q 148 18 198 -14 q 70 106 98 50 q 43 237 43 163 q 78 374 43 321 q 181 455 114 428 q 340 485 248 481 l 452 489 l 452 505 q 430 577 452 556 q 370 599 407 599 q 282 585 330 599 q 180 543 233 570 l 114 713 q 246 765 174 747 q 391 782 317 782 q 503 766 453 782 q 589 717 552 749 q 678 765 629 749 q 795 781 727 781 m 453 343 l 404 340 q 316 313 342 338 q 290 243 290 288 q 308 187 290 205 q 356 170 325 170 q 405 183 382 170 q 440 222 427 197 q 453 279 453 247 l 453 343 m 788 604 q 718 575 746 604 q 688 475 690 547 l 882 475 q 870 545 882 516 q 838 589 859 574 q 788 604 817 604 m 878 1064 l 878 1050 q 828 1005 859 1031 q 763 948 798 978 q 694 891 728 919 q 633 842 661 863 l 463 842 l 463 861 q 512 928 486 892 q 563 998 538 963 q 606 1064 588 1034 l 878 1064 z "},"Ǿ":{"ha":985,"x_min":62,"x_max":922,"o":"m 922 497 q 896 283 922 378 q 817 122 870 189 q 683 21 764 56 q 492 -14 602 -14 q 393 -6 439 -14 q 307 18 347 2 l 256 -74 l 136 -5 l 193 94 q 93 270 123 170 q 62 498 62 371 q 110 772 62 659 q 253 947 157 886 q 493 1007 349 1007 q 600 998 550 1007 q 690 970 649 989 l 735 1050 l 854 986 l 801 891 q 892 726 863 826 q 922 497 922 626 m 661 497 q 659 571 661 537 q 651 635 656 606 l 415 217 q 451 202 431 207 q 492 197 471 197 q 590 232 553 197 q 644 334 627 267 q 661 497 661 401 m 323 497 q 326 414 323 452 q 338 342 330 375 l 578 770 q 539 791 561 784 q 493 799 517 799 q 396 764 434 799 q 340 661 358 728 q 323 497 323 594 m 783 1288 l 783 1274 q 734 1229 764 1255 q 669 1172 703 1202 q 600 1115 634 1143 q 539 1065 566 1086 l 368 1065 l 368 1085 q 417 1152 391 1116 q 469 1222 444 1187 q 512 1288 494 1257 l 783 1288 z "},"ǿ":{"ha":821,"x_min":52,"x_max":768,"o":"m 768 386 q 725 171 768 260 q 602 34 682 81 q 408 -14 522 -14 q 336 -7 371 -14 q 271 9 302 -1 l 220 -79 l 109 -18 l 164 78 q 80 213 108 136 q 52 386 52 289 q 147 679 52 575 q 412 782 243 782 q 485 775 450 782 q 551 756 520 769 l 594 831 l 704 771 l 658 688 q 739 561 710 637 q 768 386 768 484 m 286 385 q 287 336 286 359 q 292 294 288 313 l 462 590 q 438 600 451 597 q 410 603 425 603 q 315 548 343 603 q 286 385 286 494 m 534 386 q 533 430 534 409 q 529 469 532 452 l 361 176 q 384 168 372 170 q 410 165 397 165 q 484 190 457 165 q 522 264 511 215 q 534 386 534 314 m 699 1064 l 699 1050 q 650 1005 680 1031 q 585 948 619 978 q 516 891 550 919 q 455 842 482 863 l 284 842 l 284 861 q 333 928 307 892 q 385 998 359 963 q 428 1064 410 1034 l 699 1064 z "},"Ș":{"ha":716,"x_min":50,"x_max":676,"o":"m 676 301 q 636 143 676 215 q 519 29 597 72 q 326 -14 441 -14 q 225 -7 271 -14 q 137 12 179 -1 q 50 49 95 26 l 50 288 q 191 226 119 248 q 321 204 263 204 q 378 214 356 204 q 411 240 400 223 q 422 278 422 256 q 409 320 422 302 q 363 360 396 338 q 272 412 331 381 q 183 467 222 439 q 115 529 143 494 q 72 608 87 563 q 56 715 56 654 q 97 872 56 808 q 214 971 138 937 q 394 1006 290 1006 q 543 986 473 1006 q 676 935 613 966 l 604 728 q 493 775 546 759 q 395 791 440 791 q 346 783 365 791 q 318 760 327 774 q 309 728 309 746 q 322 685 309 703 q 371 645 336 666 q 470 589 406 623 q 582 515 536 554 q 652 425 628 476 q 676 301 676 373 m 476 -85 l 476 -100 q 448 -171 463 -136 q 416 -239 433 -205 q 376 -307 398 -272 l 220 -307 l 220 -288 q 233 -224 227 -261 q 244 -149 239 -186 q 249 -85 248 -112 l 476 -85 z "},"ș":{"ha":634,"x_min":47,"x_max":590,"o":"m 590 236 q 558 102 590 158 q 461 16 526 46 q 296 -14 396 -14 q 168 -4 227 -14 q 48 29 108 5 l 48 241 q 168 196 105 212 q 279 179 231 179 q 335 189 317 179 q 353 221 353 199 q 342 248 353 236 q 302 276 332 260 q 214 319 273 292 q 121 377 158 344 q 65 453 84 410 q 47 555 47 497 q 123 724 47 665 q 330 782 199 782 q 458 765 398 782 q 581 717 518 749 l 517 546 q 424 587 472 570 q 338 603 375 603 q 296 594 310 603 q 281 569 281 586 q 291 546 281 556 q 328 520 300 535 q 412 478 356 505 q 509 419 469 452 q 569 343 549 387 q 590 236 590 300 m 429 -85 l 429 -100 q 401 -171 416 -136 q 369 -239 387 -205 q 329 -307 351 -272 l 174 -307 l 174 -288 q 186 -224 180 -261 q 197 -149 193 -186 q 202 -85 201 -112 l 429 -85 z "},"ˆ":{"ha":654,"x_min":56,"x_max":598,"o":"m 446 1064 q 490 997 465 1033 q 544 927 516 962 q 598 861 572 892 l 598 842 l 443 842 q 387 886 414 861 q 327 943 359 911 q 267 885 294 910 q 214 842 241 861 l 56 842 l 56 861 q 109 923 79 886 q 166 998 138 960 q 210 1064 194 1036 l 446 1064 z "},"ˇ":{"ha":654,"x_min":56,"x_max":598,"o":"m 210 842 q 166 908 194 870 q 108 984 138 947 q 56 1044 78 1021 l 56 1064 l 214 1064 q 269 1020 242 1044 q 327 962 295 996 q 387 1020 359 996 q 443 1064 414 1045 l 598 1064 l 598 1044 q 548 983 577 1019 q 491 909 519 947 q 446 842 464 871 l 210 842 z "},"ˉ":{"ha":564,"x_min":56,"x_max":509,"o":"m 509 1012 l 509 852 l 56 852 l 56 1012 l 509 1012 z "},"˘":{"ha":606,"x_min":56,"x_max":551,"o":"m 551 1093 q 517 961 549 1017 q 430 873 485 904 q 302 842 374 842 q 123 907 187 842 q 56 1093 58 973 l 193 1093 q 212 1037 199 1057 q 247 1009 224 1017 q 302 1001 269 1001 q 353 1009 330 1001 q 391 1038 376 1017 q 411 1093 406 1058 l 551 1093 z "},"˙":{"ha":372,"x_min":56,"x_max":316,"o":"m 186 1078 q 281 1051 245 1078 q 316 960 316 1024 q 280 870 316 897 q 186 843 244 843 q 91 870 127 843 q 56 960 56 897 q 91 1051 56 1025 q 186 1078 125 1078 z "},"˚":{"ha":465,"x_min":56,"x_max":410,"o":"m 231 839 q 104 886 153 839 q 56 1010 56 933 q 104 1135 56 1088 q 231 1182 153 1182 q 359 1135 308 1182 q 410 1011 410 1087 q 359 887 410 935 q 231 839 309 839 m 231 954 q 272 969 255 954 q 288 1010 288 985 q 272 1052 288 1036 q 231 1067 255 1067 q 191 1052 208 1067 q 174 1010 174 1036 q 189 969 174 985 q 231 954 203 954 z "},"˛":{"ha":404,"x_min":56,"x_max":349,"o":"m 227 -132 q 241 -169 227 -156 q 281 -182 256 -182 q 318 -178 300 -182 q 349 -168 336 -174 l 349 -314 q 301 -327 329 -321 q 237 -334 274 -334 q 105 -292 154 -334 q 56 -178 56 -250 q 68 -113 56 -146 q 112 -44 81 -79 q 197 29 142 -8 l 307 0 q 244 -73 262 -45 q 227 -132 227 -101 z "},"˜":{"ha":637,"x_min":56,"x_max":583,"o":"m 56 839 q 66 929 58 887 q 92 1003 75 971 q 136 1053 109 1035 q 203 1071 163 1071 q 258 1061 231 1071 q 313 1038 286 1051 q 367 1016 340 1025 q 418 1006 393 1006 q 444 1020 433 1006 q 462 1072 456 1035 l 583 1072 q 537 897 578 954 q 435 840 496 840 q 377 850 407 840 q 320 873 348 860 q 267 896 292 886 q 220 905 241 905 q 194 893 208 905 q 175 839 181 880 l 56 839 z "},"˝":{"ha":738,"x_min":56,"x_max":682,"o":"m 682 1064 l 682 1050 q 647 1004 673 1031 q 588 947 621 977 q 521 889 555 917 q 462 842 488 862 l 336 842 l 336 861 q 381 937 358 900 q 423 1007 404 975 q 454 1064 443 1040 l 682 1064 m 401 1064 l 401 1050 q 365 1003 391 1030 q 307 947 340 977 q 240 890 274 918 q 178 842 205 863 l 56 842 l 56 861 q 100 938 78 900 q 142 1008 123 975 q 174 1064 162 1040 l 401 1064 z "},"΄":{"ha":663,"x_min":238,"x_max":498,"o":"m 238 842 l 238 864 q 250 911 243 882 q 263 973 256 941 q 275 1035 269 1005 q 283 1084 280 1065 l 498 1084 l 498 1065 q 465 993 483 1029 q 427 919 447 956 q 383 842 407 882 l 238 842 z "},"΅":{"ha":692,"x_min":50,"x_max":642,"o":"m 487 1164 l 487 1150 q 461 1091 476 1122 q 426 1025 446 1060 q 383 952 406 991 l 272 952 l 272 972 q 282 1040 277 1005 q 291 1108 288 1076 q 295 1164 294 1140 l 487 1164 m 149 1065 q 221 1038 194 1065 q 249 958 249 1010 q 221 880 249 908 q 149 852 194 852 q 77 880 103 852 q 50 958 50 907 q 77 1039 50 1012 q 149 1065 103 1065 m 542 1067 q 615 1040 589 1067 q 642 958 642 1013 q 615 882 642 909 q 542 854 589 854 q 469 882 496 854 q 441 960 441 909 q 469 1040 441 1013 q 542 1067 496 1067 z "},"Ά":{"ha":948,"x_min":1,"x_max":948,"o":"m 675 0 l 633 190 l 364 190 l 321 0 l 45 0 l 328 994 l 663 994 l 949 0 l 675 0 m 587 401 l 545 593 q 529 667 538 625 q 511 752 519 709 q 498 825 503 794 q 485 754 493 795 q 469 671 477 713 q 452 595 460 629 l 410 401 l 587 401 m 1 806 l 1 829 q 12 876 5 847 q 25 938 19 905 q 37 1000 32 970 q 45 1048 43 1029 l 261 1048 l 261 1030 q 228 958 245 994 q 190 884 210 921 q 146 806 170 846 l 1 806 z "},"·":{"ha":391,"x_min":60,"x_max":330,"o":"m 60 648 q 98 747 60 715 q 197 779 136 779 q 293 747 256 779 q 330 648 330 715 q 292 551 330 583 q 197 519 255 519 q 99 551 138 519 q 60 648 60 583 z "},"Έ":{"ha":873,"x_min":-11,"x_max":812,"o":"m 813 0 l 280 0 l 280 991 l 813 991 l 813 784 l 532 784 l 532 616 l 792 616 l 792 409 l 532 409 l 532 211 l 813 211 l 813 0 m -10 798 l -10 821 q 1 868 -5 839 q 15 929 8 897 q 26 991 21 962 q 35 1040 32 1021 l 250 1040 l 250 1022 q 217 949 235 986 q 179 876 199 913 q 135 798 159 838 l -10 798 z "},"Ή":{"ha":1141,"x_min":-11,"x_max":1047,"o":"m 1048 0 l 795 0 l 795 409 l 534 409 l 534 0 l 282 0 l 282 991 l 534 991 l 534 621 l 795 621 l 795 991 l 1048 991 l 1048 0 m -10 798 l -10 821 q 1 868 -5 839 q 15 929 8 897 q 26 991 21 962 q 35 1040 32 1021 l 250 1040 l 250 1022 q 217 949 235 986 q 179 876 199 913 q 135 798 159 838 l -10 798 z "},"Ί":{"ha":637,"x_min":-11,"x_max":543,"o":"m 290 0 l 290 991 l 543 991 l 543 0 l 290 0 m -10 798 l -10 821 q 1 868 -5 839 q 15 929 8 897 q 26 991 21 962 q 35 1040 32 1021 l 250 1040 l 250 1022 q 217 949 235 986 q 179 876 199 913 q 135 798 159 838 l -10 798 z "},"Ό":{"ha":1080,"x_min":-11,"x_max":1017,"o":"m 1017 497 q 991 283 1017 378 q 912 122 965 189 q 778 21 859 56 q 587 -14 697 -14 q 398 21 479 -14 q 264 122 317 56 q 184 283 210 189 q 157 498 157 378 q 204 772 157 659 q 348 947 252 886 q 588 1007 444 1007 q 829 947 734 1007 q 970 772 924 886 q 1017 497 1017 659 m 421 497 q 439 336 421 402 q 493 236 456 270 q 587 201 530 201 q 683 235 647 201 q 736 335 720 269 q 753 497 753 401 q 714 720 753 643 q 588 796 675 796 q 493 761 530 796 q 439 660 456 726 q 421 497 421 593 m -10 798 l -10 821 q 1 868 -5 839 q 15 929 8 897 q 26 991 21 962 q 35 1040 32 1021 l 250 1040 l 250 1022 q 217 949 235 986 q 179 876 199 913 q 135 798 159 838 l -10 798 z "},"Ύ":{"ha":1088,"x_min":-11,"x_max":1088,"o":"m 676 627 l 822 991 l 1088 991 l 802 384 l 802 0 l 549 0 l 549 376 l 262 991 l 530 991 l 676 627 m -10 798 l -10 821 q 1 868 -5 839 q 15 929 8 897 q 26 991 21 962 q 35 1040 32 1021 l 250 1040 l 250 1022 q 217 949 235 986 q 179 876 199 913 q 135 798 159 838 l -10 798 z "},"Ώ":{"ha":1094,"x_min":-11,"x_max":1064,"o":"m 602 796 q 510 769 549 796 q 449 686 471 741 q 427 545 427 630 q 439 412 427 469 q 477 313 451 355 q 547 240 504 271 l 547 0 l 138 0 l 138 212 l 361 212 q 257 302 300 245 q 192 432 214 359 q 170 586 170 505 q 223 814 170 720 q 373 958 276 909 q 602 1007 469 1007 q 826 958 729 1007 q 977 816 922 909 q 1031 587 1031 722 q 1010 434 1031 505 q 945 306 989 362 q 836 212 902 250 l 1064 212 l 1064 0 l 652 0 l 652 240 q 725 315 698 272 q 764 416 752 358 q 775 548 775 473 q 753 687 775 632 q 693 769 732 743 q 602 796 654 796 m -10 798 l -10 821 q 1 868 -5 839 q 15 929 8 897 q 26 991 21 962 q 35 1040 32 1021 l 250 1040 l 250 1022 q 217 949 235 986 q 179 876 199 913 q 135 798 159 838 l -10 798 z "},"ΐ":{"ha":534,"x_min":-75,"x_max":517,"o":"m 325 768 l 325 256 q 344 203 325 218 q 391 188 363 188 q 449 195 422 188 q 509 217 475 202 l 509 29 q 426 -2 472 9 q 324 -14 380 -14 q 194 11 249 -14 q 110 93 139 35 q 80 248 80 150 l 80 768 l 325 768 m 361 1164 l 361 1150 q 335 1091 351 1122 q 300 1025 320 1060 q 258 952 281 991 l 146 952 l 146 972 q 157 1040 152 1005 q 165 1108 162 1076 q 170 1164 169 1140 l 361 1164 m 23 1065 q 96 1038 68 1065 q 123 958 123 1010 q 96 880 123 908 q 23 852 68 852 q -49 880 -22 852 q -75 958 -75 907 q -49 1039 -75 1012 q 23 1065 -22 1065 m 416 1067 q 490 1040 463 1067 q 517 958 517 1013 q 490 882 517 909 q 416 854 463 854 q 343 882 370 854 q 316 960 316 909 q 343 1040 316 1013 q 416 1067 370 1067 z "},"Α":{"ha":903,"x_min":0,"x_max":903,"o":"m 630 0 l 587 190 l 319 190 l 275 0 l 0 0 l 283 994 l 617 994 l 903 0 l 630 0 m 541 401 l 500 593 q 484 667 493 625 q 466 752 474 709 q 452 825 457 794 q 440 754 448 795 q 423 671 432 713 q 406 595 414 629 l 364 401 l 541 401 z "},"Β":{"ha":856,"x_min":95,"x_max":794,"o":"m 95 991 l 412 991 q 689 930 603 991 q 776 745 776 868 q 756 640 776 685 q 704 566 736 594 q 633 526 671 537 l 633 519 q 716 479 680 507 q 773 406 752 452 q 794 290 794 360 q 752 136 794 201 q 631 35 709 71 q 446 0 553 0 l 95 0 l 95 991 m 347 608 l 413 608 q 493 635 468 608 q 519 707 519 662 q 492 772 519 750 q 408 795 465 795 l 347 795 l 347 608 m 347 418 l 347 201 l 425 201 q 509 231 484 201 q 535 311 535 260 q 524 367 535 342 q 487 405 512 391 q 420 418 461 418 l 347 418 z "},"Γ":{"ha":708,"x_min":95,"x_max":682,"o":"m 682 991 l 682 781 l 347 781 l 347 0 l 95 0 l 95 991 l 682 991 z "},"Δ":{"ha":888,"x_min":20,"x_max":868,"o":"m 602 996 l 868 142 l 868 0 l 20 0 l 20 143 l 288 996 l 602 996 m 591 212 l 463 690 q 456 719 459 703 q 450 751 452 734 q 445 787 447 769 q 440 752 443 770 q 433 719 437 734 q 427 690 430 704 l 298 212 l 591 212 z "},"Ε":{"ha":689,"x_min":95,"x_max":628,"o":"m 628 0 l 95 0 l 95 991 l 628 991 l 628 784 l 347 784 l 347 616 l 607 616 l 607 409 l 347 409 l 347 211 l 628 211 l 628 0 z "},"Ζ":{"ha":751,"x_min":35,"x_max":720,"o":"m 720 0 l 35 0 l 35 165 l 416 783 l 44 783 l 44 991 l 710 991 l 710 827 l 330 210 l 720 210 l 720 0 z "},"Η":{"ha":955,"x_min":95,"x_max":861,"o":"m 861 0 l 608 0 l 608 409 l 347 409 l 347 0 l 95 0 l 95 991 l 347 991 l 347 621 l 608 621 l 608 991 l 861 991 l 861 0 z "},"Θ":{"ha":985,"x_min":62,"x_max":922,"o":"m 608 602 l 608 406 l 376 406 l 376 602 l 608 602 m 922 497 q 896 283 922 378 q 817 122 870 189 q 683 21 764 56 q 492 -14 602 -14 q 303 21 385 -14 q 169 122 222 56 q 89 283 115 189 q 62 498 62 378 q 110 772 62 659 q 253 947 157 886 q 493 1007 349 1007 q 734 947 640 1007 q 876 772 829 886 q 922 497 922 659 m 326 497 q 344 336 326 402 q 398 236 361 270 q 492 201 435 201 q 588 235 552 201 q 641 335 625 269 q 658 497 658 401 q 619 720 658 643 q 493 796 581 796 q 398 761 435 796 q 344 660 361 726 q 326 497 326 593 z "},"Ι":{"ha":442,"x_min":95,"x_max":347,"o":"m 95 0 l 95 991 l 347 991 l 347 0 l 95 0 z "},"Κ":{"ha":861,"x_min":95,"x_max":871,"o":"m 867 0 l 585 0 l 415 374 l 347 332 l 347 0 l 95 0 l 95 991 l 347 991 l 347 561 q 377 624 359 592 q 414 688 395 656 l 598 991 l 871 991 l 596 547 l 867 0 z "},"Λ":{"ha":871,"x_min":0,"x_max":871,"o":"m 583 991 l 871 0 l 595 0 l 476 496 q 458 582 467 538 q 443 665 450 626 q 435 728 437 703 q 427 654 433 695 q 413 573 420 614 q 396 498 405 532 l 275 0 l 0 0 l 288 991 l 583 991 z "},"Μ":{"ha":1232,"x_min":95,"x_max":1138,"o":"m 504 0 l 317 690 l 311 690 q 317 610 314 654 q 321 519 319 565 q 323 431 323 473 l 323 0 l 95 0 l 95 991 l 435 991 l 615 342 l 620 342 l 799 991 l 1138 991 l 1138 0 l 901 0 l 901 435 q 903 522 901 477 q 907 611 905 568 q 911 690 909 655 l 905 690 l 719 0 l 504 0 z "},"Ν":{"ha":1035,"x_min":95,"x_max":941,"o":"m 941 0 l 627 0 l 317 658 l 311 658 q 317 569 315 614 q 321 481 320 524 q 323 406 323 439 l 323 0 l 95 0 l 95 991 l 406 991 l 715 347 l 720 347 q 715 432 718 389 q 712 516 713 475 q 711 588 711 556 l 711 991 l 941 991 l 941 0 z "},"Ξ":{"ha":718,"x_min":47,"x_max":672,"o":"m 47 0 l 47 211 l 672 211 l 672 0 l 47 0 m 121 412 l 121 620 l 598 620 l 598 412 l 121 412 m 71 784 l 71 991 l 648 991 l 648 784 l 71 784 z "},"Ο":{"ha":985,"x_min":62,"x_max":922,"o":"m 922 497 q 896 283 922 378 q 817 122 870 189 q 683 21 764 56 q 492 -14 602 -14 q 303 21 385 -14 q 169 122 222 56 q 89 283 115 189 q 62 498 62 378 q 110 772 62 659 q 253 947 157 886 q 493 1007 349 1007 q 734 947 640 1007 q 876 772 829 886 q 922 497 922 659 m 326 497 q 344 336 326 402 q 398 236 361 270 q 492 201 435 201 q 588 235 552 201 q 641 335 625 269 q 658 497 658 401 q 619 720 658 643 q 493 796 581 796 q 398 761 435 796 q 344 660 361 726 q 326 497 326 593 z "},"Π":{"ha":926,"x_min":95,"x_max":832,"o":"m 95 0 l 95 991 l 832 991 l 832 0 l 579 0 l 579 780 l 347 780 l 347 0 l 95 0 z "},"Ρ":{"ha":800,"x_min":95,"x_max":755,"o":"m 414 991 q 670 909 585 991 q 755 676 755 827 q 736 543 755 606 q 675 432 717 479 q 568 356 634 384 q 408 329 501 329 l 347 329 l 347 0 l 95 0 l 95 991 l 414 991 m 399 783 l 347 783 l 347 538 l 384 538 q 444 552 417 538 q 487 594 471 565 q 503 672 503 624 q 477 754 503 725 q 399 783 452 783 z "},"Σ":{"ha":753,"x_min":45,"x_max":704,"o":"m 45 0 l 45 201 l 303 521 l 56 798 l 56 991 l 670 991 l 670 784 l 481 784 q 429 785 453 784 q 382 787 404 785 q 340 791 360 788 l 578 522 l 321 202 q 397 209 362 207 q 473 211 433 211 l 704 211 l 704 0 l 45 0 z "},"Τ":{"ha":730,"x_min":29,"x_max":701,"o":"m 491 0 l 240 0 l 240 780 l 29 780 l 29 991 l 701 991 l 701 780 l 491 780 l 491 0 z "},"Υ":{"ha":827,"x_min":0,"x_max":827,"o":"m 414 627 l 560 991 l 827 991 l 540 384 l 540 0 l 287 0 l 287 376 l 0 991 l 269 991 l 414 627 z "},"Φ":{"ha":1141,"x_min":49,"x_max":1092,"o":"m 692 1006 l 692 884 q 917 833 829 884 q 1049 699 1006 783 q 1092 513 1092 615 q 1068 365 1092 433 q 996 247 1045 297 q 872 168 947 196 q 692 139 796 139 l 692 -14 l 449 -14 l 449 139 q 267 166 342 139 q 142 244 191 194 q 72 363 94 294 q 49 514 49 432 q 70 653 49 587 q 137 771 91 720 q 261 853 184 823 q 449 884 338 884 l 449 1006 l 692 1006 m 449 684 q 357 663 391 684 q 310 604 323 642 q 296 515 296 566 q 309 417 296 456 q 356 358 323 378 q 449 338 390 338 l 449 684 m 692 684 l 692 338 q 784 359 751 338 q 831 419 818 380 q 845 515 845 459 q 830 603 845 565 q 782 663 815 641 q 692 684 748 684 z "},"Χ":{"ha":863,"x_min":0,"x_max":863,"o":"m 863 0 l 581 0 l 429 298 l 276 0 l 0 0 l 278 502 l 17 991 l 288 991 l 426 701 l 557 991 l 835 991 l 575 495 l 863 0 z "},"Ψ":{"ha":1184,"x_min":73,"x_max":1113,"o":"m 1113 991 l 1113 661 q 1090 485 1113 559 q 1020 364 1068 412 q 896 294 972 317 q 714 269 821 271 l 714 0 l 471 0 l 471 269 q 288 292 363 271 q 164 357 212 313 q 95 472 117 401 q 73 643 73 543 l 73 991 l 323 991 l 323 642 q 338 545 323 580 q 386 496 353 510 q 471 481 418 481 l 471 991 l 714 991 l 714 481 q 795 497 762 481 q 846 548 829 513 q 863 637 863 583 l 863 991 l 1113 991 z "},"Ω":{"ha":985,"x_min":30,"x_max":956,"o":"m 493 796 q 401 769 441 796 q 340 686 362 741 q 319 545 319 630 q 331 412 319 469 q 369 313 342 355 q 439 240 395 271 l 439 0 l 30 0 l 30 212 l 253 212 q 149 302 191 245 q 84 432 106 359 q 62 586 62 505 q 115 814 62 720 q 264 958 168 909 q 493 1007 361 1007 q 717 958 621 1007 q 868 816 814 909 q 923 587 923 722 q 902 434 923 505 q 837 306 880 362 q 727 212 793 250 l 956 212 l 956 0 l 543 0 l 543 240 q 616 315 589 272 q 655 416 644 358 q 667 548 667 473 q 645 687 667 632 q 584 769 623 743 q 493 796 545 796 z "},"Ϊ":{"ha":442,"x_min":-36,"x_max":478,"o":"m 95 0 l 95 991 l 347 991 l 347 0 l 95 0 m -36 1182 q -6 1262 -36 1236 q 71 1289 24 1289 q 149 1262 118 1289 q 180 1182 180 1234 q 149 1104 180 1132 q 71 1076 118 1076 q -6 1103 24 1076 q -36 1182 -36 1131 m 260 1182 q 291 1262 260 1236 q 369 1289 321 1289 q 448 1262 417 1289 q 478 1182 478 1234 q 448 1104 478 1132 q 369 1076 417 1076 q 291 1104 321 1076 q 260 1182 260 1131 z "},"Ϋ":{"ha":827,"x_min":0,"x_max":827,"o":"m 414 627 l 560 991 l 827 991 l 540 384 l 540 0 l 287 0 l 287 376 l 0 991 l 269 991 l 414 627 m 157 1182 q 187 1262 157 1236 q 264 1289 217 1289 q 342 1262 311 1289 q 373 1182 373 1234 q 342 1104 373 1132 q 264 1076 311 1076 q 187 1103 217 1076 q 157 1182 157 1131 m 453 1182 q 484 1262 453 1236 q 562 1289 514 1289 q 640 1262 610 1289 q 671 1182 671 1234 q 640 1104 671 1132 q 562 1076 610 1076 q 483 1104 513 1076 q 453 1182 453 1131 z "},"ά":{"ha":853,"x_min":52,"x_max":825,"o":"m 398 183 q 457 203 435 183 q 490 266 479 223 q 500 375 500 309 l 500 382 q 477 531 500 481 q 396 581 453 581 q 324 529 349 581 q 300 379 300 477 q 325 233 300 282 q 398 183 349 183 m 313 -14 q 122 90 193 -14 q 52 380 52 193 q 127 677 52 574 q 330 781 202 781 q 446 752 401 781 q 519 665 491 724 l 529 665 q 548 723 537 695 q 575 768 559 750 l 787 768 q 763 679 775 730 q 744 569 751 628 q 736 450 736 511 l 736 270 q 750 206 736 224 q 787 188 765 188 q 808 190 797 188 q 825 195 819 192 l 825 4 q 800 -4 819 0 q 761 -11 781 -8 q 726 -14 740 -14 q 598 12 644 -14 q 522 100 551 38 l 507 100 q 459 40 487 66 q 395 1 431 15 q 313 -14 359 -14 m 355 842 l 355 864 q 366 911 359 882 q 379 973 373 941 q 391 1035 386 1005 q 399 1084 397 1065 l 615 1084 l 615 1065 q 582 993 600 1029 q 544 919 564 956 q 500 842 524 882 l 355 842 z "},"έ":{"ha":691,"x_min":42,"x_max":650,"o":"m 517 481 l 517 313 l 432 313 q 343 304 374 313 q 301 281 313 296 q 289 244 289 266 q 299 212 289 227 q 336 188 309 197 q 411 178 363 178 q 539 196 478 178 q 647 238 600 213 l 647 40 q 525 -1 589 12 q 371 -14 462 -14 q 117 48 193 -14 q 42 218 42 111 q 86 337 42 287 q 210 399 130 387 l 210 406 q 117 467 151 422 q 83 574 83 512 q 122 690 83 644 q 230 759 161 736 q 385 782 298 782 q 520 768 457 782 q 650 722 583 754 l 576 547 q 489 584 532 571 q 404 596 447 596 q 337 583 359 596 q 316 545 316 570 q 346 495 316 509 q 447 481 376 481 l 517 481 m 302 842 l 302 864 q 313 911 307 882 q 327 973 320 941 q 338 1035 333 1005 q 347 1084 344 1065 l 562 1084 l 562 1065 q 529 993 547 1029 q 491 919 511 956 q 447 842 471 882 l 302 842 z "},"ή":{"ha":833,"x_min":81,"x_max":754,"o":"m 514 782 q 639 751 585 782 q 724 657 693 720 q 754 500 754 594 l 754 -334 l 509 -334 l 509 433 q 492 540 509 502 q 433 578 475 578 q 368 553 391 578 q 335 477 345 529 q 326 344 326 426 l 326 0 l 81 0 l 81 768 l 269 768 l 298 673 l 312 673 q 363 735 333 711 q 432 771 394 760 q 514 782 471 782 m 351 842 l 351 864 q 362 911 355 882 q 375 973 369 941 q 387 1035 382 1005 q 395 1084 393 1065 l 611 1084 l 611 1065 q 577 993 595 1029 q 539 919 559 956 q 496 842 519 882 l 351 842 z "},"ί":{"ha":534,"x_min":80,"x_max":509,"o":"m 325 768 l 325 256 q 344 203 325 218 q 391 188 363 188 q 449 195 422 188 q 509 217 475 202 l 509 29 q 426 -2 472 9 q 324 -14 380 -14 q 194 11 249 -14 q 110 93 139 35 q 80 248 80 150 l 80 768 l 325 768 m 132 842 l 132 864 q 144 911 137 882 q 157 973 151 941 q 169 1035 163 1005 q 177 1084 174 1065 l 393 1084 l 393 1065 q 359 993 377 1029 q 321 919 341 956 q 277 842 301 882 l 132 842 z "},"ΰ":{"ha":831,"x_min":79,"x_max":768,"o":"m 411 -11 q 214 33 287 -11 q 110 158 142 77 q 79 351 79 239 l 79 768 l 323 768 l 323 332 q 346 223 323 255 q 417 192 368 192 q 496 241 471 192 q 522 416 522 290 q 510 584 522 498 q 476 768 498 670 l 722 768 q 749 642 739 700 q 763 530 759 585 q 768 414 768 475 q 676 93 768 197 q 411 -11 585 -11 m 555 1164 l 555 1150 q 529 1091 545 1122 q 494 1025 514 1060 q 452 952 475 991 l 340 952 l 340 972 q 351 1040 346 1005 q 359 1108 356 1076 q 363 1164 363 1140 l 555 1164 m 217 1065 q 290 1038 262 1065 q 317 958 317 1010 q 290 880 317 908 q 217 852 262 852 q 145 880 172 852 q 119 958 119 907 q 145 1039 119 1012 q 217 1065 172 1065 m 610 1067 q 684 1040 657 1067 q 711 958 711 1013 q 684 882 711 909 q 610 854 657 854 q 537 882 564 854 q 510 960 510 909 q 537 1040 510 1013 q 610 1067 564 1067 z "},"α":{"ha":853,"x_min":52,"x_max":825,"o":"m 398 183 q 457 203 435 183 q 490 266 479 223 q 500 375 500 309 l 500 382 q 477 531 500 481 q 396 581 453 581 q 324 529 349 581 q 300 379 300 477 q 325 233 300 282 q 398 183 349 183 m 313 -14 q 122 90 193 -14 q 52 380 52 193 q 127 677 52 574 q 330 781 202 781 q 446 752 401 781 q 519 665 491 724 l 529 665 q 548 723 537 695 q 575 768 559 750 l 787 768 q 763 679 775 730 q 744 569 751 628 q 736 450 736 511 l 736 270 q 750 206 736 224 q 787 188 765 188 q 808 190 797 188 q 825 195 819 192 l 825 4 q 800 -4 819 0 q 761 -11 781 -8 q 726 -14 740 -14 q 598 12 644 -14 q 522 100 551 38 l 507 100 q 459 40 487 66 q 395 1 431 15 q 313 -14 359 -14 z "},"β":{"ha":852,"x_min":81,"x_max":804,"o":"m 427 1063 q 597 1032 524 1063 q 710 941 669 1001 q 750 794 750 882 q 707 636 750 694 q 583 564 663 578 l 583 558 q 746 482 689 543 q 804 301 804 420 q 767 134 804 205 q 666 25 731 63 q 513 -14 600 -14 q 409 -3 458 -14 q 326 26 360 8 l 326 -334 l 81 -334 l 81 743 q 125 921 81 850 q 247 1027 169 992 q 427 1063 325 1063 m 420 870 q 370 856 391 870 q 337 809 349 842 q 326 722 326 777 l 326 224 q 376 199 342 210 q 436 188 409 188 q 523 222 491 188 q 555 324 555 256 q 539 393 555 366 q 495 432 522 419 q 436 445 468 445 l 403 445 l 403 638 l 425 638 q 486 671 466 638 q 506 757 506 705 q 482 841 506 811 q 420 870 458 870 z "},"γ":{"ha":763,"x_min":1,"x_max":763,"o":"m 763 768 l 513 9 q 482 -104 495 -43 q 461 -225 469 -165 q 454 -334 454 -284 l 194 -334 q 202 -234 194 -294 q 224 -108 210 -173 q 252 8 237 -43 l 1 768 l 260 768 l 326 532 q 349 450 338 492 q 368 365 359 408 q 379 282 376 323 l 384 282 q 395 345 387 309 q 413 425 402 380 q 439 519 425 469 l 509 768 l 763 768 z "},"δ":{"ha":794,"x_min":50,"x_max":743,"o":"m 437 1068 q 596 1048 520 1068 q 743 990 672 1029 l 656 804 q 539 857 593 839 q 445 876 486 876 q 388 864 406 876 q 370 831 370 853 q 381 799 370 814 q 424 762 393 784 q 517 701 456 740 q 645 596 595 652 q 719 472 695 541 q 743 317 743 404 q 700 138 743 212 q 579 25 658 64 q 393 -14 500 -14 q 211 23 288 -14 q 92 129 134 59 q 50 297 50 198 q 74 432 50 372 q 145 537 97 492 q 270 610 194 582 q 195 676 225 640 q 149 753 164 712 q 134 838 134 793 q 211 1006 134 945 q 437 1068 287 1068 m 398 509 q 352 473 375 500 q 314 406 329 447 q 298 313 298 366 q 310 241 298 271 q 343 195 321 211 q 395 178 364 178 q 448 195 425 178 q 482 244 470 212 q 494 321 494 276 q 468 430 494 383 q 398 509 442 477 z "},"ε":{"ha":691,"x_min":42,"x_max":650,"o":"m 517 481 l 517 313 l 432 313 q 343 304 374 313 q 301 281 313 296 q 289 244 289 266 q 299 212 289 227 q 336 188 309 197 q 411 178 363 178 q 539 196 478 178 q 647 238 600 213 l 647 40 q 525 -1 589 12 q 371 -14 462 -14 q 117 48 193 -14 q 42 218 42 111 q 86 337 42 287 q 210 399 130 387 l 210 406 q 117 467 151 422 q 83 574 83 512 q 122 690 83 644 q 230 759 161 736 q 385 782 298 782 q 520 768 457 782 q 650 722 583 754 l 576 547 q 489 584 532 571 q 404 596 447 596 q 337 583 359 596 q 316 545 316 570 q 346 495 316 509 q 447 481 376 481 l 517 481 z "},"ζ":{"ha":653,"x_min":52,"x_max":646,"o":"m 646 -12 q 624 -130 646 -72 q 563 -248 602 -189 l 314 -248 q 361 -178 341 -214 q 393 -112 382 -142 q 404 -69 404 -83 q 396 -38 404 -51 q 357 -13 387 -26 q 264 17 328 0 q 134 78 180 40 q 70 175 88 116 q 52 319 52 235 q 70 459 52 390 q 128 598 89 529 q 227 736 167 667 q 370 878 287 806 q 338 870 356 873 q 303 865 321 867 q 269 863 286 863 l 84 863 l 84 1055 l 632 1055 l 632 903 q 475 742 539 817 q 373 597 412 666 q 317 463 334 528 q 300 332 300 397 q 314 268 300 292 q 365 227 328 243 q 467 193 401 210 q 572 150 532 178 q 629 81 611 121 q 646 -12 646 41 z "},"η":{"ha":833,"x_min":81,"x_max":754,"o":"m 514 782 q 639 751 585 782 q 724 657 693 720 q 754 500 754 594 l 754 -334 l 509 -334 l 509 433 q 492 540 509 502 q 433 578 475 578 q 368 553 391 578 q 335 477 345 529 q 326 344 326 426 l 326 0 l 81 0 l 81 768 l 269 768 l 298 673 l 312 673 q 363 735 333 711 q 432 771 394 760 q 514 782 471 782 z "},"θ":{"ha":809,"x_min":52,"x_max":758,"o":"m 758 529 q 721 232 758 353 q 605 48 684 111 q 403 -14 527 -14 q 138 124 225 -14 q 52 529 52 262 q 88 827 52 707 q 202 1009 124 948 q 403 1071 279 1071 q 669 933 581 1071 q 758 529 758 796 m 403 169 q 482 236 456 169 q 509 436 507 302 l 300 436 q 326 237 302 304 q 403 169 351 169 m 406 888 q 330 822 355 888 q 303 618 306 756 l 511 618 q 481 822 507 756 q 406 888 456 888 z "},"ι":{"ha":534,"x_min":80,"x_max":509,"o":"m 325 768 l 325 256 q 344 203 325 218 q 391 188 363 188 q 449 195 422 188 q 509 217 475 202 l 509 29 q 426 -2 472 9 q 324 -14 380 -14 q 194 11 249 -14 q 110 93 139 35 q 80 248 80 150 l 80 768 l 325 768 z "},"κ":{"ha":820,"x_min":81,"x_max":823,"o":"m 812 768 l 572 437 l 823 0 l 550 0 l 403 275 l 326 214 l 326 0 l 81 0 l 81 768 l 326 768 l 326 619 q 324 517 326 564 q 318 433 322 471 l 323 433 q 355 488 337 458 q 393 548 373 519 l 543 768 l 812 768 z "},"λ":{"ha":830,"x_min":1,"x_max":817,"o":"m 1 0 l 284 720 l 271 768 q 227 843 254 818 q 158 867 201 867 q 121 865 140 867 q 84 858 102 863 l 84 1054 q 117 1060 98 1058 q 158 1064 137 1063 q 196 1065 179 1065 q 336 1040 279 1065 q 433 956 393 1015 q 505 798 473 897 l 663 301 q 695 229 680 253 q 727 198 710 205 q 767 191 745 191 q 791 192 779 191 q 817 198 804 194 l 817 4 q 783 -5 805 -1 q 739 -11 762 -9 q 697 -14 715 -14 q 583 12 629 -14 q 508 86 538 37 q 456 205 478 135 l 417 325 q 409 354 412 340 q 402 381 405 368 q 397 406 399 394 q 394 431 395 418 l 389 431 q 380 373 387 401 q 366 325 374 345 l 257 0 l 1 0 z "},"μ":{"ha":834,"x_min":80,"x_max":753,"o":"m 753 768 l 753 0 l 567 0 l 536 100 l 526 100 q 494 37 513 62 q 453 -1 475 12 q 405 -14 430 -14 q 355 0 374 -14 q 321 43 337 14 l 318 43 q 322 -3 320 24 q 324 -59 323 -30 q 325 -117 325 -88 l 325 -334 l 80 -334 l 80 768 l 325 768 l 325 347 q 343 230 325 269 q 404 191 361 191 q 470 221 448 191 q 500 303 492 250 q 508 425 508 355 l 508 768 l 753 768 z "},"ν":{"ha":781,"x_min":1,"x_max":737,"o":"m 1 768 l 255 768 l 368 335 q 375 304 371 321 q 382 272 378 288 q 387 239 385 255 l 393 239 q 449 388 427 311 q 481 558 471 466 q 491 768 491 651 l 737 768 q 710 491 737 621 q 622 241 682 361 q 460 0 561 121 l 243 0 l 1 768 z "},"ξ":{"ha":656,"x_min":52,"x_max":642,"o":"m 52 289 q 70 401 52 353 q 127 487 89 450 q 224 549 165 523 l 224 554 q 150 587 180 565 q 105 641 120 608 q 90 715 90 673 q 105 782 90 751 q 151 838 121 814 q 224 871 181 861 q 187 867 204 869 q 152 864 170 865 q 111 863 134 863 l 71 863 l 71 1055 l 612 1055 l 612 863 l 517 863 q 444 856 477 863 q 385 834 410 849 q 347 794 360 819 q 334 734 334 770 q 366 665 334 688 q 475 641 397 641 l 567 641 l 567 450 l 476 450 q 371 434 409 450 q 316 390 332 418 q 300 321 300 361 q 312 264 300 287 q 358 225 323 241 q 460 193 392 209 q 565 148 525 178 q 623 78 605 119 q 642 -14 642 37 q 620 -132 642 -74 q 559 -248 597 -190 l 309 -248 q 357 -178 337 -214 q 389 -112 378 -142 q 400 -69 400 -83 q 392 -36 400 -50 q 359 -12 383 -22 q 288 11 335 -1 q 153 70 205 32 q 76 163 101 108 q 52 289 52 218 z "},"ο":{"ha":801,"x_min":52,"x_max":748,"o":"m 748 386 q 727 228 748 301 q 663 101 706 155 q 553 17 619 47 q 399 -14 488 -14 q 252 16 316 -14 q 143 100 188 46 q 75 227 98 154 q 52 386 52 300 q 91 594 52 505 q 208 732 130 683 q 402 782 286 782 q 582 736 504 782 q 704 602 660 690 q 748 386 748 513 m 300 385 q 310 272 300 317 q 343 202 321 226 q 401 178 365 178 q 459 202 437 178 q 490 272 480 225 q 499 386 499 318 q 490 499 499 454 q 458 567 480 545 q 400 590 437 590 q 323 539 347 590 q 300 385 300 488 z "},"π":{"ha":979,"x_min":12,"x_max":937,"o":"m 844 189 q 891 195 865 189 q 937 212 917 201 l 937 35 q 856 0 905 13 q 755 -14 807 -14 q 597 50 647 -14 q 547 239 547 113 l 547 576 l 397 576 l 397 0 l 152 0 l 152 576 l 12 576 l 12 684 l 131 768 l 937 768 l 937 576 l 792 576 l 792 256 q 807 204 792 220 q 844 189 822 189 z "},"ρ":{"ha":813,"x_min":77,"x_max":762,"o":"m 762 383 q 731 177 762 267 q 640 37 701 87 q 484 -14 578 -14 q 396 0 437 -14 q 325 35 355 14 l 311 35 q 319 -58 316 -7 q 322 -149 322 -108 l 322 -334 l 77 -334 l 77 379 q 114 590 77 499 q 227 731 151 681 q 423 782 303 782 q 602 736 526 782 q 720 601 677 690 q 762 383 762 512 m 420 590 q 347 550 372 590 q 322 425 322 511 l 322 224 q 367 194 340 204 q 418 183 393 183 q 490 227 467 183 q 513 383 513 270 q 491 544 513 498 q 420 590 468 590 z "},"ς":{"ha":675,"x_min":52,"x_max":650,"o":"m 410 782 q 529 767 469 782 q 650 721 589 751 l 582 534 q 497 570 539 557 q 414 582 454 582 q 328 528 356 582 q 300 371 300 473 q 313 282 300 315 q 361 230 326 250 q 464 193 397 210 q 570 148 530 177 q 628 77 610 118 q 646 -14 646 37 q 623 -132 646 -74 q 562 -248 601 -190 l 313 -248 q 360 -178 340 -214 q 392 -112 380 -142 q 403 -69 403 -83 q 395 -36 403 -50 q 360 -9 387 -22 q 273 19 332 4 q 179 56 220 33 q 110 117 138 79 q 66 217 81 156 q 52 368 52 277 q 93 597 52 505 q 215 735 134 689 q 410 782 295 782 z "},"σ":{"ha":858,"x_min":52,"x_max":825,"o":"m 767 323 q 724 148 767 224 q 602 29 682 72 q 408 -14 522 -14 q 217 31 296 -14 q 94 157 137 75 q 52 355 52 239 q 97 585 52 494 q 238 723 142 677 q 484 768 333 768 l 825 768 l 825 576 l 658 576 q 740 468 712 530 q 767 323 767 405 m 300 357 q 313 264 300 302 q 350 206 326 226 q 411 186 374 186 q 492 232 466 186 q 518 364 518 278 q 511 446 518 410 q 490 512 504 481 q 456 576 477 543 l 444 576 q 334 525 368 576 q 300 357 300 473 z "},"τ":{"ha":656,"x_min":12,"x_max":619,"o":"m 619 768 l 619 576 l 418 576 l 418 262 q 434 207 418 226 q 480 188 450 188 q 534 195 507 188 q 591 214 561 202 l 591 28 q 508 -2 555 9 q 404 -13 462 -13 q 278 12 330 -13 q 200 94 227 37 q 173 250 173 152 l 173 576 l 12 576 l 12 684 l 129 768 l 619 768 z "},"υ":{"ha":831,"x_min":79,"x_max":768,"o":"m 411 -11 q 214 33 287 -11 q 110 158 142 77 q 79 351 79 239 l 79 768 l 323 768 l 323 332 q 346 223 323 255 q 417 192 368 192 q 496 241 471 192 q 522 416 522 290 q 510 584 522 498 q 476 768 498 670 l 722 768 q 749 642 739 700 q 763 530 759 585 q 768 414 768 475 q 676 93 768 197 q 411 -11 585 -11 z "},"φ":{"ha":1069,"x_min":52,"x_max":1019,"o":"m 195 788 l 379 680 q 317 534 340 616 q 294 372 294 452 q 308 283 294 320 q 347 222 321 245 q 409 187 372 199 l 409 467 q 478 701 409 625 q 692 778 547 778 q 865 734 792 778 q 979 608 939 690 q 1019 410 1019 526 q 972 198 1019 287 q 842 58 926 109 q 644 -5 758 7 l 644 -334 l 409 -334 l 409 -5 q 219 50 299 3 q 95 179 138 97 q 52 376 52 262 q 88 595 52 495 q 195 788 125 695 m 694 585 q 654 561 665 585 q 644 479 644 536 l 644 187 q 718 222 690 192 q 759 300 746 252 q 772 408 772 349 q 764 505 772 465 q 738 565 755 544 q 694 585 720 585 z "},"χ":{"ha":800,"x_min":-32,"x_max":789,"o":"m 159 781 q 274 761 227 781 q 352 696 320 741 q 408 576 383 652 l 428 514 l 537 768 l 789 768 l 530 247 l 623 -20 q 651 -91 638 -66 q 681 -126 665 -117 q 721 -135 697 -135 q 749 -133 734 -135 q 785 -126 764 -132 l 785 -314 q 724 -329 755 -323 q 646 -334 692 -334 q 537 -312 583 -334 q 460 -240 492 -290 q 404 -109 429 -191 l 371 -3 l 235 -334 l -32 -334 l 272 266 l 193 494 q 153 566 175 549 q 106 584 132 584 q 72 581 90 584 q 33 570 54 578 l 33 762 q 90 776 58 770 q 159 781 121 781 z "},"ψ":{"ha":1135,"x_min":79,"x_max":1071,"o":"m 687 1054 l 687 192 q 769 218 738 198 q 815 279 800 237 q 829 393 829 321 q 816 576 829 483 q 775 768 802 670 l 1013 768 q 1058 568 1045 657 q 1071 389 1071 479 q 1023 170 1071 256 q 890 40 976 83 q 687 -11 804 -4 l 687 -334 l 452 -334 l 452 -11 q 252 31 336 -7 q 123 150 168 69 q 79 364 79 231 l 79 768 l 320 768 l 320 366 q 334 267 320 304 q 378 213 349 231 q 452 192 407 196 l 452 1054 l 687 1054 z "},"ω":{"ha":1161,"x_min":64,"x_max":1097,"o":"m 1031 768 q 1069 636 1055 699 q 1090 510 1084 574 q 1097 374 1097 447 q 1063 171 1097 258 q 960 35 1028 83 q 794 -14 892 -14 q 659 23 709 -14 q 584 137 608 60 l 577 137 q 504 24 553 62 q 366 -14 454 -14 q 200 35 268 -14 q 98 171 133 84 q 64 374 64 258 q 71 510 64 448 q 92 634 77 572 q 131 768 107 696 l 380 768 q 324 585 342 683 q 306 385 306 488 q 326 235 306 278 q 389 192 345 192 q 433 205 417 192 q 456 255 449 219 q 463 357 463 290 l 463 543 l 699 543 l 699 357 q 705 254 699 290 q 727 206 711 219 q 772 192 743 193 q 823 216 804 192 q 848 281 841 239 q 856 380 856 323 q 838 579 856 478 q 781 768 820 681 l 1031 768 z "},"ϊ":{"ha":534,"x_min":-38,"x_max":509,"o":"m 325 768 l 325 256 q 344 203 325 218 q 391 188 363 188 q 449 195 422 188 q 509 217 475 202 l 509 29 q 426 -2 472 9 q 324 -14 380 -14 q 194 11 249 -14 q 110 93 139 35 q 80 248 80 150 l 80 768 l 325 768 m -38 958 q -8 1039 -38 1012 q 69 1065 22 1065 q 147 1038 116 1065 q 178 958 178 1010 q 147 880 178 908 q 69 852 116 852 q -8 880 22 852 q -38 958 -38 907 m 258 958 q 289 1039 258 1012 q 367 1065 319 1065 q 446 1038 415 1065 q 476 958 476 1010 q 446 880 476 908 q 367 852 415 852 q 289 880 319 852 q 258 958 258 907 z "},"ϋ":{"ha":831,"x_min":79,"x_max":768,"o":"m 411 -11 q 214 33 287 -11 q 110 158 142 77 q 79 351 79 239 l 79 768 l 323 768 l 323 332 q 346 223 323 255 q 417 192 368 192 q 496 241 471 192 q 522 416 522 290 q 510 584 522 498 q 476 768 498 670 l 722 768 q 749 642 739 700 q 763 530 759 585 q 768 414 768 475 q 676 93 768 197 q 411 -11 585 -11 m 155 958 q 185 1039 155 1012 q 262 1065 216 1065 q 340 1038 309 1065 q 372 958 372 1010 q 340 880 372 908 q 262 852 309 852 q 185 880 216 852 q 155 958 155 907 m 452 958 q 482 1039 452 1012 q 560 1065 513 1065 q 639 1038 608 1065 q 669 958 669 1010 q 639 880 669 908 q 560 852 608 852 q 482 880 512 852 q 452 958 452 907 z "},"ό":{"ha":801,"x_min":52,"x_max":748,"o":"m 748 386 q 727 228 748 301 q 663 101 706 155 q 553 17 619 47 q 399 -14 488 -14 q 252 16 316 -14 q 143 100 188 46 q 75 227 98 154 q 52 386 52 300 q 91 594 52 505 q 208 732 130 683 q 402 782 286 782 q 582 736 504 782 q 704 602 660 690 q 748 386 748 513 m 300 385 q 310 272 300 317 q 343 202 321 226 q 401 178 365 178 q 459 202 437 178 q 490 272 480 225 q 499 386 499 318 q 490 499 499 454 q 458 567 480 545 q 400 590 437 590 q 323 539 347 590 q 300 385 300 488 m 315 842 l 315 864 q 326 911 319 882 q 339 973 333 941 q 351 1035 346 1005 q 359 1084 357 1065 l 575 1084 l 575 1065 q 542 993 559 1029 q 504 919 524 956 q 460 842 484 882 l 315 842 z "},"ύ":{"ha":831,"x_min":79,"x_max":768,"o":"m 411 -11 q 214 33 287 -11 q 110 158 142 77 q 79 351 79 239 l 79 768 l 323 768 l 323 332 q 346 223 323 255 q 417 192 368 192 q 496 241 471 192 q 522 416 522 290 q 510 584 522 498 q 476 768 498 670 l 722 768 q 749 642 739 700 q 763 530 759 585 q 768 414 768 475 q 676 93 768 197 q 411 -11 585 -11 m 326 842 l 326 864 q 338 911 331 882 q 351 973 345 941 q 363 1035 357 1005 q 371 1084 368 1065 l 587 1084 l 587 1065 q 553 993 571 1029 q 515 919 535 956 q 471 842 495 882 l 326 842 z "},"ώ":{"ha":1161,"x_min":64,"x_max":1097,"o":"m 1031 768 q 1069 636 1055 699 q 1090 510 1084 574 q 1097 374 1097 447 q 1063 171 1097 258 q 960 35 1028 83 q 794 -14 892 -14 q 659 23 709 -14 q 584 137 608 60 l 577 137 q 504 24 553 62 q 366 -14 454 -14 q 200 35 268 -14 q 98 171 133 84 q 64 374 64 258 q 71 510 64 448 q 92 634 77 572 q 131 768 107 696 l 380 768 q 324 585 342 683 q 306 385 306 488 q 326 235 306 278 q 389 192 345 192 q 433 205 417 192 q 456 255 449 219 q 463 357 463 290 l 463 543 l 699 543 l 699 357 q 705 254 699 290 q 727 206 711 219 q 772 192 743 193 q 823 216 804 192 q 848 281 841 239 q 856 380 856 323 q 838 579 856 478 q 781 768 820 681 l 1031 768 m 495 842 l 495 864 q 507 911 500 882 q 520 973 513 941 q 532 1035 526 1005 q 540 1084 537 1065 l 755 1084 l 755 1065 q 722 993 740 1029 q 684 919 704 956 q 640 842 664 882 l 495 842 z "},"Ё":{"ha":689,"x_min":95,"x_max":628,"o":"m 628 0 l 95 0 l 95 991 l 628 991 l 628 784 l 347 784 l 347 616 l 607 616 l 607 409 l 347 409 l 347 211 l 628 211 l 628 0 m 103 1182 q 133 1262 103 1236 q 210 1289 163 1289 q 288 1262 257 1289 q 319 1182 319 1234 q 288 1104 319 1132 q 210 1076 257 1076 q 133 1103 163 1076 q 103 1182 103 1131 m 399 1182 q 430 1262 399 1236 q 508 1289 460 1289 q 587 1262 556 1289 q 617 1182 617 1234 q 587 1104 617 1132 q 508 1076 556 1076 q 430 1104 460 1076 q 399 1182 399 1131 z "},"Ђ":{"ha":1010,"x_min":29,"x_max":947,"o":"m 687 -14 q 629 -9 658 -14 q 576 3 600 -5 l 576 205 q 608 194 590 199 q 640 189 625 189 q 672 197 660 189 q 690 219 684 204 q 696 259 696 235 l 696 363 q 678 419 696 401 q 624 437 661 437 l 490 437 l 490 0 l 237 0 l 237 780 l 29 780 l 29 991 l 709 991 l 709 780 l 490 780 l 490 648 l 646 648 q 870 574 793 648 q 947 370 947 500 l 947 283 q 884 64 947 141 q 687 -14 821 -14 z "},"Ѓ":{"ha":708,"x_min":95,"x_max":688,"o":"m 682 991 l 682 781 l 347 781 l 347 0 l 95 0 l 95 991 l 682 991 m 688 1288 l 688 1274 q 638 1229 669 1255 q 573 1172 608 1202 q 505 1115 538 1143 q 444 1065 471 1086 l 273 1065 l 273 1085 q 322 1152 296 1116 q 373 1222 348 1187 q 416 1288 398 1257 l 688 1288 z "},"Є":{"ha":833,"x_min":62,"x_max":795,"o":"m 513 793 q 439 781 471 793 q 385 743 408 768 q 348 683 362 718 q 327 602 334 647 l 656 602 l 656 399 l 326 399 q 343 313 329 350 q 381 251 357 275 q 441 213 406 226 q 521 200 476 200 q 645 217 587 200 q 763 260 702 235 l 763 44 q 640 2 708 17 q 494 -14 571 -14 q 253 47 349 -14 q 110 221 157 108 q 62 493 62 335 q 92 700 62 606 q 177 862 121 793 q 316 968 233 930 q 505 1005 399 1005 q 662 985 589 1005 q 795 933 734 965 l 720 728 q 623 775 671 757 q 513 793 575 793 z "},"Ѕ":{"ha":716,"x_min":50,"x_max":676,"o":"m 676 301 q 636 143 676 215 q 519 29 597 72 q 326 -14 441 -14 q 225 -7 271 -14 q 137 12 179 -1 q 50 49 95 26 l 50 288 q 191 226 119 248 q 321 204 263 204 q 378 214 356 204 q 411 240 400 223 q 422 278 422 256 q 409 320 422 302 q 363 360 396 338 q 272 412 331 381 q 183 467 222 439 q 115 529 143 494 q 72 608 87 563 q 56 715 56 654 q 97 872 56 808 q 214 971 138 937 q 394 1006 290 1006 q 543 986 473 1006 q 676 935 613 966 l 604 728 q 493 775 546 759 q 395 791 440 791 q 346 783 365 791 q 318 760 327 774 q 309 728 309 746 q 322 685 309 703 q 371 645 336 666 q 470 589 406 623 q 582 515 536 554 q 652 425 628 476 q 676 301 676 373 z "},"І":{"ha":442,"x_min":95,"x_max":347,"o":"m 95 0 l 95 991 l 347 991 l 347 0 l 95 0 z "},"Ї":{"ha":442,"x_min":-36,"x_max":478,"o":"m 95 0 l 95 991 l 347 991 l 347 0 l 95 0 m -36 1182 q -6 1262 -36 1236 q 71 1289 24 1289 q 149 1262 118 1289 q 180 1182 180 1234 q 149 1104 180 1132 q 71 1076 118 1076 q -6 1103 24 1076 q -36 1182 -36 1131 m 260 1182 q 291 1262 260 1236 q 369 1289 321 1289 q 448 1262 417 1289 q 478 1182 478 1234 q 448 1104 478 1132 q 369 1076 417 1076 q 291 1104 321 1076 q 260 1182 260 1131 z "},"Ј":{"ha":446,"x_min":-97,"x_max":351,"o":"m 30 -311 q -39 -307 -7 -311 q -97 -297 -71 -303 l -97 -93 q -56 -103 -78 -98 q -9 -107 -35 -107 q 56 -89 33 -107 q 90 -33 80 -71 q 100 70 100 6 l 100 991 l 351 991 l 351 87 q 312 -150 351 -62 q 200 -274 273 -237 q 30 -311 128 -311 z "},"Љ":{"ha":1284,"x_min":16,"x_max":1246,"o":"m 120 -14 q 62 -9 88 -14 q 16 1 36 -5 l 16 203 q 45 194 31 197 q 74 191 60 191 q 109 203 94 191 q 137 252 124 216 q 161 359 149 289 q 174 454 165 390 q 194 605 183 518 q 215 791 204 692 q 235 991 226 890 l 831 991 l 831 640 l 883 640 q 1084 604 1004 640 q 1206 498 1165 567 q 1246 333 1246 429 q 1148 87 1246 175 q 875 0 1050 0 l 583 0 l 583 772 l 452 772 q 442 656 448 718 q 429 530 436 593 q 413 406 421 466 q 396 297 405 347 q 380 216 388 248 q 330 89 361 140 q 250 13 300 38 q 120 -14 199 -13 m 831 206 l 871 206 q 964 236 933 206 q 995 323 995 265 q 981 385 995 360 q 940 421 967 409 q 874 434 913 434 l 831 434 l 831 206 z "}}}
